<?xml version="1.0" encoding="utf-8" standalone="no"?>
<!DOCTYPE svg PUBLIC "-//W3C//DTD SVG 1.1//EN"
  "http://www.w3.org/Graphics/SVG/1.1/DTD/svg11.dtd">
<svg xmlns:xlink="http://www.w3.org/1999/xlink" width="864pt" height="576pt" viewBox="0 0 864 576" xmlns="http://www.w3.org/2000/svg" version="1.1">
 <metadata>
  <rdf:RDF xmlns:dc="http://purl.org/dc/elements/1.1/" xmlns:cc="http://creativecommons.org/ns#" xmlns:rdf="http://www.w3.org/1999/02/22-rdf-syntax-ns#">
   <cc:Work>
    <dc:type rdf:resource="http://purl.org/dc/dcmitype/StillImage"/>
    <dc:date>2025-05-07T15:02:19.538227</dc:date>
    <dc:format>image/svg+xml</dc:format>
    <dc:creator>
     <cc:Agent>
      <dc:title>Matplotlib v3.9.2, https://matplotlib.org/</dc:title>
     </cc:Agent>
    </dc:creator>
   </cc:Work>
  </rdf:RDF>
 </metadata>
 <defs>
  <style type="text/css">*{stroke-linejoin: round; stroke-linecap: butt}</style>
 </defs>
 <g id="figure_1">
  <g id="patch_1">
   <path d="M 0 576 
L 864 576 
L 864 0 
L 0 0 
z
" style="fill: #ffffff"/>
  </g>
  <g id="axes_1">
   <g id="patch_2">
    <path d="M 54.4475 527.3575 
L 853.2 527.3575 
L 853.2 11.505089 
L 54.4475 11.505089 
z
" style="fill: #ffffff"/>
   </g>
   <g id="patch_3">
    <path d="M 87.728854 527.3575 
L 154.291562 527.3575 
L 154.291562 36.069489 
L 87.728854 36.069489 
z
" clip-path="url(#p9f764af474)" style="fill: #f7ded2"/>
   </g>
   <g id="patch_4">
    <path d="M 220.854271 527.3575 
L 287.416979 527.3575 
L 287.416979 37.330819 
L 220.854271 37.330819 
z
" clip-path="url(#p9f764af474)" style="fill: #efb5a0"/>
   </g>
   <g id="patch_5">
    <path d="M 353.979688 527.3575 
L 420.542396 527.3575 
L 420.542396 44.898799 
L 353.979688 44.898799 
z
" clip-path="url(#p9f764af474)" style="fill: #e88d75"/>
   </g>
   <g id="patch_6">
    <path d="M 487.105104 527.3575 
L 553.667812 527.3575 
L 553.667812 220.04255 
L 487.105104 220.04255 
z
" clip-path="url(#p9f764af474)" style="fill: #dd6150"/>
   </g>
   <g id="patch_7">
    <path d="M 620.230521 527.3575 
L 686.793229 527.3575 
L 686.793229 223.376985 
L 620.230521 223.376985 
z
" clip-path="url(#p9f764af474)" style="fill: #bf3838"/>
   </g>
   <g id="patch_8">
    <path d="M 753.355937 527.3575 
L 819.918646 527.3575 
L 819.918646 254.594901 
L 753.355937 254.594901 
z
" clip-path="url(#p9f764af474)" style="fill: #972328"/>
   </g>
   <g id="matplotlib.axis_1">
    <g id="xtick_1">
     <g id="line2d_1">
      <defs>
       <path id="m8a1865c2fa" d="M 0 0 
L 0 3.5 
" style="stroke: #000000; stroke-width: 0.8"/>
      </defs>
      <g>
       <use xlink:href="#m8a1865c2fa" x="121.010208" y="527.3575" style="stroke: #000000; stroke-width: 0.8"/>
      </g>
     </g>
     <g id="text_1">
      <!-- CatBoost -->
      <g transform="translate(80.276771 548.034688) scale(0.18 -0.18)">
       <defs>
        <path id="DejaVuSans-43" d="M 4122 4306 
L 4122 3641 
Q 3803 3938 3442 4084 
Q 3081 4231 2675 4231 
Q 1875 4231 1450 3742 
Q 1025 3253 1025 2328 
Q 1025 1406 1450 917 
Q 1875 428 2675 428 
Q 3081 428 3442 575 
Q 3803 722 4122 1019 
L 4122 359 
Q 3791 134 3420 21 
Q 3050 -91 2638 -91 
Q 1578 -91 968 557 
Q 359 1206 359 2328 
Q 359 3453 968 4101 
Q 1578 4750 2638 4750 
Q 3056 4750 3426 4639 
Q 3797 4528 4122 4306 
z
" transform="scale(0.015625)"/>
        <path id="DejaVuSans-61" d="M 2194 1759 
Q 1497 1759 1228 1600 
Q 959 1441 959 1056 
Q 959 750 1161 570 
Q 1363 391 1709 391 
Q 2188 391 2477 730 
Q 2766 1069 2766 1631 
L 2766 1759 
L 2194 1759 
z
M 3341 1997 
L 3341 0 
L 2766 0 
L 2766 531 
Q 2569 213 2275 61 
Q 1981 -91 1556 -91 
Q 1019 -91 701 211 
Q 384 513 384 1019 
Q 384 1609 779 1909 
Q 1175 2209 1959 2209 
L 2766 2209 
L 2766 2266 
Q 2766 2663 2505 2880 
Q 2244 3097 1772 3097 
Q 1472 3097 1187 3025 
Q 903 2953 641 2809 
L 641 3341 
Q 956 3463 1253 3523 
Q 1550 3584 1831 3584 
Q 2591 3584 2966 3190 
Q 3341 2797 3341 1997 
z
" transform="scale(0.015625)"/>
        <path id="DejaVuSans-74" d="M 1172 4494 
L 1172 3500 
L 2356 3500 
L 2356 3053 
L 1172 3053 
L 1172 1153 
Q 1172 725 1289 603 
Q 1406 481 1766 481 
L 2356 481 
L 2356 0 
L 1766 0 
Q 1100 0 847 248 
Q 594 497 594 1153 
L 594 3053 
L 172 3053 
L 172 3500 
L 594 3500 
L 594 4494 
L 1172 4494 
z
" transform="scale(0.015625)"/>
        <path id="DejaVuSans-42" d="M 1259 2228 
L 1259 519 
L 2272 519 
Q 2781 519 3026 730 
Q 3272 941 3272 1375 
Q 3272 1813 3026 2020 
Q 2781 2228 2272 2228 
L 1259 2228 
z
M 1259 4147 
L 1259 2741 
L 2194 2741 
Q 2656 2741 2882 2914 
Q 3109 3088 3109 3444 
Q 3109 3797 2882 3972 
Q 2656 4147 2194 4147 
L 1259 4147 
z
M 628 4666 
L 2241 4666 
Q 2963 4666 3353 4366 
Q 3744 4066 3744 3513 
Q 3744 3084 3544 2831 
Q 3344 2578 2956 2516 
Q 3422 2416 3680 2098 
Q 3938 1781 3938 1306 
Q 3938 681 3513 340 
Q 3088 0 2303 0 
L 628 0 
L 628 4666 
z
" transform="scale(0.015625)"/>
        <path id="DejaVuSans-6f" d="M 1959 3097 
Q 1497 3097 1228 2736 
Q 959 2375 959 1747 
Q 959 1119 1226 758 
Q 1494 397 1959 397 
Q 2419 397 2687 759 
Q 2956 1122 2956 1747 
Q 2956 2369 2687 2733 
Q 2419 3097 1959 3097 
z
M 1959 3584 
Q 2709 3584 3137 3096 
Q 3566 2609 3566 1747 
Q 3566 888 3137 398 
Q 2709 -91 1959 -91 
Q 1206 -91 779 398 
Q 353 888 353 1747 
Q 353 2609 779 3096 
Q 1206 3584 1959 3584 
z
" transform="scale(0.015625)"/>
        <path id="DejaVuSans-73" d="M 2834 3397 
L 2834 2853 
Q 2591 2978 2328 3040 
Q 2066 3103 1784 3103 
Q 1356 3103 1142 2972 
Q 928 2841 928 2578 
Q 928 2378 1081 2264 
Q 1234 2150 1697 2047 
L 1894 2003 
Q 2506 1872 2764 1633 
Q 3022 1394 3022 966 
Q 3022 478 2636 193 
Q 2250 -91 1575 -91 
Q 1294 -91 989 -36 
Q 684 19 347 128 
L 347 722 
Q 666 556 975 473 
Q 1284 391 1588 391 
Q 1994 391 2212 530 
Q 2431 669 2431 922 
Q 2431 1156 2273 1281 
Q 2116 1406 1581 1522 
L 1381 1569 
Q 847 1681 609 1914 
Q 372 2147 372 2553 
Q 372 3047 722 3315 
Q 1072 3584 1716 3584 
Q 2034 3584 2315 3537 
Q 2597 3491 2834 3397 
z
" transform="scale(0.015625)"/>
       </defs>
       <use xlink:href="#DejaVuSans-43"/>
       <use xlink:href="#DejaVuSans-61" x="69.824219"/>
       <use xlink:href="#DejaVuSans-74" x="131.103516"/>
       <use xlink:href="#DejaVuSans-42" x="170.3125"/>
       <use xlink:href="#DejaVuSans-6f" x="238.916016"/>
       <use xlink:href="#DejaVuSans-6f" x="300.097656"/>
       <use xlink:href="#DejaVuSans-73" x="361.279297"/>
       <use xlink:href="#DejaVuSans-74" x="413.378906"/>
      </g>
     </g>
    </g>
    <g id="xtick_2">
     <g id="line2d_2">
      <g>
       <use xlink:href="#m8a1865c2fa" x="254.135625" y="527.3575" style="stroke: #000000; stroke-width: 0.8"/>
      </g>
     </g>
     <g id="text_2">
      <!-- RandomForest -->
      <g transform="translate(189.269531 548.034688) scale(0.18 -0.18)">
       <defs>
        <path id="DejaVuSans-52" d="M 2841 2188 
Q 3044 2119 3236 1894 
Q 3428 1669 3622 1275 
L 4263 0 
L 3584 0 
L 2988 1197 
Q 2756 1666 2539 1819 
Q 2322 1972 1947 1972 
L 1259 1972 
L 1259 0 
L 628 0 
L 628 4666 
L 2053 4666 
Q 2853 4666 3247 4331 
Q 3641 3997 3641 3322 
Q 3641 2881 3436 2590 
Q 3231 2300 2841 2188 
z
M 1259 4147 
L 1259 2491 
L 2053 2491 
Q 2509 2491 2742 2702 
Q 2975 2913 2975 3322 
Q 2975 3731 2742 3939 
Q 2509 4147 2053 4147 
L 1259 4147 
z
" transform="scale(0.015625)"/>
        <path id="DejaVuSans-6e" d="M 3513 2113 
L 3513 0 
L 2938 0 
L 2938 2094 
Q 2938 2591 2744 2837 
Q 2550 3084 2163 3084 
Q 1697 3084 1428 2787 
Q 1159 2491 1159 1978 
L 1159 0 
L 581 0 
L 581 3500 
L 1159 3500 
L 1159 2956 
Q 1366 3272 1645 3428 
Q 1925 3584 2291 3584 
Q 2894 3584 3203 3211 
Q 3513 2838 3513 2113 
z
" transform="scale(0.015625)"/>
        <path id="DejaVuSans-64" d="M 2906 2969 
L 2906 4863 
L 3481 4863 
L 3481 0 
L 2906 0 
L 2906 525 
Q 2725 213 2448 61 
Q 2172 -91 1784 -91 
Q 1150 -91 751 415 
Q 353 922 353 1747 
Q 353 2572 751 3078 
Q 1150 3584 1784 3584 
Q 2172 3584 2448 3432 
Q 2725 3281 2906 2969 
z
M 947 1747 
Q 947 1113 1208 752 
Q 1469 391 1925 391 
Q 2381 391 2643 752 
Q 2906 1113 2906 1747 
Q 2906 2381 2643 2742 
Q 2381 3103 1925 3103 
Q 1469 3103 1208 2742 
Q 947 2381 947 1747 
z
" transform="scale(0.015625)"/>
        <path id="DejaVuSans-6d" d="M 3328 2828 
Q 3544 3216 3844 3400 
Q 4144 3584 4550 3584 
Q 5097 3584 5394 3201 
Q 5691 2819 5691 2113 
L 5691 0 
L 5113 0 
L 5113 2094 
Q 5113 2597 4934 2840 
Q 4756 3084 4391 3084 
Q 3944 3084 3684 2787 
Q 3425 2491 3425 1978 
L 3425 0 
L 2847 0 
L 2847 2094 
Q 2847 2600 2669 2842 
Q 2491 3084 2119 3084 
Q 1678 3084 1418 2786 
Q 1159 2488 1159 1978 
L 1159 0 
L 581 0 
L 581 3500 
L 1159 3500 
L 1159 2956 
Q 1356 3278 1631 3431 
Q 1906 3584 2284 3584 
Q 2666 3584 2933 3390 
Q 3200 3197 3328 2828 
z
" transform="scale(0.015625)"/>
        <path id="DejaVuSans-46" d="M 628 4666 
L 3309 4666 
L 3309 4134 
L 1259 4134 
L 1259 2759 
L 3109 2759 
L 3109 2228 
L 1259 2228 
L 1259 0 
L 628 0 
L 628 4666 
z
" transform="scale(0.015625)"/>
        <path id="DejaVuSans-72" d="M 2631 2963 
Q 2534 3019 2420 3045 
Q 2306 3072 2169 3072 
Q 1681 3072 1420 2755 
Q 1159 2438 1159 1844 
L 1159 0 
L 581 0 
L 581 3500 
L 1159 3500 
L 1159 2956 
Q 1341 3275 1631 3429 
Q 1922 3584 2338 3584 
Q 2397 3584 2469 3576 
Q 2541 3569 2628 3553 
L 2631 2963 
z
" transform="scale(0.015625)"/>
        <path id="DejaVuSans-65" d="M 3597 1894 
L 3597 1613 
L 953 1613 
Q 991 1019 1311 708 
Q 1631 397 2203 397 
Q 2534 397 2845 478 
Q 3156 559 3463 722 
L 3463 178 
Q 3153 47 2828 -22 
Q 2503 -91 2169 -91 
Q 1331 -91 842 396 
Q 353 884 353 1716 
Q 353 2575 817 3079 
Q 1281 3584 2069 3584 
Q 2775 3584 3186 3129 
Q 3597 2675 3597 1894 
z
M 3022 2063 
Q 3016 2534 2758 2815 
Q 2500 3097 2075 3097 
Q 1594 3097 1305 2825 
Q 1016 2553 972 2059 
L 3022 2063 
z
" transform="scale(0.015625)"/>
       </defs>
       <use xlink:href="#DejaVuSans-52"/>
       <use xlink:href="#DejaVuSans-61" x="67.232422"/>
       <use xlink:href="#DejaVuSans-6e" x="128.511719"/>
       <use xlink:href="#DejaVuSans-64" x="191.890625"/>
       <use xlink:href="#DejaVuSans-6f" x="255.367188"/>
       <use xlink:href="#DejaVuSans-6d" x="316.548828"/>
       <use xlink:href="#DejaVuSans-46" x="413.960938"/>
       <use xlink:href="#DejaVuSans-6f" x="467.855469"/>
       <use xlink:href="#DejaVuSans-72" x="529.037109"/>
       <use xlink:href="#DejaVuSans-65" x="567.900391"/>
       <use xlink:href="#DejaVuSans-73" x="629.423828"/>
       <use xlink:href="#DejaVuSans-74" x="681.523438"/>
      </g>
     </g>
    </g>
    <g id="xtick_3">
     <g id="line2d_3">
      <g>
       <use xlink:href="#m8a1865c2fa" x="387.261042" y="527.3575" style="stroke: #000000; stroke-width: 0.8"/>
      </g>
     </g>
     <g id="text_3">
      <!-- LightGBM -->
      <g transform="translate(343.886667 548.034688) scale(0.18 -0.18)">
       <defs>
        <path id="DejaVuSans-4c" d="M 628 4666 
L 1259 4666 
L 1259 531 
L 3531 531 
L 3531 0 
L 628 0 
L 628 4666 
z
" transform="scale(0.015625)"/>
        <path id="DejaVuSans-69" d="M 603 3500 
L 1178 3500 
L 1178 0 
L 603 0 
L 603 3500 
z
M 603 4863 
L 1178 4863 
L 1178 4134 
L 603 4134 
L 603 4863 
z
" transform="scale(0.015625)"/>
        <path id="DejaVuSans-67" d="M 2906 1791 
Q 2906 2416 2648 2759 
Q 2391 3103 1925 3103 
Q 1463 3103 1205 2759 
Q 947 2416 947 1791 
Q 947 1169 1205 825 
Q 1463 481 1925 481 
Q 2391 481 2648 825 
Q 2906 1169 2906 1791 
z
M 3481 434 
Q 3481 -459 3084 -895 
Q 2688 -1331 1869 -1331 
Q 1566 -1331 1297 -1286 
Q 1028 -1241 775 -1147 
L 775 -588 
Q 1028 -725 1275 -790 
Q 1522 -856 1778 -856 
Q 2344 -856 2625 -561 
Q 2906 -266 2906 331 
L 2906 616 
Q 2728 306 2450 153 
Q 2172 0 1784 0 
Q 1141 0 747 490 
Q 353 981 353 1791 
Q 353 2603 747 3093 
Q 1141 3584 1784 3584 
Q 2172 3584 2450 3431 
Q 2728 3278 2906 2969 
L 2906 3500 
L 3481 3500 
L 3481 434 
z
" transform="scale(0.015625)"/>
        <path id="DejaVuSans-68" d="M 3513 2113 
L 3513 0 
L 2938 0 
L 2938 2094 
Q 2938 2591 2744 2837 
Q 2550 3084 2163 3084 
Q 1697 3084 1428 2787 
Q 1159 2491 1159 1978 
L 1159 0 
L 581 0 
L 581 4863 
L 1159 4863 
L 1159 2956 
Q 1366 3272 1645 3428 
Q 1925 3584 2291 3584 
Q 2894 3584 3203 3211 
Q 3513 2838 3513 2113 
z
" transform="scale(0.015625)"/>
        <path id="DejaVuSans-47" d="M 3809 666 
L 3809 1919 
L 2778 1919 
L 2778 2438 
L 4434 2438 
L 4434 434 
Q 4069 175 3628 42 
Q 3188 -91 2688 -91 
Q 1594 -91 976 548 
Q 359 1188 359 2328 
Q 359 3472 976 4111 
Q 1594 4750 2688 4750 
Q 3144 4750 3555 4637 
Q 3966 4525 4313 4306 
L 4313 3634 
Q 3963 3931 3569 4081 
Q 3175 4231 2741 4231 
Q 1884 4231 1454 3753 
Q 1025 3275 1025 2328 
Q 1025 1384 1454 906 
Q 1884 428 2741 428 
Q 3075 428 3337 486 
Q 3600 544 3809 666 
z
" transform="scale(0.015625)"/>
        <path id="DejaVuSans-4d" d="M 628 4666 
L 1569 4666 
L 2759 1491 
L 3956 4666 
L 4897 4666 
L 4897 0 
L 4281 0 
L 4281 4097 
L 3078 897 
L 2444 897 
L 1241 4097 
L 1241 0 
L 628 0 
L 628 4666 
z
" transform="scale(0.015625)"/>
       </defs>
       <use xlink:href="#DejaVuSans-4c"/>
       <use xlink:href="#DejaVuSans-69" x="55.712891"/>
       <use xlink:href="#DejaVuSans-67" x="83.496094"/>
       <use xlink:href="#DejaVuSans-68" x="146.972656"/>
       <use xlink:href="#DejaVuSans-74" x="210.351562"/>
       <use xlink:href="#DejaVuSans-47" x="249.560547"/>
       <use xlink:href="#DejaVuSans-42" x="327.050781"/>
       <use xlink:href="#DejaVuSans-4d" x="395.654297"/>
      </g>
     </g>
    </g>
    <g id="xtick_4">
     <g id="line2d_4">
      <g>
       <use xlink:href="#m8a1865c2fa" x="520.386458" y="527.3575" style="stroke: #000000; stroke-width: 0.8"/>
      </g>
     </g>
     <g id="text_4">
      <!-- CNN -->
      <g transform="translate(500.635677 548.034688) scale(0.18 -0.18)">
       <defs>
        <path id="DejaVuSans-4e" d="M 628 4666 
L 1478 4666 
L 3547 763 
L 3547 4666 
L 4159 4666 
L 4159 0 
L 3309 0 
L 1241 3903 
L 1241 0 
L 628 0 
L 628 4666 
z
" transform="scale(0.015625)"/>
       </defs>
       <use xlink:href="#DejaVuSans-43"/>
       <use xlink:href="#DejaVuSans-4e" x="69.824219"/>
       <use xlink:href="#DejaVuSans-4e" x="144.628906"/>
      </g>
     </g>
    </g>
    <g id="xtick_5">
     <g id="line2d_5">
      <g>
       <use xlink:href="#m8a1865c2fa" x="653.511875" y="527.3575" style="stroke: #000000; stroke-width: 0.8"/>
      </g>
     </g>
     <g id="text_5">
      <!-- SVM -->
      <g transform="translate(633.876406 548.034688) scale(0.18 -0.18)">
       <defs>
        <path id="DejaVuSans-53" d="M 3425 4513 
L 3425 3897 
Q 3066 4069 2747 4153 
Q 2428 4238 2131 4238 
Q 1616 4238 1336 4038 
Q 1056 3838 1056 3469 
Q 1056 3159 1242 3001 
Q 1428 2844 1947 2747 
L 2328 2669 
Q 3034 2534 3370 2195 
Q 3706 1856 3706 1288 
Q 3706 609 3251 259 
Q 2797 -91 1919 -91 
Q 1588 -91 1214 -16 
Q 841 59 441 206 
L 441 856 
Q 825 641 1194 531 
Q 1563 422 1919 422 
Q 2459 422 2753 634 
Q 3047 847 3047 1241 
Q 3047 1584 2836 1778 
Q 2625 1972 2144 2069 
L 1759 2144 
Q 1053 2284 737 2584 
Q 422 2884 422 3419 
Q 422 4038 858 4394 
Q 1294 4750 2059 4750 
Q 2388 4750 2728 4690 
Q 3069 4631 3425 4513 
z
" transform="scale(0.015625)"/>
        <path id="DejaVuSans-56" d="M 1831 0 
L 50 4666 
L 709 4666 
L 2188 738 
L 3669 4666 
L 4325 4666 
L 2547 0 
L 1831 0 
z
" transform="scale(0.015625)"/>
       </defs>
       <use xlink:href="#DejaVuSans-53"/>
       <use xlink:href="#DejaVuSans-56" x="63.476562"/>
       <use xlink:href="#DejaVuSans-4d" x="131.884766"/>
      </g>
     </g>
    </g>
    <g id="xtick_6">
     <g id="line2d_6">
      <g>
       <use xlink:href="#m8a1865c2fa" x="786.637292" y="527.3575" style="stroke: #000000; stroke-width: 0.8"/>
      </g>
     </g>
     <g id="text_6">
      <!-- KNeighbors -->
      <g transform="translate(734.937917 548.034688) scale(0.18 -0.18)">
       <defs>
        <path id="DejaVuSans-4b" d="M 628 4666 
L 1259 4666 
L 1259 2694 
L 3353 4666 
L 4166 4666 
L 1850 2491 
L 4331 0 
L 3500 0 
L 1259 2247 
L 1259 0 
L 628 0 
L 628 4666 
z
" transform="scale(0.015625)"/>
        <path id="DejaVuSans-62" d="M 3116 1747 
Q 3116 2381 2855 2742 
Q 2594 3103 2138 3103 
Q 1681 3103 1420 2742 
Q 1159 2381 1159 1747 
Q 1159 1113 1420 752 
Q 1681 391 2138 391 
Q 2594 391 2855 752 
Q 3116 1113 3116 1747 
z
M 1159 2969 
Q 1341 3281 1617 3432 
Q 1894 3584 2278 3584 
Q 2916 3584 3314 3078 
Q 3713 2572 3713 1747 
Q 3713 922 3314 415 
Q 2916 -91 2278 -91 
Q 1894 -91 1617 61 
Q 1341 213 1159 525 
L 1159 0 
L 581 0 
L 581 4863 
L 1159 4863 
L 1159 2969 
z
" transform="scale(0.015625)"/>
       </defs>
       <use xlink:href="#DejaVuSans-4b"/>
       <use xlink:href="#DejaVuSans-4e" x="65.576172"/>
       <use xlink:href="#DejaVuSans-65" x="140.380859"/>
       <use xlink:href="#DejaVuSans-69" x="201.904297"/>
       <use xlink:href="#DejaVuSans-67" x="229.6875"/>
       <use xlink:href="#DejaVuSans-68" x="293.164062"/>
       <use xlink:href="#DejaVuSans-62" x="356.542969"/>
       <use xlink:href="#DejaVuSans-6f" x="420.019531"/>
       <use xlink:href="#DejaVuSans-72" x="481.201172"/>
       <use xlink:href="#DejaVuSans-73" x="522.314453"/>
      </g>
     </g>
    </g>
    <g id="text_7">
     <!-- 模型 -->
     <g transform="translate(432.22375 568.971563) scale(0.18 -0.18)">
      <defs>
       <path id="MapleMonoNormalNL-NF-CN-Regular-6a21" d="M 2835 1107 
Q 2835 1197 2921 1264 
Q 3008 1331 3110 1331 
L 4416 1331 
Q 4454 1485 4474 1651 
Q 4493 1741 4576 1818 
Q 4582 1824 4589 1837 
L 3488 1837 
Q 3437 1837 3385 1859 
Q 3334 1882 3296 1920 
Q 3258 1958 3235 2009 
Q 3213 2061 3213 2112 
L 3213 3565 
Q 3213 3616 3235 3667 
Q 3258 3718 3296 3756 
Q 3334 3795 3385 3820 
Q 3437 3846 3488 3846 
L 6086 3846 
Q 6144 3846 6192 3820 
Q 6240 3795 6278 3756 
Q 6317 3718 6342 3667 
Q 6368 3616 6368 3565 
L 6368 2112 
Q 6368 2061 6342 2009 
Q 6317 1958 6278 1920 
Q 6240 1882 6192 1859 
Q 6144 1837 6086 1837 
L 4902 1837 
L 4934 1805 
Q 4973 1760 4989 1705 
Q 5005 1651 4998 1594 
Q 4979 1459 4947 1331 
L 6413 1331 
Q 6515 1331 6601 1264 
Q 6688 1197 6688 1107 
Q 6688 1069 6665 1027 
Q 6643 986 6604 954 
Q 6566 922 6515 902 
Q 6464 883 6413 883 
L 5318 883 
Q 5478 621 5728 422 
Q 6022 186 6432 51 
Q 6579 -13 6630 -131 
Q 6682 -250 6605 -365 
Q 6566 -422 6473 -454 
Q 6381 -486 6304 -448 
Q 5792 -282 5414 32 
Q 5037 346 4826 800 
Q 4813 819 4806 845 
Q 4698 557 4506 320 
Q 4294 64 3968 -131 
Q 3642 -326 3162 -467 
Q 3072 -493 2976 -457 
Q 2880 -422 2842 -365 
Q 2778 -256 2842 -150 
Q 2906 -45 3059 13 
Q 3430 122 3683 278 
Q 3936 435 4096 640 
Q 4186 755 4250 883 
L 3110 883 
Q 3059 883 3008 902 
Q 2957 922 2918 954 
Q 2880 986 2857 1027 
Q 2835 1069 2835 1107 
z
M 954 3910 
Q 954 3962 976 4006 
Q 998 4051 1036 4086 
Q 1075 4122 1126 4141 
Q 1178 4160 1229 4160 
L 1728 4160 
L 1728 5114 
Q 1728 5165 1750 5216 
Q 1773 5267 1808 5305 
Q 1843 5344 1891 5366 
Q 1939 5389 1987 5389 
Q 2035 5389 2080 5366 
Q 2125 5344 2160 5305 
Q 2195 5267 2217 5216 
Q 2240 5165 2240 5114 
L 2240 4160 
L 2611 4160 
Q 2662 4160 2710 4141 
Q 2758 4122 2800 4086 
Q 2842 4051 2864 4006 
Q 2886 3962 2886 3910 
Q 2886 3866 2864 3821 
Q 2842 3776 2800 3741 
Q 2758 3706 2710 3683 
Q 2662 3661 2611 3661 
L 2240 3661 
L 2240 3334 
Q 2317 3296 2374 3219 
Q 2432 3130 2502 3011 
Q 2573 2893 2649 2768 
Q 2726 2643 2793 2524 
Q 2861 2406 2906 2330 
Q 2950 2266 2947 2179 
Q 2944 2093 2899 2048 
Q 2861 1997 2806 1981 
Q 2752 1965 2697 1984 
Q 2643 2003 2595 2044 
Q 2547 2086 2515 2157 
Q 2470 2253 2409 2371 
Q 2349 2490 2291 2611 
Q 2266 2662 2240 2707 
L 2240 -237 
Q 2240 -294 2217 -342 
Q 2195 -390 2160 -428 
Q 2125 -467 2080 -492 
Q 2035 -518 1987 -518 
Q 1939 -518 1891 -492 
Q 1843 -467 1808 -428 
Q 1773 -390 1750 -342 
Q 1728 -294 1728 -237 
L 1728 2227 
Q 1638 1933 1530 1658 
Q 1427 1370 1312 1139 
Q 1280 1069 1229 1030 
Q 1178 992 1123 992 
Q 1069 992 1017 1024 
Q 966 1056 928 1126 
Q 890 1184 893 1283 
Q 896 1382 941 1446 
Q 1056 1638 1165 1881 
Q 1274 2125 1373 2397 
Q 1472 2669 1555 2953 
Q 1638 3238 1696 3514 
Q 1709 3565 1728 3603 
L 1728 3661 
L 1229 3661 
Q 1178 3661 1126 3683 
Q 1075 3706 1036 3741 
Q 998 3776 976 3821 
Q 954 3866 954 3910 
z
M 2963 4653 
Q 2963 4736 3049 4806 
Q 3136 4877 3245 4877 
L 3866 4877 
L 3866 5114 
Q 3866 5165 3888 5213 
Q 3910 5261 3945 5299 
Q 3981 5338 4025 5363 
Q 4070 5389 4121 5389 
Q 4173 5389 4217 5363 
Q 4262 5338 4297 5299 
Q 4333 5261 4352 5213 
Q 4371 5165 4371 5114 
L 4371 4877 
L 5312 4877 
L 5312 5114 
Q 5312 5165 5331 5213 
Q 5350 5261 5388 5299 
Q 5427 5338 5475 5363 
Q 5523 5389 5571 5389 
Q 5619 5389 5667 5363 
Q 5715 5338 5750 5299 
Q 5786 5261 5808 5213 
Q 5830 5165 5830 5114 
L 5830 4877 
L 6419 4877 
Q 6470 4877 6518 4857 
Q 6566 4838 6604 4809 
Q 6643 4781 6668 4739 
Q 6694 4698 6694 4653 
Q 6694 4608 6668 4569 
Q 6643 4531 6604 4496 
Q 6566 4461 6518 4441 
Q 6470 4422 6419 4422 
L 5830 4422 
L 5830 4237 
Q 5830 4186 5808 4138 
Q 5786 4090 5750 4051 
Q 5715 4013 5667 3987 
Q 5619 3962 5571 3962 
Q 5523 3962 5475 3987 
Q 5427 4013 5388 4051 
Q 5350 4090 5331 4138 
Q 5312 4186 5312 4237 
L 5312 4422 
L 4371 4422 
L 4371 4237 
Q 4371 4186 4352 4138 
Q 4333 4090 4297 4051 
Q 4262 4013 4217 3987 
Q 4173 3962 4121 3962 
Q 4070 3962 4025 3987 
Q 3981 4013 3945 4051 
Q 3910 4090 3888 4138 
Q 3866 4186 3866 4237 
L 3866 4422 
L 3245 4422 
Q 3187 4422 3139 4441 
Q 3091 4461 3049 4496 
Q 3008 4531 2985 4569 
Q 2963 4608 2963 4653 
z
M 3750 2656 
Q 3738 2656 3725 2643 
Q 3712 2630 3712 2611 
L 3712 2272 
Q 3712 2253 3725 2240 
Q 3738 2227 3750 2227 
L 5805 2227 
Q 5824 2227 5837 2240 
Q 5850 2253 5850 2272 
L 5850 2611 
Q 5850 2630 5837 2643 
Q 5824 2656 5805 2656 
L 3750 2656 
z
M 3750 3450 
Q 3738 3450 3725 3437 
Q 3712 3424 3712 3411 
L 3712 3072 
Q 3712 3059 3725 3046 
Q 3738 3034 3750 3034 
L 5805 3034 
Q 5824 3034 5837 3046 
Q 5850 3059 5850 3072 
L 5850 3411 
Q 5850 3424 5837 3437 
Q 5824 3450 5805 3450 
L 3750 3450 
z
" transform="scale(0.015625)"/>
       <path id="MapleMonoNormalNL-NF-CN-Regular-578b" d="M 1267 4896 
Q 1267 4947 1292 4988 
Q 1318 5030 1356 5062 
Q 1395 5094 1443 5113 
Q 1491 5133 1542 5133 
L 3891 5133 
Q 3942 5133 3990 5113 
Q 4038 5094 4080 5062 
Q 4122 5030 4144 4988 
Q 4166 4947 4166 4899 
Q 4166 4851 4144 4809 
Q 4122 4768 4080 4733 
Q 4038 4698 3990 4678 
Q 3942 4659 3891 4659 
L 3597 4659 
L 3597 3821 
L 4026 3821 
Q 4077 3821 4128 3801 
Q 4179 3782 4217 3747 
Q 4256 3712 4278 3670 
Q 4301 3629 4301 3584 
Q 4301 3539 4278 3494 
Q 4256 3450 4217 3414 
Q 4179 3379 4128 3360 
Q 4077 3341 4026 3341 
L 3597 3341 
L 3597 2272 
Q 3597 2221 3574 2169 
Q 3552 2118 3517 2080 
Q 3482 2042 3440 2019 
Q 3398 1997 3347 1997 
Q 3302 1997 3257 2019 
Q 3213 2042 3174 2080 
Q 3136 2118 3117 2169 
Q 3098 2221 3098 2272 
L 3098 3341 
L 2317 3341 
Q 2285 3098 2202 2861 
Q 2112 2618 1955 2390 
Q 1798 2163 1549 1965 
Q 1510 1939 1462 1926 
Q 1414 1914 1369 1917 
Q 1325 1920 1283 1936 
Q 1242 1952 1216 1984 
Q 1133 2074 1168 2202 
Q 1203 2330 1306 2432 
Q 1485 2592 1590 2755 
Q 1696 2918 1754 3091 
Q 1798 3213 1818 3341 
L 1338 3341 
Q 1286 3341 1235 3360 
Q 1184 3379 1142 3414 
Q 1101 3450 1078 3494 
Q 1056 3539 1056 3584 
Q 1056 3629 1078 3670 
Q 1101 3712 1142 3747 
Q 1184 3782 1235 3801 
Q 1286 3821 1338 3821 
L 1856 3821 
L 1856 4659 
L 1542 4659 
Q 1491 4659 1443 4678 
Q 1395 4698 1356 4733 
Q 1318 4768 1292 4809 
Q 1267 4851 1267 4896 
z
M 941 -51 
Q 941 -6 963 38 
Q 986 83 1027 118 
Q 1069 154 1120 176 
Q 1171 198 1216 198 
L 3597 198 
L 3597 954 
L 1888 954 
Q 1830 954 1779 973 
Q 1728 992 1689 1027 
Q 1651 1062 1628 1107 
Q 1606 1152 1606 1200 
Q 1606 1248 1628 1289 
Q 1651 1331 1689 1366 
Q 1728 1402 1779 1421 
Q 1830 1440 1888 1440 
L 3597 1440 
L 3597 1837 
Q 3597 1888 3616 1939 
Q 3635 1990 3676 2028 
Q 3718 2067 3763 2089 
Q 3808 2112 3866 2112 
L 3872 2112 
Q 3930 2112 3974 2089 
Q 4019 2067 4057 2028 
Q 4096 1990 4118 1939 
Q 4141 1888 4141 1837 
L 4141 1440 
L 5786 1440 
Q 5843 1440 5894 1421 
Q 5946 1402 5984 1366 
Q 6022 1331 6044 1289 
Q 6067 1248 6067 1200 
Q 6067 1152 6044 1107 
Q 6022 1062 5984 1027 
Q 5946 992 5894 973 
Q 5843 954 5786 954 
L 4141 954 
L 4141 198 
L 6458 198 
Q 6509 198 6557 176 
Q 6605 154 6646 118 
Q 6688 83 6710 38 
Q 6733 -6 6733 -51 
Q 6733 -96 6710 -141 
Q 6688 -186 6646 -224 
Q 6605 -262 6557 -281 
Q 6509 -301 6458 -301 
L 1216 -301 
Q 1171 -301 1120 -281 
Q 1069 -262 1027 -224 
Q 986 -186 963 -141 
Q 941 -96 941 -51 
z
M 5862 5069 
Q 5862 5120 5884 5168 
Q 5907 5216 5945 5254 
Q 5984 5293 6029 5318 
Q 6074 5344 6122 5344 
Q 6170 5344 6218 5318 
Q 6266 5293 6301 5254 
Q 6336 5216 6355 5168 
Q 6374 5120 6374 5062 
L 6374 2502 
Q 6374 2285 6323 2176 
Q 6272 2067 6118 1997 
Q 5997 1952 5814 1936 
Q 5632 1920 5370 1914 
Q 5286 1914 5206 1968 
Q 5126 2022 5101 2086 
Q 5062 2208 5142 2297 
Q 5222 2387 5376 2394 
Q 5517 2387 5590 2387 
Q 5664 2387 5741 2393 
Q 5818 2400 5840 2419 
Q 5862 2438 5862 2509 
L 5862 5069 
z
M 4678 4749 
Q 4678 4800 4697 4848 
Q 4717 4896 4752 4937 
Q 4787 4979 4832 5001 
Q 4877 5024 4925 5024 
Q 4973 5024 5014 5001 
Q 5056 4979 5091 4937 
Q 5126 4896 5148 4848 
Q 5171 4800 5171 4749 
L 5171 3149 
Q 5171 3098 5148 3046 
Q 5126 2995 5091 2956 
Q 5056 2918 5014 2896 
Q 4973 2874 4925 2874 
Q 4877 2874 4832 2896 
Q 4787 2918 4752 2956 
Q 4717 2995 4697 3046 
Q 4678 3098 4678 3149 
L 4678 4749 
z
M 2349 3821 
L 3098 3821 
L 3098 4659 
L 2349 4659 
L 2349 3821 
z
" transform="scale(0.015625)"/>
      </defs>
      <use xlink:href="#MapleMonoNormalNL-NF-CN-Regular-6a21"/>
      <use xlink:href="#MapleMonoNormalNL-NF-CN-Regular-578b" x="119.999985"/>
     </g>
    </g>
   </g>
   <g id="matplotlib.axis_2">
    <g id="ytick_1">
     <g id="line2d_7">
      <defs>
       <path id="mec5395f561" d="M 0 0 
L -3.5 0 
" style="stroke: #000000; stroke-width: 0.8"/>
      </defs>
      <g>
       <use xlink:href="#mec5395f561" x="54.4475" y="527.3575" style="stroke: #000000; stroke-width: 0.8"/>
      </g>
     </g>
     <g id="text_8">
      <!-- 0.0 -->
      <g transform="translate(31.544375 531.156719) scale(0.1 -0.1)">
       <defs>
        <path id="DejaVuSans-30" d="M 2034 4250 
Q 1547 4250 1301 3770 
Q 1056 3291 1056 2328 
Q 1056 1369 1301 889 
Q 1547 409 2034 409 
Q 2525 409 2770 889 
Q 3016 1369 3016 2328 
Q 3016 3291 2770 3770 
Q 2525 4250 2034 4250 
z
M 2034 4750 
Q 2819 4750 3233 4129 
Q 3647 3509 3647 2328 
Q 3647 1150 3233 529 
Q 2819 -91 2034 -91 
Q 1250 -91 836 529 
Q 422 1150 422 2328 
Q 422 3509 836 4129 
Q 1250 4750 2034 4750 
z
" transform="scale(0.015625)"/>
        <path id="DejaVuSans-2e" d="M 684 794 
L 1344 794 
L 1344 0 
L 684 0 
L 684 794 
z
" transform="scale(0.015625)"/>
       </defs>
       <use xlink:href="#DejaVuSans-30"/>
       <use xlink:href="#DejaVuSans-2e" x="63.623047"/>
       <use xlink:href="#DejaVuSans-30" x="95.410156"/>
      </g>
     </g>
    </g>
    <g id="ytick_2">
     <g id="line2d_8">
      <g>
       <use xlink:href="#mec5395f561" x="54.4475" y="466.119932" style="stroke: #000000; stroke-width: 0.8"/>
      </g>
     </g>
     <g id="text_9">
      <!-- 0.1 -->
      <g transform="translate(31.544375 469.91915) scale(0.1 -0.1)">
       <defs>
        <path id="DejaVuSans-31" d="M 794 531 
L 1825 531 
L 1825 4091 
L 703 3866 
L 703 4441 
L 1819 4666 
L 2450 4666 
L 2450 531 
L 3481 531 
L 3481 0 
L 794 0 
L 794 531 
z
" transform="scale(0.015625)"/>
       </defs>
       <use xlink:href="#DejaVuSans-30"/>
       <use xlink:href="#DejaVuSans-2e" x="63.623047"/>
       <use xlink:href="#DejaVuSans-31" x="95.410156"/>
      </g>
     </g>
    </g>
    <g id="ytick_3">
     <g id="line2d_9">
      <g>
       <use xlink:href="#mec5395f561" x="54.4475" y="404.882363" style="stroke: #000000; stroke-width: 0.8"/>
      </g>
     </g>
     <g id="text_10">
      <!-- 0.2 -->
      <g transform="translate(31.544375 408.681582) scale(0.1 -0.1)">
       <defs>
        <path id="DejaVuSans-32" d="M 1228 531 
L 3431 531 
L 3431 0 
L 469 0 
L 469 531 
Q 828 903 1448 1529 
Q 2069 2156 2228 2338 
Q 2531 2678 2651 2914 
Q 2772 3150 2772 3378 
Q 2772 3750 2511 3984 
Q 2250 4219 1831 4219 
Q 1534 4219 1204 4116 
Q 875 4013 500 3803 
L 500 4441 
Q 881 4594 1212 4672 
Q 1544 4750 1819 4750 
Q 2544 4750 2975 4387 
Q 3406 4025 3406 3419 
Q 3406 3131 3298 2873 
Q 3191 2616 2906 2266 
Q 2828 2175 2409 1742 
Q 1991 1309 1228 531 
z
" transform="scale(0.015625)"/>
       </defs>
       <use xlink:href="#DejaVuSans-30"/>
       <use xlink:href="#DejaVuSans-2e" x="63.623047"/>
       <use xlink:href="#DejaVuSans-32" x="95.410156"/>
      </g>
     </g>
    </g>
    <g id="ytick_4">
     <g id="line2d_10">
      <g>
       <use xlink:href="#mec5395f561" x="54.4475" y="343.644795" style="stroke: #000000; stroke-width: 0.8"/>
      </g>
     </g>
     <g id="text_11">
      <!-- 0.3 -->
      <g transform="translate(31.544375 347.444013) scale(0.1 -0.1)">
       <defs>
        <path id="DejaVuSans-33" d="M 2597 2516 
Q 3050 2419 3304 2112 
Q 3559 1806 3559 1356 
Q 3559 666 3084 287 
Q 2609 -91 1734 -91 
Q 1441 -91 1130 -33 
Q 819 25 488 141 
L 488 750 
Q 750 597 1062 519 
Q 1375 441 1716 441 
Q 2309 441 2620 675 
Q 2931 909 2931 1356 
Q 2931 1769 2642 2001 
Q 2353 2234 1838 2234 
L 1294 2234 
L 1294 2753 
L 1863 2753 
Q 2328 2753 2575 2939 
Q 2822 3125 2822 3475 
Q 2822 3834 2567 4026 
Q 2313 4219 1838 4219 
Q 1578 4219 1281 4162 
Q 984 4106 628 3988 
L 628 4550 
Q 988 4650 1302 4700 
Q 1616 4750 1894 4750 
Q 2613 4750 3031 4423 
Q 3450 4097 3450 3541 
Q 3450 3153 3228 2886 
Q 3006 2619 2597 2516 
z
" transform="scale(0.015625)"/>
       </defs>
       <use xlink:href="#DejaVuSans-30"/>
       <use xlink:href="#DejaVuSans-2e" x="63.623047"/>
       <use xlink:href="#DejaVuSans-33" x="95.410156"/>
      </g>
     </g>
    </g>
    <g id="ytick_5">
     <g id="line2d_11">
      <g>
       <use xlink:href="#mec5395f561" x="54.4475" y="282.407226" style="stroke: #000000; stroke-width: 0.8"/>
      </g>
     </g>
     <g id="text_12">
      <!-- 0.4 -->
      <g transform="translate(31.544375 286.206445) scale(0.1 -0.1)">
       <defs>
        <path id="DejaVuSans-34" d="M 2419 4116 
L 825 1625 
L 2419 1625 
L 2419 4116 
z
M 2253 4666 
L 3047 4666 
L 3047 1625 
L 3713 1625 
L 3713 1100 
L 3047 1100 
L 3047 0 
L 2419 0 
L 2419 1100 
L 313 1100 
L 313 1709 
L 2253 4666 
z
" transform="scale(0.015625)"/>
       </defs>
       <use xlink:href="#DejaVuSans-30"/>
       <use xlink:href="#DejaVuSans-2e" x="63.623047"/>
       <use xlink:href="#DejaVuSans-34" x="95.410156"/>
      </g>
     </g>
    </g>
    <g id="ytick_6">
     <g id="line2d_12">
      <g>
       <use xlink:href="#mec5395f561" x="54.4475" y="221.169658" style="stroke: #000000; stroke-width: 0.8"/>
      </g>
     </g>
     <g id="text_13">
      <!-- 0.5 -->
      <g transform="translate(31.544375 224.968876) scale(0.1 -0.1)">
       <defs>
        <path id="DejaVuSans-35" d="M 691 4666 
L 3169 4666 
L 3169 4134 
L 1269 4134 
L 1269 2991 
Q 1406 3038 1543 3061 
Q 1681 3084 1819 3084 
Q 2600 3084 3056 2656 
Q 3513 2228 3513 1497 
Q 3513 744 3044 326 
Q 2575 -91 1722 -91 
Q 1428 -91 1123 -41 
Q 819 9 494 109 
L 494 744 
Q 775 591 1075 516 
Q 1375 441 1709 441 
Q 2250 441 2565 725 
Q 2881 1009 2881 1497 
Q 2881 1984 2565 2268 
Q 2250 2553 1709 2553 
Q 1456 2553 1204 2497 
Q 953 2441 691 2322 
L 691 4666 
z
" transform="scale(0.015625)"/>
       </defs>
       <use xlink:href="#DejaVuSans-30"/>
       <use xlink:href="#DejaVuSans-2e" x="63.623047"/>
       <use xlink:href="#DejaVuSans-35" x="95.410156"/>
      </g>
     </g>
    </g>
    <g id="ytick_7">
     <g id="line2d_13">
      <g>
       <use xlink:href="#mec5395f561" x="54.4475" y="159.932089" style="stroke: #000000; stroke-width: 0.8"/>
      </g>
     </g>
     <g id="text_14">
      <!-- 0.6 -->
      <g transform="translate(31.544375 163.731308) scale(0.1 -0.1)">
       <defs>
        <path id="DejaVuSans-36" d="M 2113 2584 
Q 1688 2584 1439 2293 
Q 1191 2003 1191 1497 
Q 1191 994 1439 701 
Q 1688 409 2113 409 
Q 2538 409 2786 701 
Q 3034 994 3034 1497 
Q 3034 2003 2786 2293 
Q 2538 2584 2113 2584 
z
M 3366 4563 
L 3366 3988 
Q 3128 4100 2886 4159 
Q 2644 4219 2406 4219 
Q 1781 4219 1451 3797 
Q 1122 3375 1075 2522 
Q 1259 2794 1537 2939 
Q 1816 3084 2150 3084 
Q 2853 3084 3261 2657 
Q 3669 2231 3669 1497 
Q 3669 778 3244 343 
Q 2819 -91 2113 -91 
Q 1303 -91 875 529 
Q 447 1150 447 2328 
Q 447 3434 972 4092 
Q 1497 4750 2381 4750 
Q 2619 4750 2861 4703 
Q 3103 4656 3366 4563 
z
" transform="scale(0.015625)"/>
       </defs>
       <use xlink:href="#DejaVuSans-30"/>
       <use xlink:href="#DejaVuSans-2e" x="63.623047"/>
       <use xlink:href="#DejaVuSans-36" x="95.410156"/>
      </g>
     </g>
    </g>
    <g id="ytick_8">
     <g id="line2d_14">
      <g>
       <use xlink:href="#mec5395f561" x="54.4475" y="98.694521" style="stroke: #000000; stroke-width: 0.8"/>
      </g>
     </g>
     <g id="text_15">
      <!-- 0.7 -->
      <g transform="translate(31.544375 102.493739) scale(0.1 -0.1)">
       <defs>
        <path id="DejaVuSans-37" d="M 525 4666 
L 3525 4666 
L 3525 4397 
L 1831 0 
L 1172 0 
L 2766 4134 
L 525 4134 
L 525 4666 
z
" transform="scale(0.015625)"/>
       </defs>
       <use xlink:href="#DejaVuSans-30"/>
       <use xlink:href="#DejaVuSans-2e" x="63.623047"/>
       <use xlink:href="#DejaVuSans-37" x="95.410156"/>
      </g>
     </g>
    </g>
    <g id="ytick_9">
     <g id="line2d_15">
      <g>
       <use xlink:href="#mec5395f561" x="54.4475" y="37.456952" style="stroke: #000000; stroke-width: 0.8"/>
      </g>
     </g>
     <g id="text_16">
      <!-- 0.8 -->
      <g transform="translate(31.544375 41.256171) scale(0.1 -0.1)">
       <defs>
        <path id="DejaVuSans-38" d="M 2034 2216 
Q 1584 2216 1326 1975 
Q 1069 1734 1069 1313 
Q 1069 891 1326 650 
Q 1584 409 2034 409 
Q 2484 409 2743 651 
Q 3003 894 3003 1313 
Q 3003 1734 2745 1975 
Q 2488 2216 2034 2216 
z
M 1403 2484 
Q 997 2584 770 2862 
Q 544 3141 544 3541 
Q 544 4100 942 4425 
Q 1341 4750 2034 4750 
Q 2731 4750 3128 4425 
Q 3525 4100 3525 3541 
Q 3525 3141 3298 2862 
Q 3072 2584 2669 2484 
Q 3125 2378 3379 2068 
Q 3634 1759 3634 1313 
Q 3634 634 3220 271 
Q 2806 -91 2034 -91 
Q 1263 -91 848 271 
Q 434 634 434 1313 
Q 434 1759 690 2068 
Q 947 2378 1403 2484 
z
M 1172 3481 
Q 1172 3119 1398 2916 
Q 1625 2713 2034 2713 
Q 2441 2713 2670 2916 
Q 2900 3119 2900 3481 
Q 2900 3844 2670 4047 
Q 2441 4250 2034 4250 
Q 1625 4250 1398 4047 
Q 1172 3844 1172 3481 
z
" transform="scale(0.015625)"/>
       </defs>
       <use xlink:href="#DejaVuSans-30"/>
       <use xlink:href="#DejaVuSans-2e" x="63.623047"/>
       <use xlink:href="#DejaVuSans-38" x="95.410156"/>
      </g>
     </g>
    </g>
    <g id="text_17">
     <!-- 准确率 -->
     <g transform="translate(24.124375 301.831294) rotate(-90) scale(0.18 -0.18)">
      <defs>
       <path id="MapleMonoNormalNL-NF-CN-Regular-51c6" d="M 3392 5088 
Q 3424 5184 3520 5241 
Q 3616 5299 3699 5274 
Q 3750 5267 3792 5232 
Q 3834 5197 3856 5145 
Q 3878 5094 3881 5040 
Q 3885 4986 3866 4928 
Q 3738 4582 3578 4250 
L 6368 4250 
Q 6413 4250 6464 4230 
Q 6515 4211 6553 4179 
Q 6592 4147 6614 4105 
Q 6637 4064 6637 4019 
Q 6637 3974 6614 3932 
Q 6592 3891 6553 3859 
Q 6515 3827 6464 3804 
Q 6413 3782 6368 3782 
L 5280 3782 
Q 5286 3750 5286 3712 
L 5286 2976 
L 6240 2976 
Q 6291 2976 6339 2953 
Q 6387 2931 6425 2899 
Q 6464 2867 6486 2825 
Q 6509 2784 6509 2739 
Q 6509 2694 6486 2652 
Q 6464 2611 6425 2576 
Q 6387 2541 6339 2521 
Q 6291 2502 6240 2502 
L 5286 2502 
L 5286 1702 
L 6234 1702 
Q 6285 1702 6333 1683 
Q 6381 1664 6419 1632 
Q 6458 1600 6480 1558 
Q 6502 1517 6502 1469 
Q 6502 1421 6480 1379 
Q 6458 1338 6419 1306 
Q 6381 1274 6333 1251 
Q 6285 1229 6234 1229 
L 5286 1229 
L 5286 410 
L 6483 410 
Q 6534 410 6585 387 
Q 6637 365 6675 333 
Q 6714 301 6739 256 
Q 6765 211 6765 166 
Q 6765 122 6739 77 
Q 6714 32 6675 -3 
Q 6637 -38 6585 -57 
Q 6534 -77 6483 -77 
L 3597 -77 
Q 3546 -77 3494 -58 
Q 3475 -51 3450 -38 
L 3450 -243 
Q 3450 -301 3430 -349 
Q 3411 -397 3376 -438 
Q 3341 -480 3296 -502 
Q 3251 -525 3206 -525 
Q 3155 -525 3110 -502 
Q 3066 -480 3030 -438 
Q 2995 -397 2972 -349 
Q 2950 -301 2950 -243 
L 2950 3136 
Q 2765 2861 2566 2624 
Q 2528 2573 2477 2550 
Q 2426 2528 2368 2525 
Q 2310 2522 2259 2538 
Q 2208 2554 2170 2586 
Q 2131 2624 2118 2678 
Q 2106 2733 2106 2790 
Q 2106 2848 2128 2905 
Q 2150 2963 2195 3008 
Q 2566 3418 2870 3958 
Q 3174 4499 3392 5088 
z
M 1190 -90 
Q 1146 -70 1107 -25 
Q 1069 19 1053 70 
Q 1037 122 1037 176 
Q 1037 230 1056 282 
Q 1146 448 1238 640 
Q 1331 832 1427 1037 
Q 1523 1242 1616 1462 
Q 1709 1683 1792 1894 
Q 1818 1946 1859 1987 
Q 1901 2029 1952 2051 
Q 2003 2074 2060 2074 
Q 2118 2074 2170 2042 
L 2189 2035 
Q 2227 2016 2256 1977 
Q 2285 1939 2301 1894 
Q 2317 1850 2320 1802 
Q 2323 1754 2310 1715 
Q 2227 1504 2137 1283 
Q 2048 1062 1955 844 
Q 1862 627 1769 422 
Q 1677 218 1587 26 
Q 1568 -19 1526 -54 
Q 1485 -90 1437 -109 
Q 1389 -128 1334 -128 
Q 1280 -128 1235 -109 
L 1190 -90 
z
M 3450 1274 
L 3450 365 
Q 3475 378 3494 384 
Q 3546 410 3597 410 
L 4768 410 
L 4768 1229 
L 3597 1229 
Q 3546 1229 3494 1254 
Q 3475 1261 3450 1274 
z
M 4768 3712 
Q 4768 3750 4774 3782 
L 3488 3782 
Q 3475 3782 3462 3772 
Q 3450 3763 3450 3750 
L 3450 2938 
Q 3469 2944 3482 2957 
Q 3533 2976 3584 2976 
L 4768 2976 
L 4768 3712 
z
M 3450 2541 
L 3450 1658 
Q 3475 1670 3494 1683 
Q 3546 1702 3597 1702 
L 4768 1702 
L 4768 2502 
L 3584 2502 
Q 3533 2502 3482 2522 
Q 3469 2528 3450 2541 
z
M 1075 4634 
Q 1050 4685 1046 4739 
Q 1043 4794 1056 4848 
Q 1069 4902 1101 4944 
Q 1133 4986 1178 5011 
L 1190 5018 
Q 1229 5030 1277 5030 
Q 1325 5030 1376 5014 
Q 1427 4998 1465 4969 
Q 1504 4941 1523 4902 
Q 1709 4659 1888 4390 
Q 2067 4122 2182 3898 
Q 2202 3859 2202 3808 
Q 2202 3757 2186 3709 
Q 2170 3661 2141 3622 
Q 2112 3584 2074 3565 
L 2042 3552 
Q 1990 3526 1932 3526 
Q 1875 3526 1820 3548 
Q 1766 3571 1721 3609 
Q 1677 3648 1658 3706 
Q 1549 3917 1392 4163 
Q 1235 4410 1075 4634 
z
M 4678 4870 
Q 4646 4928 4640 4989 
Q 4634 5050 4650 5104 
Q 4666 5158 4701 5203 
Q 4736 5248 4781 5267 
Q 4858 5299 4954 5270 
Q 5050 5242 5094 5171 
Q 5171 5056 5241 4928 
Q 5312 4800 5363 4691 
Q 5395 4646 5395 4592 
Q 5395 4538 5382 4486 
Q 5370 4435 5338 4393 
Q 5306 4352 5261 4333 
Q 5216 4307 5158 4310 
Q 5101 4314 5046 4333 
Q 4992 4352 4947 4390 
Q 4902 4429 4877 4480 
Q 4838 4570 4787 4672 
Q 4736 4774 4678 4870 
z
" transform="scale(0.015625)"/>
       <path id="MapleMonoNormalNL-NF-CN-Regular-786e" d="M 4045 5165 
Q 4064 5210 4102 5248 
Q 4141 5286 4182 5312 
Q 4224 5338 4272 5350 
Q 4320 5363 4358 5350 
Q 4403 5338 4441 5302 
Q 4480 5267 4499 5219 
Q 4518 5171 4521 5113 
Q 4525 5056 4499 5005 
Q 4467 4928 4435 4858 
L 5370 4858 
Q 5427 4858 5472 4838 
L 5523 4813 
Q 5530 4826 5536 4832 
Q 5568 4858 5600 4858 
L 5626 4858 
Q 5638 4858 5651 4864 
Q 5677 4870 5718 4860 
Q 5760 4851 5786 4826 
L 5843 4794 
Q 5882 4762 5910 4717 
Q 5939 4672 5952 4621 
Q 5965 4570 5958 4518 
Q 5952 4467 5920 4429 
Q 5805 4218 5658 4026 
Q 5549 3878 5440 3750 
L 6330 3750 
Q 6381 3750 6419 3731 
Q 6464 3712 6502 3680 
Q 6541 3648 6563 3606 
Q 6586 3565 6586 3520 
L 6586 96 
Q 6586 -109 6541 -217 
Q 6496 -326 6368 -384 
Q 6278 -429 6134 -445 
Q 5990 -461 5786 -467 
Q 5690 -474 5606 -416 
Q 5523 -358 5510 -288 
Q 5478 -179 5516 -89 
Q 5555 0 5651 -6 
L 5978 -6 
Q 6035 0 6054 19 
Q 6074 38 6074 96 
L 6074 1030 
Q 6061 1024 6048 1024 
L 5222 1024 
L 5222 0 
Q 5222 -51 5203 -102 
Q 5184 -154 5152 -195 
Q 5120 -237 5075 -259 
Q 5030 -282 4985 -282 
Q 4941 -282 4899 -259 
Q 4858 -237 4822 -195 
Q 4787 -154 4768 -102 
Q 4749 -51 4749 0 
L 4749 1024 
L 4077 1024 
Q 4032 1024 3981 1050 
Q 3936 1069 3904 1094 
Q 3885 992 3866 883 
Q 3802 576 3686 278 
Q 3571 -19 3386 -282 
Q 3354 -333 3309 -365 
Q 3264 -397 3213 -409 
Q 3162 -422 3114 -416 
Q 3066 -410 3027 -384 
Q 2944 -320 2931 -195 
Q 2918 -70 2982 45 
Q 3142 275 3238 518 
Q 3334 762 3385 1014 
Q 3437 1267 3453 1529 
Q 3469 1792 3469 2067 
L 3469 3322 
Q 3437 3283 3398 3245 
Q 3360 3200 3309 3177 
Q 3258 3155 3203 3155 
Q 3149 3155 3101 3177 
Q 3053 3200 3021 3238 
Q 2963 3315 2982 3433 
Q 3002 3552 3085 3642 
Q 3379 3942 3622 4336 
Q 3866 4730 4045 5165 
z
M 986 4819 
Q 986 4864 1011 4905 
Q 1037 4947 1075 4982 
Q 1114 5018 1165 5037 
Q 1216 5056 1267 5056 
L 2886 5056 
Q 2938 5056 2986 5037 
Q 3034 5018 3075 4982 
Q 3117 4947 3139 4905 
Q 3162 4864 3162 4816 
Q 3162 4768 3139 4726 
Q 3117 4685 3075 4646 
Q 3034 4608 2986 4589 
Q 2938 4570 2886 4570 
L 2208 4570 
Q 2214 4557 2214 4544 
Q 2227 4493 2214 4442 
Q 2067 3731 1856 3078 
Q 1875 3085 1888 3085 
L 2694 3085 
Q 2746 3085 2794 3062 
Q 2842 3040 2883 2998 
Q 2925 2957 2947 2905 
Q 2970 2854 2970 2803 
L 2970 563 
Q 2970 506 2947 454 
Q 2925 403 2883 364 
Q 2842 326 2794 304 
Q 2746 282 2694 282 
L 1856 282 
L 1856 45 
Q 1856 -58 1785 -144 
Q 1715 -230 1632 -230 
Q 1587 -230 1545 -208 
Q 1504 -186 1472 -144 
Q 1440 -102 1421 -54 
Q 1402 -6 1402 45 
L 1402 2016 
Q 1363 1952 1331 1894 
Q 1286 1830 1232 1798 
Q 1178 1766 1126 1772 
Q 1075 1779 1030 1820 
Q 986 1862 954 1933 
Q 947 1952 944 1968 
Q 941 1984 934 2003 
Q 902 2054 905 2140 
Q 909 2227 947 2285 
Q 1235 2720 1420 3299 
Q 1606 3878 1722 4525 
Q 1728 4550 1734 4570 
L 1267 4570 
Q 1216 4570 1165 4589 
Q 1114 4608 1075 4646 
Q 1037 4685 1011 4726 
Q 986 4768 986 4819 
z
M 1856 2605 
L 1856 755 
L 2477 755 
Q 2490 755 2502 764 
Q 2515 774 2515 787 
L 2515 2573 
Q 2515 2586 2502 2595 
Q 2490 2605 2477 2605 
L 1856 2605 
z
M 4230 4429 
Q 4128 4237 4013 4045 
Q 3910 3885 3802 3731 
Q 3808 3731 3808 3725 
Q 3853 3706 3891 3667 
Q 3891 3661 3898 3661 
Q 3904 3674 3917 3680 
Q 3955 3712 4006 3731 
Q 4058 3750 4102 3750 
L 4960 3750 
Q 4966 3866 5030 3968 
Q 5165 4141 5293 4346 
L 5331 4410 
L 4358 4410 
Q 4288 4410 4230 4429 
z
M 5222 1491 
L 6074 1491 
L 6074 2208 
Q 6054 2202 6035 2202 
L 5222 2202 
L 5222 1491 
z
M 3968 2240 
L 3968 2061 
Q 3968 1798 3949 1491 
Q 3942 1478 3942 1459 
Q 4006 1491 4077 1491 
L 4749 1491 
L 4749 2202 
L 4109 2202 
Q 4032 2202 3968 2240 
z
M 6074 3290 
L 5216 3290 
Q 5222 3264 5222 3232 
L 5222 2630 
L 6035 2630 
Q 6054 2630 6074 2624 
L 6074 3290 
z
M 4749 3232 
Q 4749 3264 4755 3290 
L 4102 3290 
Q 4058 3290 4006 3309 
Q 3987 3315 3968 3328 
L 3968 2592 
Q 4032 2630 4109 2630 
L 4749 2630 
L 4749 3232 
z
" transform="scale(0.015625)"/>
       <path id="MapleMonoNormalNL-NF-CN-Regular-7387" d="M 1094 4582 
Q 1094 4627 1116 4672 
Q 1139 4717 1177 4752 
Q 1216 4787 1267 4806 
Q 1318 4826 1370 4826 
L 3674 4826 
Q 3654 4864 3629 4902 
Q 3590 4973 3546 5037 
Q 3520 5088 3520 5142 
Q 3520 5197 3545 5245 
Q 3571 5293 3616 5331 
Q 3661 5370 3725 5382 
L 3770 5389 
Q 3821 5408 3901 5379 
Q 3981 5350 4019 5299 
Q 4070 5229 4115 5152 
Q 4160 5075 4192 5005 
Q 4224 4960 4224 4902 
Q 4224 4864 4218 4826 
L 6387 4826 
Q 6445 4826 6493 4806 
Q 6541 4787 6582 4752 
Q 6624 4717 6646 4672 
Q 6669 4627 6669 4582 
Q 6669 4538 6646 4493 
Q 6624 4448 6582 4409 
Q 6541 4371 6493 4352 
Q 6445 4333 6387 4333 
L 3942 4333 
Q 3930 4288 3898 4250 
Q 3718 3987 3526 3757 
Q 3456 3674 3392 3603 
L 3930 3635 
Q 4000 3635 4058 3616 
L 4122 3590 
Q 4288 3776 4442 3968 
Q 4499 4045 4601 4073 
Q 4704 4102 4781 4058 
Q 4819 4032 4844 3987 
Q 4870 3942 4876 3888 
Q 4883 3834 4864 3776 
Q 4845 3718 4806 3680 
Q 4378 3206 3923 2790 
Q 3667 2554 3418 2349 
L 4442 2432 
Q 4397 2490 4352 2541 
Q 4320 2598 4307 2656 
Q 4294 2714 4304 2771 
Q 4314 2829 4339 2870 
Q 4365 2912 4410 2925 
Q 4467 2950 4550 2918 
Q 4634 2886 4672 2829 
Q 4819 2656 4956 2473 
Q 5094 2291 5190 2125 
Q 5210 2080 5213 2032 
Q 5216 1984 5203 1939 
Q 5190 1894 5161 1859 
Q 5133 1824 5094 1805 
Q 5056 1786 5005 1795 
Q 4954 1805 4906 1830 
Q 4858 1856 4819 1897 
Q 4781 1939 4755 1990 
Q 4736 2022 4710 2061 
Q 4659 2042 4602 2035 
Q 4262 2003 4006 1977 
Q 3750 1952 3571 1929 
Q 3392 1907 3267 1894 
Q 3142 1882 3053 1869 
Q 2989 1856 2921 1865 
Q 2854 1875 2797 1901 
Q 2790 1901 2784 1907 
Q 2758 1907 2733 1914 
Q 2650 1933 2618 2016 
Q 2605 2061 2617 2112 
Q 2630 2163 2662 2214 
Q 2694 2266 2742 2314 
Q 2790 2362 2842 2400 
L 2874 2419 
Q 2880 2419 2896 2428 
Q 2912 2438 2947 2470 
Q 2982 2502 3065 2566 
Q 3149 2630 3302 2768 
Q 3456 2906 3642 3091 
Q 3686 3142 3738 3187 
Q 3578 3174 3469 3162 
Q 3290 3149 3187 3130 
Q 3117 3123 3049 3136 
Q 2982 3149 2925 3174 
Q 2912 3181 2899 3194 
L 2861 3194 
Q 2771 3213 2739 3302 
Q 2714 3379 2762 3481 
Q 2810 3584 2880 3654 
L 2886 3654 
L 2899 3667 
Q 2912 3680 2950 3725 
Q 2982 3757 3043 3827 
Q 3104 3898 3181 3997 
Q 3258 4096 3334 4211 
Q 3379 4275 3418 4333 
L 1370 4333 
Q 1318 4333 1267 4352 
Q 1216 4371 1177 4409 
Q 1139 4448 1116 4493 
Q 1094 4538 1094 4582 
z
M 3558 1530 
Q 3558 1581 3580 1629 
Q 3603 1677 3641 1718 
Q 3680 1760 3728 1782 
Q 3776 1805 3821 1805 
L 3859 1805 
Q 3910 1805 3955 1782 
Q 4000 1760 4041 1718 
Q 4083 1677 4102 1629 
Q 4122 1581 4122 1530 
L 4122 1299 
L 6458 1299 
Q 6509 1299 6557 1276 
Q 6605 1254 6643 1219 
Q 6682 1184 6704 1142 
Q 6726 1101 6726 1050 
Q 6726 1005 6704 960 
Q 6682 915 6643 876 
Q 6605 838 6557 819 
Q 6509 800 6458 800 
L 4122 800 
L 4122 -250 
Q 4122 -301 4102 -349 
Q 4083 -397 4041 -435 
Q 4000 -474 3955 -496 
Q 3910 -518 3859 -518 
L 3821 -518 
Q 3776 -518 3728 -496 
Q 3680 -474 3641 -435 
Q 3603 -397 3580 -349 
Q 3558 -301 3558 -250 
L 3558 800 
L 1229 800 
Q 1184 800 1133 819 
Q 1082 838 1043 876 
Q 1005 915 982 960 
Q 960 1005 960 1050 
Q 960 1101 982 1142 
Q 1005 1184 1043 1219 
Q 1082 1254 1133 1276 
Q 1184 1299 1229 1299 
L 3558 1299 
L 3558 1530 
z
M 1133 1933 
Q 1107 1978 1107 2032 
Q 1107 2086 1129 2140 
Q 1152 2195 1193 2236 
Q 1235 2278 1293 2298 
Q 1504 2394 1757 2515 
Q 2010 2637 2278 2771 
Q 2330 2790 2387 2793 
Q 2445 2797 2496 2781 
Q 2547 2765 2582 2729 
Q 2618 2694 2630 2650 
Q 2650 2592 2602 2509 
Q 2554 2426 2483 2394 
Q 2221 2246 1961 2108 
Q 1702 1971 1466 1856 
Q 1421 1837 1373 1833 
Q 1325 1830 1277 1840 
Q 1229 1850 1190 1875 
Q 1152 1901 1133 1933 
z
M 5293 2387 
Q 5229 2426 5190 2480 
Q 5152 2534 5145 2588 
Q 5139 2643 5155 2697 
Q 5171 2752 5222 2790 
Q 5267 2822 5350 2825 
Q 5434 2829 5485 2797 
Q 5709 2662 5942 2502 
Q 6176 2342 6355 2202 
Q 6406 2170 6432 2118 
Q 6458 2067 6464 2016 
Q 6470 1965 6454 1913 
Q 6438 1862 6394 1824 
Q 6323 1773 6217 1779 
Q 6112 1786 6035 1843 
Q 5894 1965 5692 2112 
Q 5491 2259 5293 2387 
z
M 5773 3930 
Q 5837 4000 5939 4022 
Q 6042 4045 6118 4000 
Q 6170 3974 6195 3926 
Q 6221 3878 6224 3820 
Q 6227 3763 6204 3712 
Q 6182 3661 6138 3616 
Q 6003 3488 5856 3369 
Q 5709 3251 5574 3149 
Q 5517 3104 5433 3097 
Q 5350 3091 5299 3123 
Q 5254 3155 5232 3206 
Q 5210 3258 5210 3315 
Q 5210 3373 5238 3433 
Q 5267 3494 5318 3546 
Q 5434 3629 5555 3734 
Q 5677 3840 5773 3930 
z
M 1472 3597 
Q 1414 3642 1379 3693 
Q 1344 3744 1337 3801 
Q 1331 3859 1347 3910 
Q 1363 3962 1408 4000 
Q 1453 4032 1536 4035 
Q 1619 4038 1677 4006 
Q 1837 3910 1993 3792 
Q 2150 3674 2278 3571 
Q 2323 3539 2348 3488 
Q 2374 3437 2374 3385 
Q 2374 3334 2358 3286 
Q 2342 3238 2304 3206 
Q 2234 3149 2122 3158 
Q 2010 3168 1933 3232 
Q 1843 3315 1721 3414 
Q 1600 3514 1472 3597 
z
M 2880 3654 
L 2880 3661 
Q 2886 3654 2880 3654 
Q 2880 3654 2880 3654 
z
" transform="scale(0.015625)"/>
      </defs>
      <use xlink:href="#MapleMonoNormalNL-NF-CN-Regular-51c6"/>
      <use xlink:href="#MapleMonoNormalNL-NF-CN-Regular-786e" x="119.999985"/>
      <use xlink:href="#MapleMonoNormalNL-NF-CN-Regular-7387" x="239.999969"/>
     </g>
    </g>
   </g>
   <g id="line2d_16">
    <path clip-path="url(#p9f764af474)" style="fill: none; stroke: #424242; stroke-width: 2.25; stroke-linecap: square"/>
   </g>
   <g id="line2d_17">
    <path clip-path="url(#p9f764af474)" style="fill: none; stroke: #424242; stroke-width: 2.25; stroke-linecap: square"/>
   </g>
   <g id="line2d_18">
    <path clip-path="url(#p9f764af474)" style="fill: none; stroke: #424242; stroke-width: 2.25; stroke-linecap: square"/>
   </g>
   <g id="line2d_19">
    <path clip-path="url(#p9f764af474)" style="fill: none; stroke: #424242; stroke-width: 2.25; stroke-linecap: square"/>
   </g>
   <g id="line2d_20">
    <path clip-path="url(#p9f764af474)" style="fill: none; stroke: #424242; stroke-width: 2.25; stroke-linecap: square"/>
   </g>
   <g id="line2d_21">
    <path clip-path="url(#p9f764af474)" style="fill: none; stroke: #424242; stroke-width: 2.25; stroke-linecap: square"/>
   </g>
   <g id="patch_9">
    <path d="M 54.4475 527.3575 
L 54.4475 11.505089 
" style="fill: none; stroke: #000000; stroke-width: 0.8; stroke-linejoin: miter; stroke-linecap: square"/>
   </g>
   <g id="patch_10">
    <path d="M 54.4475 527.3575 
L 853.2 527.3575 
" style="fill: none; stroke: #000000; stroke-width: 0.8; stroke-linejoin: miter; stroke-linecap: square"/>
   </g>
   <g id="text_18">
    <!-- 0.802 -->
    <g transform="translate(94.010208 26.525732) scale(0.18 -0.18)">
     <defs>
      <path id="MapleMonoNormalNL-NF-CN-Regular-30" d="M 1920 -64 
Q 1440 -64 1142 169 
Q 845 403 681 758 
Q 518 1114 460 1536 
Q 403 1958 403 2336 
Q 403 2714 460 3136 
Q 518 3558 684 3913 
Q 851 4269 1148 4502 
Q 1446 4736 1933 4736 
Q 2413 4736 2710 4505 
Q 3008 4275 3168 3923 
Q 3328 3571 3382 3155 
Q 3437 2739 3437 2368 
Q 3437 1978 3379 1549 
Q 3322 1120 3155 761 
Q 2989 403 2694 169 
Q 2400 -64 1920 -64 
z
M 1920 512 
Q 2227 512 2412 713 
Q 2598 915 2697 1200 
Q 2797 1485 2829 1801 
Q 2861 2118 2861 2349 
Q 2861 2515 2842 2726 
L 1133 1222 
Q 1139 1210 1146 1203 
Q 1242 915 1427 713 
Q 1613 512 1920 512 
z
M 2701 3462 
L 2701 3482 
Q 2598 3763 2412 3961 
Q 2227 4160 1920 4160 
Q 1613 4160 1427 3958 
Q 1242 3757 1142 3472 
Q 1043 3187 1011 2876 
Q 979 2566 979 2342 
Q 979 2170 998 1958 
L 2701 3462 
z
" transform="scale(0.015625)"/>
      <path id="MapleMonoNormalNL-NF-CN-Regular-2e" d="M 1376 480 
Q 1376 595 1417 694 
Q 1459 794 1532 867 
Q 1606 941 1705 982 
Q 1805 1024 1920 1024 
Q 2035 1024 2134 982 
Q 2234 941 2307 867 
Q 2381 794 2422 694 
Q 2464 595 2464 480 
Q 2464 371 2422 272 
Q 2381 173 2307 99 
Q 2234 26 2134 -19 
Q 2035 -64 1920 -64 
Q 1805 -64 1705 -19 
Q 1606 26 1532 99 
Q 1459 173 1417 272 
Q 1376 371 1376 480 
z
" transform="scale(0.015625)"/>
      <path id="MapleMonoNormalNL-NF-CN-Regular-38" d="M 1920 -64 
Q 1587 -64 1312 35 
Q 1037 134 838 313 
Q 640 493 531 739 
Q 422 986 422 1280 
Q 422 1510 489 1708 
Q 557 1907 675 2060 
Q 794 2214 966 2316 
Q 1139 2419 1350 2458 
L 1350 2477 
Q 986 2560 768 2845 
Q 550 3130 550 3526 
Q 550 3789 649 4013 
Q 749 4237 931 4397 
Q 1114 4557 1363 4646 
Q 1613 4736 1920 4736 
Q 2227 4736 2476 4646 
Q 2726 4557 2908 4397 
Q 3091 4237 3190 4013 
Q 3290 3789 3290 3526 
Q 3290 3130 3072 2845 
Q 2854 2560 2490 2477 
L 2490 2458 
Q 2701 2419 2873 2316 
Q 3046 2214 3164 2060 
Q 3283 1907 3350 1708 
Q 3418 1510 3418 1280 
Q 3418 986 3309 739 
Q 3200 493 3001 313 
Q 2803 134 2528 35 
Q 2253 -64 1920 -64 
z
M 1920 512 
Q 2125 512 2294 569 
Q 2464 627 2585 736 
Q 2707 845 2774 998 
Q 2842 1152 2842 1338 
Q 2842 1523 2774 1680 
Q 2707 1837 2585 1945 
Q 2464 2054 2294 2115 
Q 2125 2176 1920 2176 
Q 1715 2176 1545 2115 
Q 1376 2054 1254 1945 
Q 1133 1837 1065 1680 
Q 998 1523 998 1338 
Q 998 1152 1065 998 
Q 1133 845 1254 736 
Q 1376 627 1545 569 
Q 1715 512 1920 512 
z
M 1920 2752 
Q 2278 2752 2496 2937 
Q 2714 3123 2714 3450 
Q 2714 3782 2496 3971 
Q 2278 4160 1920 4160 
Q 1562 4160 1344 3971 
Q 1126 3782 1126 3450 
Q 1126 3123 1344 2937 
Q 1562 2752 1920 2752 
z
" transform="scale(0.015625)"/>
      <path id="MapleMonoNormalNL-NF-CN-Regular-32" d="M 870 0 
Q 685 0 585 93 
Q 486 186 486 371 
Q 486 474 518 560 
Q 550 646 621 717 
L 2042 2189 
Q 2144 2298 2265 2435 
Q 2387 2573 2492 2726 
Q 2598 2880 2668 3043 
Q 2739 3206 2739 3366 
Q 2739 3590 2668 3740 
Q 2598 3891 2476 3984 
Q 2355 4077 2188 4118 
Q 2022 4160 1830 4160 
Q 1574 4160 1398 4099 
Q 1222 4038 1062 3942 
Q 947 3872 835 3920 
Q 723 3968 659 4077 
Q 602 4179 637 4288 
Q 672 4397 768 4467 
Q 973 4614 1229 4675 
Q 1485 4736 1850 4736 
Q 2150 4736 2416 4675 
Q 2682 4614 2880 4467 
Q 3078 4320 3196 4070 
Q 3315 3821 3315 3437 
Q 3315 3238 3251 3036 
Q 3187 2835 3081 2636 
Q 2976 2438 2832 2252 
Q 2688 2067 2528 1894 
L 1395 691 
Q 1363 659 1379 617 
Q 1395 576 1504 576 
L 3149 576 
Q 3296 576 3366 505 
Q 3437 435 3437 288 
Q 3437 141 3366 70 
Q 3296 0 3149 0 
L 870 0 
z
" transform="scale(0.015625)"/>
     </defs>
     <use xlink:href="#MapleMonoNormalNL-NF-CN-Regular-30"/>
     <use xlink:href="#MapleMonoNormalNL-NF-CN-Regular-2e" x="59.999985"/>
     <use xlink:href="#MapleMonoNormalNL-NF-CN-Regular-38" x="119.999969"/>
     <use xlink:href="#MapleMonoNormalNL-NF-CN-Regular-30" x="179.999954"/>
     <use xlink:href="#MapleMonoNormalNL-NF-CN-Regular-32" x="239.999939"/>
    </g>
   </g>
   <g id="text_19">
    <!-- 0.800 -->
    <g transform="translate(227.135625 27.787062) scale(0.18 -0.18)">
     <use xlink:href="#MapleMonoNormalNL-NF-CN-Regular-30"/>
     <use xlink:href="#MapleMonoNormalNL-NF-CN-Regular-2e" x="59.999985"/>
     <use xlink:href="#MapleMonoNormalNL-NF-CN-Regular-38" x="119.999969"/>
     <use xlink:href="#MapleMonoNormalNL-NF-CN-Regular-30" x="179.999954"/>
     <use xlink:href="#MapleMonoNormalNL-NF-CN-Regular-30" x="239.999939"/>
    </g>
   </g>
   <g id="text_20">
    <!-- 0.788 -->
    <g transform="translate(360.261042 35.355042) scale(0.18 -0.18)">
     <defs>
      <path id="MapleMonoNormalNL-NF-CN-Regular-37" d="M 1242 326 
L 2656 3859 
Q 2669 3891 2675 3920 
Q 2682 3949 2682 3974 
Q 2682 4038 2637 4067 
Q 2592 4096 2496 4096 
L 685 4096 
Q 538 4096 467 4166 
Q 397 4237 397 4384 
Q 397 4531 467 4601 
Q 538 4672 685 4672 
L 2906 4672 
Q 3136 4672 3251 4560 
Q 3366 4448 3366 4237 
Q 3366 4160 3353 4099 
Q 3341 4038 3322 3987 
L 1792 128 
Q 1754 32 1677 -16 
Q 1600 -64 1472 -64 
Q 1338 -64 1267 -16 
Q 1197 32 1197 134 
Q 1197 173 1209 224 
Q 1222 275 1242 326 
z
" transform="scale(0.015625)"/>
     </defs>
     <use xlink:href="#MapleMonoNormalNL-NF-CN-Regular-30"/>
     <use xlink:href="#MapleMonoNormalNL-NF-CN-Regular-2e" x="59.999985"/>
     <use xlink:href="#MapleMonoNormalNL-NF-CN-Regular-37" x="119.999969"/>
     <use xlink:href="#MapleMonoNormalNL-NF-CN-Regular-38" x="179.999954"/>
     <use xlink:href="#MapleMonoNormalNL-NF-CN-Regular-38" x="239.999939"/>
    </g>
   </g>
   <g id="text_21">
    <!-- 0.502 -->
    <g transform="translate(493.386458 210.498793) scale(0.18 -0.18)">
     <defs>
      <path id="MapleMonoNormalNL-NF-CN-Regular-35" d="M 3328 1306 
Q 3328 998 3222 748 
Q 3117 499 2915 316 
Q 2714 134 2419 35 
Q 2125 -64 1741 -64 
Q 1466 -64 1165 -13 
Q 864 38 646 134 
Q 518 186 470 298 
Q 422 410 480 538 
Q 531 653 643 701 
Q 755 749 922 678 
Q 1094 608 1315 560 
Q 1536 512 1741 512 
Q 2202 512 2477 745 
Q 2752 979 2752 1446 
Q 2752 1683 2643 1836 
Q 2534 1990 2345 2083 
Q 2157 2176 1901 2211 
Q 1645 2246 1344 2246 
L 1216 2246 
Q 954 2246 829 2371 
Q 704 2496 704 2765 
L 704 4160 
Q 704 4422 829 4547 
Q 954 4672 1216 4672 
L 2950 4672 
Q 3098 4672 3168 4601 
Q 3238 4531 3238 4384 
Q 3238 4237 3168 4166 
Q 3098 4096 2950 4096 
L 1536 4096 
Q 1408 4096 1344 4032 
Q 1280 3968 1280 3840 
L 1280 3078 
Q 1280 2950 1344 2886 
Q 1408 2822 1536 2822 
Q 1856 2822 2173 2780 
Q 2490 2739 2749 2582 
Q 3008 2426 3168 2125 
Q 3328 1824 3328 1306 
z
" transform="scale(0.015625)"/>
     </defs>
     <use xlink:href="#MapleMonoNormalNL-NF-CN-Regular-30"/>
     <use xlink:href="#MapleMonoNormalNL-NF-CN-Regular-2e" x="59.999985"/>
     <use xlink:href="#MapleMonoNormalNL-NF-CN-Regular-35" x="119.999969"/>
     <use xlink:href="#MapleMonoNormalNL-NF-CN-Regular-30" x="179.999954"/>
     <use xlink:href="#MapleMonoNormalNL-NF-CN-Regular-32" x="239.999939"/>
    </g>
   </g>
   <g id="text_22">
    <!-- 0.496 -->
    <g transform="translate(626.511875 213.833228) scale(0.18 -0.18)">
     <defs>
      <path id="MapleMonoNormalNL-NF-CN-Regular-34" d="M 2304 1632 
L 2304 3443 
Q 2304 3514 2294 3539 
Q 2285 3565 2266 3565 
Q 2253 3565 2227 3549 
Q 2202 3533 2170 3482 
L 1190 1850 
Q 1165 1811 1155 1779 
Q 1146 1747 1146 1722 
Q 1146 1670 1187 1651 
Q 1229 1632 1312 1632 
L 2304 1632 
z
M 2304 224 
L 2304 1056 
L 819 1056 
Q 602 1056 493 1161 
Q 384 1267 384 1472 
Q 384 1562 403 1626 
Q 422 1690 461 1754 
L 2202 4570 
Q 2253 4653 2329 4694 
Q 2406 4736 2522 4736 
Q 2694 4736 2787 4640 
Q 2880 4544 2880 4352 
L 2880 1632 
L 3264 1632 
Q 3411 1632 3481 1561 
Q 3552 1491 3552 1344 
Q 3552 1197 3481 1126 
Q 3411 1056 3264 1056 
L 2880 1056 
L 2880 224 
Q 2880 77 2809 6 
Q 2739 -64 2592 -64 
Q 2445 -64 2374 6 
Q 2304 77 2304 224 
z
" transform="scale(0.015625)"/>
      <path id="MapleMonoNormalNL-NF-CN-Regular-39" d="M 1920 4154 
Q 1722 4154 1552 4099 
Q 1382 4045 1260 3926 
Q 1139 3808 1072 3625 
Q 1005 3443 1005 3194 
Q 1005 3002 1069 2832 
Q 1133 2662 1251 2534 
Q 1370 2406 1539 2332 
Q 1709 2259 1920 2259 
Q 2144 2259 2313 2339 
Q 2483 2419 2598 2553 
Q 2714 2688 2774 2870 
Q 2835 3053 2835 3251 
Q 2835 3514 2761 3690 
Q 2688 3866 2563 3968 
Q 2438 4070 2272 4112 
Q 2106 4154 1920 4154 
z
M 1459 -26 
Q 1325 -77 1225 -61 
Q 1126 -45 1056 83 
Q 992 198 1021 307 
Q 1050 416 1190 467 
Q 1498 570 1776 752 
Q 2054 934 2275 1174 
Q 2496 1414 2643 1708 
Q 2790 2003 2835 2330 
Q 2662 2029 2396 1856 
Q 2131 1683 1734 1683 
Q 1459 1683 1219 1795 
Q 979 1907 803 2108 
Q 627 2310 528 2582 
Q 429 2854 429 3174 
Q 429 3558 547 3849 
Q 666 4141 867 4336 
Q 1069 4531 1337 4630 
Q 1606 4730 1914 4730 
Q 2253 4730 2528 4643 
Q 2803 4557 2998 4352 
Q 3194 4147 3302 3798 
Q 3411 3450 3411 2925 
Q 3411 2342 3260 1862 
Q 3110 1382 2844 1011 
Q 2579 640 2224 377 
Q 1869 115 1459 -26 
z
" transform="scale(0.015625)"/>
      <path id="MapleMonoNormalNL-NF-CN-Regular-36" d="M 1920 512 
Q 2125 512 2291 566 
Q 2458 621 2579 739 
Q 2701 858 2768 1040 
Q 2835 1222 2835 1472 
Q 2835 1664 2771 1833 
Q 2707 2003 2588 2131 
Q 2470 2259 2300 2332 
Q 2131 2406 1920 2406 
Q 1702 2406 1529 2326 
Q 1357 2246 1241 2112 
Q 1126 1978 1065 1798 
Q 1005 1619 1005 1414 
Q 1005 1152 1078 976 
Q 1152 800 1277 697 
Q 1402 595 1568 553 
Q 1734 512 1920 512 
z
M 2381 4691 
Q 2515 4742 2614 4726 
Q 2714 4710 2784 4582 
Q 2848 4467 2819 4358 
Q 2790 4250 2650 4198 
Q 2342 4096 2064 3913 
Q 1786 3731 1565 3491 
Q 1344 3251 1200 2956 
Q 1056 2662 1005 2336 
Q 1178 2637 1443 2809 
Q 1709 2982 2106 2982 
Q 2381 2982 2621 2870 
Q 2861 2758 3037 2556 
Q 3213 2355 3312 2083 
Q 3411 1811 3411 1491 
Q 3411 1107 3296 816 
Q 3181 525 2979 329 
Q 2778 134 2506 35 
Q 2234 -64 1926 -64 
Q 1594 -64 1315 22 
Q 1037 109 841 313 
Q 646 518 537 867 
Q 429 1216 429 1741 
Q 429 2323 582 2803 
Q 736 3283 998 3654 
Q 1261 4026 1616 4288 
Q 1971 4550 2381 4691 
z
" transform="scale(0.015625)"/>
     </defs>
     <use xlink:href="#MapleMonoNormalNL-NF-CN-Regular-30"/>
     <use xlink:href="#MapleMonoNormalNL-NF-CN-Regular-2e" x="59.999985"/>
     <use xlink:href="#MapleMonoNormalNL-NF-CN-Regular-34" x="119.999969"/>
     <use xlink:href="#MapleMonoNormalNL-NF-CN-Regular-39" x="179.999954"/>
     <use xlink:href="#MapleMonoNormalNL-NF-CN-Regular-36" x="239.999939"/>
    </g>
   </g>
   <g id="text_23">
    <!-- 0.445 -->
    <g transform="translate(759.637292 245.051144) scale(0.18 -0.18)">
     <use xlink:href="#MapleMonoNormalNL-NF-CN-Regular-30"/>
     <use xlink:href="#MapleMonoNormalNL-NF-CN-Regular-2e" x="59.999985"/>
     <use xlink:href="#MapleMonoNormalNL-NF-CN-Regular-34" x="119.999969"/>
     <use xlink:href="#MapleMonoNormalNL-NF-CN-Regular-34" x="179.999954"/>
     <use xlink:href="#MapleMonoNormalNL-NF-CN-Regular-35" x="239.999939"/>
    </g>
   </g>
  </g>
 </g>
 <defs>
  <clipPath id="p9f764af474">
   <rect x="54.4475" y="11.505089" width="798.7525" height="515.852411"/>
  </clipPath>
 </defs>
</svg>
