<?xml version="1.0" encoding="utf-8" standalone="no"?>
<!DOCTYPE svg PUBLIC "-//W3C//DTD SVG 1.1//EN"
  "http://www.w3.org/Graphics/SVG/1.1/DTD/svg11.dtd">
<svg xmlns:xlink="http://www.w3.org/1999/xlink" width="864pt" height="576pt" viewBox="0 0 864 576" xmlns="http://www.w3.org/2000/svg" version="1.1">
 <metadata>
  <rdf:RDF xmlns:dc="http://purl.org/dc/elements/1.1/" xmlns:cc="http://creativecommons.org/ns#" xmlns:rdf="http://www.w3.org/1999/02/22-rdf-syntax-ns#">
   <cc:Work>
    <dc:type rdf:resource="http://purl.org/dc/dcmitype/StillImage"/>
    <dc:date>2025-04-25T13:23:26.861021</dc:date>
    <dc:format>image/svg+xml</dc:format>
    <dc:creator>
     <cc:Agent>
      <dc:title>Matplotlib v3.9.4, https://matplotlib.org/</dc:title>
     </cc:Agent>
    </dc:creator>
   </cc:Work>
  </rdf:RDF>
 </metadata>
 <defs>
  <style type="text/css">*{stroke-linejoin: round; stroke-linecap: butt}</style>
 </defs>
 <g id="figure_1">
  <g id="patch_1">
   <path d="M 0 576 
L 864 576 
L 864 0 
L 0 0 
z
" style="fill: #ffffff"/>
  </g>
  <g id="axes_1">
   <g id="patch_2">
    <path d="M 48.44 463.359348 
L 851.85 463.359348 
L 851.85 24.01125 
L 48.44 24.01125 
z
" style="fill: #ffffff"/>
   </g>
   <g id="patch_3">
    <path d="M 52.45705 463.359348 
L 84.59345 463.359348 
L 84.59345 44.932588 
L 52.45705 44.932588 
z
" clip-path="url(#pe32ef4650f)" style="fill: #a9c7da"/>
   </g>
   <g id="patch_4">
    <path d="M 92.62755 463.359348 
L 124.76395 463.359348 
L 124.76395 50.947827 
L 92.62755 50.947827 
z
" clip-path="url(#pe32ef4650f)" style="fill: #9fc0d5"/>
   </g>
   <g id="patch_5">
    <path d="M 132.79805 463.359348 
L 164.93445 463.359348 
L 164.93445 100.354958 
L 132.79805 100.354958 
z
" clip-path="url(#pe32ef4650f)" style="fill: #95b9d1"/>
   </g>
   <g id="patch_6">
    <path d="M 172.96855 463.359348 
L 205.10495 463.359348 
L 205.10495 123.597402 
L 172.96855 123.597402 
z
" clip-path="url(#pe32ef4650f)" style="fill: #8bb2cd"/>
   </g>
   <g id="patch_7">
    <path d="M 213.13905 463.359348 
L 245.27545 463.359348 
L 245.27545 163.153037 
L 213.13905 163.153037 
z
" clip-path="url(#pe32ef4650f)" style="fill: #81abc8"/>
   </g>
   <g id="patch_8">
    <path d="M 253.30955 463.359348 
L 285.44595 463.359348 
L 285.44595 171.400674 
L 253.30955 171.400674 
z
" clip-path="url(#pe32ef4650f)" style="fill: #76a4c3"/>
   </g>
   <g id="patch_9">
    <path d="M 293.48005 463.359348 
L 325.61645 463.359348 
L 325.61645 177.966732 
L 293.48005 177.966732 
z
" clip-path="url(#pe32ef4650f)" style="fill: #6c9dbf"/>
   </g>
   <g id="patch_10">
    <path d="M 333.65055 463.359348 
L 365.78695 463.359348 
L 365.78695 182.507447 
L 333.65055 182.507447 
z
" clip-path="url(#pe32ef4650f)" style="fill: #6296ba"/>
   </g>
   <g id="patch_11">
    <path d="M 373.82105 463.359348 
L 405.95745 463.359348 
L 405.95745 182.702209 
L 373.82105 182.702209 
z
" clip-path="url(#pe32ef4650f)" style="fill: #588fb6"/>
   </g>
   <g id="patch_12">
    <path d="M 413.99155 463.359348 
L 446.12795 463.359348 
L 446.12795 199.547957 
L 413.99155 199.547957 
z
" clip-path="url(#pe32ef4650f)" style="fill: #4e88b2"/>
   </g>
   <g id="patch_13">
    <path d="M 454.16205 463.359348 
L 486.29845 463.359348 
L 486.29845 205.77863 
L 454.16205 205.77863 
z
" clip-path="url(#pe32ef4650f)" style="fill: #4780a9"/>
   </g>
   <g id="patch_14">
    <path d="M 494.33255 463.359348 
L 526.46895 463.359348 
L 526.46895 212.279315 
L 494.33255 212.279315 
z
" clip-path="url(#pe32ef4650f)" style="fill: #45789d"/>
   </g>
   <g id="patch_15">
    <path d="M 534.50305 463.359348 
L 566.63945 463.359348 
L 566.63945 215.03546 
L 534.50305 215.03546 
z
" clip-path="url(#pe32ef4650f)" style="fill: #437191"/>
   </g>
   <g id="patch_16">
    <path d="M 574.67355 463.359348 
L 606.80995 463.359348 
L 606.80995 215.698589 
L 574.67355 215.698589 
z
" clip-path="url(#pe32ef4650f)" style="fill: #416986"/>
   </g>
   <g id="patch_17">
    <path d="M 614.84405 463.359348 
L 646.98045 463.359348 
L 646.98045 233.692786 
L 614.84405 233.692786 
z
" clip-path="url(#pe32ef4650f)" style="fill: #3f617a"/>
   </g>
   <g id="patch_18">
    <path d="M 655.01455 463.359348 
L 687.15095 463.359348 
L 687.15095 236.490878 
L 655.01455 236.490878 
z
" clip-path="url(#pe32ef4650f)" style="fill: #3d596d"/>
   </g>
   <g id="patch_19">
    <path d="M 695.18505 463.359348 
L 727.32145 463.359348 
L 727.32145 272.769354 
L 695.18505 272.769354 
z
" clip-path="url(#pe32ef4650f)" style="fill: #3b5262"/>
   </g>
   <g id="patch_20">
    <path d="M 735.35555 463.359348 
L 767.49195 463.359348 
L 767.49195 276.646601 
L 735.35555 276.646601 
z
" clip-path="url(#pe32ef4650f)" style="fill: #394a56"/>
   </g>
   <g id="patch_21">
    <path d="M 775.52605 463.359348 
L 807.66245 463.359348 
L 807.66245 327.708375 
L 775.52605 327.708375 
z
" clip-path="url(#pe32ef4650f)" style="fill: #37424a"/>
   </g>
   <g id="patch_22">
    <path d="M 815.69655 463.359348 
L 847.83295 463.359348 
L 847.83295 360.468108 
L 815.69655 360.468108 
z
" clip-path="url(#pe32ef4650f)" style="fill: #353b3f"/>
   </g>
   <g id="matplotlib.axis_1">
    <g id="xtick_1">
     <g id="line2d_1">
      <defs>
       <path id="m6d64c2cbd1" d="M 0 0 
L 0 3.5 
" style="stroke: #000000; stroke-width: 0.8"/>
      </defs>
      <g>
       <use xlink:href="#m6d64c2cbd1" x="68.52525" y="463.359348" style="stroke: #000000; stroke-width: 0.8"/>
      </g>
     </g>
     <g id="text_1">
      <!-- CNN-3 -->
      <g transform="translate(44.486934 498.300009) rotate(-45) scale(0.1 -0.1)">
       <defs>
        <path id="DejaVuSans-43" d="M 4122 4306 
L 4122 3641 
Q 3803 3938 3442 4084 
Q 3081 4231 2675 4231 
Q 1875 4231 1450 3742 
Q 1025 3253 1025 2328 
Q 1025 1406 1450 917 
Q 1875 428 2675 428 
Q 3081 428 3442 575 
Q 3803 722 4122 1019 
L 4122 359 
Q 3791 134 3420 21 
Q 3050 -91 2638 -91 
Q 1578 -91 968 557 
Q 359 1206 359 2328 
Q 359 3453 968 4101 
Q 1578 4750 2638 4750 
Q 3056 4750 3426 4639 
Q 3797 4528 4122 4306 
z
" transform="scale(0.015625)"/>
        <path id="DejaVuSans-4e" d="M 628 4666 
L 1478 4666 
L 3547 763 
L 3547 4666 
L 4159 4666 
L 4159 0 
L 3309 0 
L 1241 3903 
L 1241 0 
L 628 0 
L 628 4666 
z
" transform="scale(0.015625)"/>
        <path id="DejaVuSans-2d" d="M 313 2009 
L 1997 2009 
L 1997 1497 
L 313 1497 
L 313 2009 
z
" transform="scale(0.015625)"/>
        <path id="DejaVuSans-33" d="M 2597 2516 
Q 3050 2419 3304 2112 
Q 3559 1806 3559 1356 
Q 3559 666 3084 287 
Q 2609 -91 1734 -91 
Q 1441 -91 1130 -33 
Q 819 25 488 141 
L 488 750 
Q 750 597 1062 519 
Q 1375 441 1716 441 
Q 2309 441 2620 675 
Q 2931 909 2931 1356 
Q 2931 1769 2642 2001 
Q 2353 2234 1838 2234 
L 1294 2234 
L 1294 2753 
L 1863 2753 
Q 2328 2753 2575 2939 
Q 2822 3125 2822 3475 
Q 2822 3834 2567 4026 
Q 2313 4219 1838 4219 
Q 1578 4219 1281 4162 
Q 984 4106 628 3988 
L 628 4550 
Q 988 4650 1302 4700 
Q 1616 4750 1894 4750 
Q 2613 4750 3031 4423 
Q 3450 4097 3450 3541 
Q 3450 3153 3228 2886 
Q 3006 2619 2597 2516 
z
" transform="scale(0.015625)"/>
       </defs>
       <use xlink:href="#DejaVuSans-43"/>
       <use xlink:href="#DejaVuSans-4e" x="69.824219"/>
       <use xlink:href="#DejaVuSans-4e" x="144.628906"/>
       <use xlink:href="#DejaVuSans-2d" x="219.433594"/>
       <use xlink:href="#DejaVuSans-33" x="255.517578"/>
      </g>
     </g>
    </g>
    <g id="xtick_2">
     <g id="line2d_2">
      <g>
       <use xlink:href="#m6d64c2cbd1" x="108.69575" y="463.359348" style="stroke: #000000; stroke-width: 0.8"/>
      </g>
     </g>
     <g id="text_2">
      <!-- CNN-2 -->
      <g transform="translate(84.657434 498.300009) rotate(-45) scale(0.1 -0.1)">
       <defs>
        <path id="DejaVuSans-32" d="M 1228 531 
L 3431 531 
L 3431 0 
L 469 0 
L 469 531 
Q 828 903 1448 1529 
Q 2069 2156 2228 2338 
Q 2531 2678 2651 2914 
Q 2772 3150 2772 3378 
Q 2772 3750 2511 3984 
Q 2250 4219 1831 4219 
Q 1534 4219 1204 4116 
Q 875 4013 500 3803 
L 500 4441 
Q 881 4594 1212 4672 
Q 1544 4750 1819 4750 
Q 2544 4750 2975 4387 
Q 3406 4025 3406 3419 
Q 3406 3131 3298 2873 
Q 3191 2616 2906 2266 
Q 2828 2175 2409 1742 
Q 1991 1309 1228 531 
z
" transform="scale(0.015625)"/>
       </defs>
       <use xlink:href="#DejaVuSans-43"/>
       <use xlink:href="#DejaVuSans-4e" x="69.824219"/>
       <use xlink:href="#DejaVuSans-4e" x="144.628906"/>
       <use xlink:href="#DejaVuSans-2d" x="219.433594"/>
       <use xlink:href="#DejaVuSans-32" x="255.517578"/>
      </g>
     </g>
    </g>
    <g id="xtick_3">
     <g id="line2d_3">
      <g>
       <use xlink:href="#m6d64c2cbd1" x="148.86625" y="463.359348" style="stroke: #000000; stroke-width: 0.8"/>
      </g>
     </g>
     <g id="text_3">
      <!-- RandomForest-4 -->
      <g transform="translate(89.381997 533.745946) rotate(-45) scale(0.1 -0.1)">
       <defs>
        <path id="DejaVuSans-52" d="M 2841 2188 
Q 3044 2119 3236 1894 
Q 3428 1669 3622 1275 
L 4263 0 
L 3584 0 
L 2988 1197 
Q 2756 1666 2539 1819 
Q 2322 1972 1947 1972 
L 1259 1972 
L 1259 0 
L 628 0 
L 628 4666 
L 2053 4666 
Q 2853 4666 3247 4331 
Q 3641 3997 3641 3322 
Q 3641 2881 3436 2590 
Q 3231 2300 2841 2188 
z
M 1259 4147 
L 1259 2491 
L 2053 2491 
Q 2509 2491 2742 2702 
Q 2975 2913 2975 3322 
Q 2975 3731 2742 3939 
Q 2509 4147 2053 4147 
L 1259 4147 
z
" transform="scale(0.015625)"/>
        <path id="DejaVuSans-61" d="M 2194 1759 
Q 1497 1759 1228 1600 
Q 959 1441 959 1056 
Q 959 750 1161 570 
Q 1363 391 1709 391 
Q 2188 391 2477 730 
Q 2766 1069 2766 1631 
L 2766 1759 
L 2194 1759 
z
M 3341 1997 
L 3341 0 
L 2766 0 
L 2766 531 
Q 2569 213 2275 61 
Q 1981 -91 1556 -91 
Q 1019 -91 701 211 
Q 384 513 384 1019 
Q 384 1609 779 1909 
Q 1175 2209 1959 2209 
L 2766 2209 
L 2766 2266 
Q 2766 2663 2505 2880 
Q 2244 3097 1772 3097 
Q 1472 3097 1187 3025 
Q 903 2953 641 2809 
L 641 3341 
Q 956 3463 1253 3523 
Q 1550 3584 1831 3584 
Q 2591 3584 2966 3190 
Q 3341 2797 3341 1997 
z
" transform="scale(0.015625)"/>
        <path id="DejaVuSans-6e" d="M 3513 2113 
L 3513 0 
L 2938 0 
L 2938 2094 
Q 2938 2591 2744 2837 
Q 2550 3084 2163 3084 
Q 1697 3084 1428 2787 
Q 1159 2491 1159 1978 
L 1159 0 
L 581 0 
L 581 3500 
L 1159 3500 
L 1159 2956 
Q 1366 3272 1645 3428 
Q 1925 3584 2291 3584 
Q 2894 3584 3203 3211 
Q 3513 2838 3513 2113 
z
" transform="scale(0.015625)"/>
        <path id="DejaVuSans-64" d="M 2906 2969 
L 2906 4863 
L 3481 4863 
L 3481 0 
L 2906 0 
L 2906 525 
Q 2725 213 2448 61 
Q 2172 -91 1784 -91 
Q 1150 -91 751 415 
Q 353 922 353 1747 
Q 353 2572 751 3078 
Q 1150 3584 1784 3584 
Q 2172 3584 2448 3432 
Q 2725 3281 2906 2969 
z
M 947 1747 
Q 947 1113 1208 752 
Q 1469 391 1925 391 
Q 2381 391 2643 752 
Q 2906 1113 2906 1747 
Q 2906 2381 2643 2742 
Q 2381 3103 1925 3103 
Q 1469 3103 1208 2742 
Q 947 2381 947 1747 
z
" transform="scale(0.015625)"/>
        <path id="DejaVuSans-6f" d="M 1959 3097 
Q 1497 3097 1228 2736 
Q 959 2375 959 1747 
Q 959 1119 1226 758 
Q 1494 397 1959 397 
Q 2419 397 2687 759 
Q 2956 1122 2956 1747 
Q 2956 2369 2687 2733 
Q 2419 3097 1959 3097 
z
M 1959 3584 
Q 2709 3584 3137 3096 
Q 3566 2609 3566 1747 
Q 3566 888 3137 398 
Q 2709 -91 1959 -91 
Q 1206 -91 779 398 
Q 353 888 353 1747 
Q 353 2609 779 3096 
Q 1206 3584 1959 3584 
z
" transform="scale(0.015625)"/>
        <path id="DejaVuSans-6d" d="M 3328 2828 
Q 3544 3216 3844 3400 
Q 4144 3584 4550 3584 
Q 5097 3584 5394 3201 
Q 5691 2819 5691 2113 
L 5691 0 
L 5113 0 
L 5113 2094 
Q 5113 2597 4934 2840 
Q 4756 3084 4391 3084 
Q 3944 3084 3684 2787 
Q 3425 2491 3425 1978 
L 3425 0 
L 2847 0 
L 2847 2094 
Q 2847 2600 2669 2842 
Q 2491 3084 2119 3084 
Q 1678 3084 1418 2786 
Q 1159 2488 1159 1978 
L 1159 0 
L 581 0 
L 581 3500 
L 1159 3500 
L 1159 2956 
Q 1356 3278 1631 3431 
Q 1906 3584 2284 3584 
Q 2666 3584 2933 3390 
Q 3200 3197 3328 2828 
z
" transform="scale(0.015625)"/>
        <path id="DejaVuSans-46" d="M 628 4666 
L 3309 4666 
L 3309 4134 
L 1259 4134 
L 1259 2759 
L 3109 2759 
L 3109 2228 
L 1259 2228 
L 1259 0 
L 628 0 
L 628 4666 
z
" transform="scale(0.015625)"/>
        <path id="DejaVuSans-72" d="M 2631 2963 
Q 2534 3019 2420 3045 
Q 2306 3072 2169 3072 
Q 1681 3072 1420 2755 
Q 1159 2438 1159 1844 
L 1159 0 
L 581 0 
L 581 3500 
L 1159 3500 
L 1159 2956 
Q 1341 3275 1631 3429 
Q 1922 3584 2338 3584 
Q 2397 3584 2469 3576 
Q 2541 3569 2628 3553 
L 2631 2963 
z
" transform="scale(0.015625)"/>
        <path id="DejaVuSans-65" d="M 3597 1894 
L 3597 1613 
L 953 1613 
Q 991 1019 1311 708 
Q 1631 397 2203 397 
Q 2534 397 2845 478 
Q 3156 559 3463 722 
L 3463 178 
Q 3153 47 2828 -22 
Q 2503 -91 2169 -91 
Q 1331 -91 842 396 
Q 353 884 353 1716 
Q 353 2575 817 3079 
Q 1281 3584 2069 3584 
Q 2775 3584 3186 3129 
Q 3597 2675 3597 1894 
z
M 3022 2063 
Q 3016 2534 2758 2815 
Q 2500 3097 2075 3097 
Q 1594 3097 1305 2825 
Q 1016 2553 972 2059 
L 3022 2063 
z
" transform="scale(0.015625)"/>
        <path id="DejaVuSans-73" d="M 2834 3397 
L 2834 2853 
Q 2591 2978 2328 3040 
Q 2066 3103 1784 3103 
Q 1356 3103 1142 2972 
Q 928 2841 928 2578 
Q 928 2378 1081 2264 
Q 1234 2150 1697 2047 
L 1894 2003 
Q 2506 1872 2764 1633 
Q 3022 1394 3022 966 
Q 3022 478 2636 193 
Q 2250 -91 1575 -91 
Q 1294 -91 989 -36 
Q 684 19 347 128 
L 347 722 
Q 666 556 975 473 
Q 1284 391 1588 391 
Q 1994 391 2212 530 
Q 2431 669 2431 922 
Q 2431 1156 2273 1281 
Q 2116 1406 1581 1522 
L 1381 1569 
Q 847 1681 609 1914 
Q 372 2147 372 2553 
Q 372 3047 722 3315 
Q 1072 3584 1716 3584 
Q 2034 3584 2315 3537 
Q 2597 3491 2834 3397 
z
" transform="scale(0.015625)"/>
        <path id="DejaVuSans-74" d="M 1172 4494 
L 1172 3500 
L 2356 3500 
L 2356 3053 
L 1172 3053 
L 1172 1153 
Q 1172 725 1289 603 
Q 1406 481 1766 481 
L 2356 481 
L 2356 0 
L 1766 0 
Q 1100 0 847 248 
Q 594 497 594 1153 
L 594 3053 
L 172 3053 
L 172 3500 
L 594 3500 
L 594 4494 
L 1172 4494 
z
" transform="scale(0.015625)"/>
        <path id="DejaVuSans-34" d="M 2419 4116 
L 825 1625 
L 2419 1625 
L 2419 4116 
z
M 2253 4666 
L 3047 4666 
L 3047 1625 
L 3713 1625 
L 3713 1100 
L 3047 1100 
L 3047 0 
L 2419 0 
L 2419 1100 
L 313 1100 
L 313 1709 
L 2253 4666 
z
" transform="scale(0.015625)"/>
       </defs>
       <use xlink:href="#DejaVuSans-52"/>
       <use xlink:href="#DejaVuSans-61" x="67.232422"/>
       <use xlink:href="#DejaVuSans-6e" x="128.511719"/>
       <use xlink:href="#DejaVuSans-64" x="191.890625"/>
       <use xlink:href="#DejaVuSans-6f" x="255.367188"/>
       <use xlink:href="#DejaVuSans-6d" x="316.548828"/>
       <use xlink:href="#DejaVuSans-46" x="413.960938"/>
       <use xlink:href="#DejaVuSans-6f" x="467.855469"/>
       <use xlink:href="#DejaVuSans-72" x="529.037109"/>
       <use xlink:href="#DejaVuSans-65" x="567.900391"/>
       <use xlink:href="#DejaVuSans-73" x="629.423828"/>
       <use xlink:href="#DejaVuSans-74" x="681.523438"/>
       <use xlink:href="#DejaVuSans-2d" x="720.732422"/>
       <use xlink:href="#DejaVuSans-34" x="756.816406"/>
      </g>
     </g>
    </g>
    <g id="xtick_4">
     <g id="line2d_4">
      <g>
       <use xlink:href="#m6d64c2cbd1" x="189.03675" y="463.359348" style="stroke: #000000; stroke-width: 0.8"/>
      </g>
     </g>
     <g id="text_4">
      <!-- RandomForest-1 -->
      <g transform="translate(129.552497 533.745946) rotate(-45) scale(0.1 -0.1)">
       <defs>
        <path id="DejaVuSans-31" d="M 794 531 
L 1825 531 
L 1825 4091 
L 703 3866 
L 703 4441 
L 1819 4666 
L 2450 4666 
L 2450 531 
L 3481 531 
L 3481 0 
L 794 0 
L 794 531 
z
" transform="scale(0.015625)"/>
       </defs>
       <use xlink:href="#DejaVuSans-52"/>
       <use xlink:href="#DejaVuSans-61" x="67.232422"/>
       <use xlink:href="#DejaVuSans-6e" x="128.511719"/>
       <use xlink:href="#DejaVuSans-64" x="191.890625"/>
       <use xlink:href="#DejaVuSans-6f" x="255.367188"/>
       <use xlink:href="#DejaVuSans-6d" x="316.548828"/>
       <use xlink:href="#DejaVuSans-46" x="413.960938"/>
       <use xlink:href="#DejaVuSans-6f" x="467.855469"/>
       <use xlink:href="#DejaVuSans-72" x="529.037109"/>
       <use xlink:href="#DejaVuSans-65" x="567.900391"/>
       <use xlink:href="#DejaVuSans-73" x="629.423828"/>
       <use xlink:href="#DejaVuSans-74" x="681.523438"/>
       <use xlink:href="#DejaVuSans-2d" x="720.732422"/>
       <use xlink:href="#DejaVuSans-31" x="756.816406"/>
      </g>
     </g>
    </g>
    <g id="xtick_5">
     <g id="line2d_5">
      <g>
       <use xlink:href="#m6d64c2cbd1" x="229.20725" y="463.359348" style="stroke: #000000; stroke-width: 0.8"/>
      </g>
     </g>
     <g id="text_5">
      <!-- LogisticRegression-4 -->
      <g transform="translate(155.109088 548.359855) rotate(-45) scale(0.1 -0.1)">
       <defs>
        <path id="DejaVuSans-4c" d="M 628 4666 
L 1259 4666 
L 1259 531 
L 3531 531 
L 3531 0 
L 628 0 
L 628 4666 
z
" transform="scale(0.015625)"/>
        <path id="DejaVuSans-67" d="M 2906 1791 
Q 2906 2416 2648 2759 
Q 2391 3103 1925 3103 
Q 1463 3103 1205 2759 
Q 947 2416 947 1791 
Q 947 1169 1205 825 
Q 1463 481 1925 481 
Q 2391 481 2648 825 
Q 2906 1169 2906 1791 
z
M 3481 434 
Q 3481 -459 3084 -895 
Q 2688 -1331 1869 -1331 
Q 1566 -1331 1297 -1286 
Q 1028 -1241 775 -1147 
L 775 -588 
Q 1028 -725 1275 -790 
Q 1522 -856 1778 -856 
Q 2344 -856 2625 -561 
Q 2906 -266 2906 331 
L 2906 616 
Q 2728 306 2450 153 
Q 2172 0 1784 0 
Q 1141 0 747 490 
Q 353 981 353 1791 
Q 353 2603 747 3093 
Q 1141 3584 1784 3584 
Q 2172 3584 2450 3431 
Q 2728 3278 2906 2969 
L 2906 3500 
L 3481 3500 
L 3481 434 
z
" transform="scale(0.015625)"/>
        <path id="DejaVuSans-69" d="M 603 3500 
L 1178 3500 
L 1178 0 
L 603 0 
L 603 3500 
z
M 603 4863 
L 1178 4863 
L 1178 4134 
L 603 4134 
L 603 4863 
z
" transform="scale(0.015625)"/>
        <path id="DejaVuSans-63" d="M 3122 3366 
L 3122 2828 
Q 2878 2963 2633 3030 
Q 2388 3097 2138 3097 
Q 1578 3097 1268 2742 
Q 959 2388 959 1747 
Q 959 1106 1268 751 
Q 1578 397 2138 397 
Q 2388 397 2633 464 
Q 2878 531 3122 666 
L 3122 134 
Q 2881 22 2623 -34 
Q 2366 -91 2075 -91 
Q 1284 -91 818 406 
Q 353 903 353 1747 
Q 353 2603 823 3093 
Q 1294 3584 2113 3584 
Q 2378 3584 2631 3529 
Q 2884 3475 3122 3366 
z
" transform="scale(0.015625)"/>
       </defs>
       <use xlink:href="#DejaVuSans-4c"/>
       <use xlink:href="#DejaVuSans-6f" x="53.962891"/>
       <use xlink:href="#DejaVuSans-67" x="115.144531"/>
       <use xlink:href="#DejaVuSans-69" x="178.621094"/>
       <use xlink:href="#DejaVuSans-73" x="206.404297"/>
       <use xlink:href="#DejaVuSans-74" x="258.503906"/>
       <use xlink:href="#DejaVuSans-69" x="297.712891"/>
       <use xlink:href="#DejaVuSans-63" x="325.496094"/>
       <use xlink:href="#DejaVuSans-52" x="380.476562"/>
       <use xlink:href="#DejaVuSans-65" x="445.458984"/>
       <use xlink:href="#DejaVuSans-67" x="506.982422"/>
       <use xlink:href="#DejaVuSans-72" x="570.458984"/>
       <use xlink:href="#DejaVuSans-65" x="609.322266"/>
       <use xlink:href="#DejaVuSans-73" x="670.845703"/>
       <use xlink:href="#DejaVuSans-73" x="722.945312"/>
       <use xlink:href="#DejaVuSans-69" x="775.044922"/>
       <use xlink:href="#DejaVuSans-6f" x="802.828125"/>
       <use xlink:href="#DejaVuSans-6e" x="864.009766"/>
       <use xlink:href="#DejaVuSans-2d" x="927.388672"/>
       <use xlink:href="#DejaVuSans-34" x="963.472656"/>
      </g>
     </g>
    </g>
    <g id="xtick_6">
     <g id="line2d_6">
      <g>
       <use xlink:href="#m6d64c2cbd1" x="269.37775" y="463.359348" style="stroke: #000000; stroke-width: 0.8"/>
      </g>
     </g>
     <g id="text_6">
      <!-- RandomForest-3 -->
      <g transform="translate(209.893497 533.745946) rotate(-45) scale(0.1 -0.1)">
       <use xlink:href="#DejaVuSans-52"/>
       <use xlink:href="#DejaVuSans-61" x="67.232422"/>
       <use xlink:href="#DejaVuSans-6e" x="128.511719"/>
       <use xlink:href="#DejaVuSans-64" x="191.890625"/>
       <use xlink:href="#DejaVuSans-6f" x="255.367188"/>
       <use xlink:href="#DejaVuSans-6d" x="316.548828"/>
       <use xlink:href="#DejaVuSans-46" x="413.960938"/>
       <use xlink:href="#DejaVuSans-6f" x="467.855469"/>
       <use xlink:href="#DejaVuSans-72" x="529.037109"/>
       <use xlink:href="#DejaVuSans-65" x="567.900391"/>
       <use xlink:href="#DejaVuSans-73" x="629.423828"/>
       <use xlink:href="#DejaVuSans-74" x="681.523438"/>
       <use xlink:href="#DejaVuSans-2d" x="720.732422"/>
       <use xlink:href="#DejaVuSans-33" x="756.816406"/>
      </g>
     </g>
    </g>
    <g id="xtick_7">
     <g id="line2d_7">
      <g>
       <use xlink:href="#m6d64c2cbd1" x="309.54825" y="463.359348" style="stroke: #000000; stroke-width: 0.8"/>
      </g>
     </g>
     <g id="text_7">
      <!-- KNeighbors-3 -->
      <g transform="translate(260.408748 523.401195) rotate(-45) scale(0.1 -0.1)">
       <defs>
        <path id="DejaVuSans-4b" d="M 628 4666 
L 1259 4666 
L 1259 2694 
L 3353 4666 
L 4166 4666 
L 1850 2491 
L 4331 0 
L 3500 0 
L 1259 2247 
L 1259 0 
L 628 0 
L 628 4666 
z
" transform="scale(0.015625)"/>
        <path id="DejaVuSans-68" d="M 3513 2113 
L 3513 0 
L 2938 0 
L 2938 2094 
Q 2938 2591 2744 2837 
Q 2550 3084 2163 3084 
Q 1697 3084 1428 2787 
Q 1159 2491 1159 1978 
L 1159 0 
L 581 0 
L 581 4863 
L 1159 4863 
L 1159 2956 
Q 1366 3272 1645 3428 
Q 1925 3584 2291 3584 
Q 2894 3584 3203 3211 
Q 3513 2838 3513 2113 
z
" transform="scale(0.015625)"/>
        <path id="DejaVuSans-62" d="M 3116 1747 
Q 3116 2381 2855 2742 
Q 2594 3103 2138 3103 
Q 1681 3103 1420 2742 
Q 1159 2381 1159 1747 
Q 1159 1113 1420 752 
Q 1681 391 2138 391 
Q 2594 391 2855 752 
Q 3116 1113 3116 1747 
z
M 1159 2969 
Q 1341 3281 1617 3432 
Q 1894 3584 2278 3584 
Q 2916 3584 3314 3078 
Q 3713 2572 3713 1747 
Q 3713 922 3314 415 
Q 2916 -91 2278 -91 
Q 1894 -91 1617 61 
Q 1341 213 1159 525 
L 1159 0 
L 581 0 
L 581 4863 
L 1159 4863 
L 1159 2969 
z
" transform="scale(0.015625)"/>
       </defs>
       <use xlink:href="#DejaVuSans-4b"/>
       <use xlink:href="#DejaVuSans-4e" x="65.576172"/>
       <use xlink:href="#DejaVuSans-65" x="140.380859"/>
       <use xlink:href="#DejaVuSans-69" x="201.904297"/>
       <use xlink:href="#DejaVuSans-67" x="229.6875"/>
       <use xlink:href="#DejaVuSans-68" x="293.164062"/>
       <use xlink:href="#DejaVuSans-62" x="356.542969"/>
       <use xlink:href="#DejaVuSans-6f" x="420.019531"/>
       <use xlink:href="#DejaVuSans-72" x="481.201172"/>
       <use xlink:href="#DejaVuSans-73" x="522.314453"/>
       <use xlink:href="#DejaVuSans-2d" x="574.414062"/>
       <use xlink:href="#DejaVuSans-33" x="610.498047"/>
      </g>
     </g>
    </g>
    <g id="xtick_8">
     <g id="line2d_8">
      <g>
       <use xlink:href="#m6d64c2cbd1" x="349.71875" y="463.359348" style="stroke: #000000; stroke-width: 0.8"/>
      </g>
     </g>
     <g id="text_8">
      <!-- SVC-4 -->
      <g transform="translate(326.934444 497.045999) rotate(-45) scale(0.1 -0.1)">
       <defs>
        <path id="DejaVuSans-53" d="M 3425 4513 
L 3425 3897 
Q 3066 4069 2747 4153 
Q 2428 4238 2131 4238 
Q 1616 4238 1336 4038 
Q 1056 3838 1056 3469 
Q 1056 3159 1242 3001 
Q 1428 2844 1947 2747 
L 2328 2669 
Q 3034 2534 3370 2195 
Q 3706 1856 3706 1288 
Q 3706 609 3251 259 
Q 2797 -91 1919 -91 
Q 1588 -91 1214 -16 
Q 841 59 441 206 
L 441 856 
Q 825 641 1194 531 
Q 1563 422 1919 422 
Q 2459 422 2753 634 
Q 3047 847 3047 1241 
Q 3047 1584 2836 1778 
Q 2625 1972 2144 2069 
L 1759 2144 
Q 1053 2284 737 2584 
Q 422 2884 422 3419 
Q 422 4038 858 4394 
Q 1294 4750 2059 4750 
Q 2388 4750 2728 4690 
Q 3069 4631 3425 4513 
z
" transform="scale(0.015625)"/>
        <path id="DejaVuSans-56" d="M 1831 0 
L 50 4666 
L 709 4666 
L 2188 738 
L 3669 4666 
L 4325 4666 
L 2547 0 
L 1831 0 
z
" transform="scale(0.015625)"/>
       </defs>
       <use xlink:href="#DejaVuSans-53"/>
       <use xlink:href="#DejaVuSans-56" x="63.476562"/>
       <use xlink:href="#DejaVuSans-43" x="131.884766"/>
       <use xlink:href="#DejaVuSans-2d" x="201.708984"/>
       <use xlink:href="#DejaVuSans-34" x="237.792969"/>
      </g>
     </g>
    </g>
    <g id="xtick_9">
     <g id="line2d_9">
      <g>
       <use xlink:href="#m6d64c2cbd1" x="389.88925" y="463.359348" style="stroke: #000000; stroke-width: 0.8"/>
      </g>
     </g>
     <g id="text_9">
      <!-- SVC-1 -->
      <g transform="translate(367.104944 497.045999) rotate(-45) scale(0.1 -0.1)">
       <use xlink:href="#DejaVuSans-53"/>
       <use xlink:href="#DejaVuSans-56" x="63.476562"/>
       <use xlink:href="#DejaVuSans-43" x="131.884766"/>
       <use xlink:href="#DejaVuSans-2d" x="201.708984"/>
       <use xlink:href="#DejaVuSans-31" x="237.792969"/>
      </g>
     </g>
    </g>
    <g id="xtick_10">
     <g id="line2d_10">
      <g>
       <use xlink:href="#m6d64c2cbd1" x="430.05975" y="463.359348" style="stroke: #000000; stroke-width: 0.8"/>
      </g>
     </g>
     <g id="text_10">
      <!-- KNeighbors-2 -->
      <g transform="translate(380.920248 523.401195) rotate(-45) scale(0.1 -0.1)">
       <use xlink:href="#DejaVuSans-4b"/>
       <use xlink:href="#DejaVuSans-4e" x="65.576172"/>
       <use xlink:href="#DejaVuSans-65" x="140.380859"/>
       <use xlink:href="#DejaVuSans-69" x="201.904297"/>
       <use xlink:href="#DejaVuSans-67" x="229.6875"/>
       <use xlink:href="#DejaVuSans-68" x="293.164062"/>
       <use xlink:href="#DejaVuSans-62" x="356.542969"/>
       <use xlink:href="#DejaVuSans-6f" x="420.019531"/>
       <use xlink:href="#DejaVuSans-72" x="481.201172"/>
       <use xlink:href="#DejaVuSans-73" x="522.314453"/>
       <use xlink:href="#DejaVuSans-2d" x="574.414062"/>
       <use xlink:href="#DejaVuSans-32" x="610.498047"/>
      </g>
     </g>
    </g>
    <g id="xtick_11">
     <g id="line2d_11">
      <g>
       <use xlink:href="#m6d64c2cbd1" x="470.23025" y="463.359348" style="stroke: #000000; stroke-width: 0.8"/>
      </g>
     </g>
     <g id="text_11">
      <!-- RandomForest-2 -->
      <g transform="translate(410.745997 533.745946) rotate(-45) scale(0.1 -0.1)">
       <use xlink:href="#DejaVuSans-52"/>
       <use xlink:href="#DejaVuSans-61" x="67.232422"/>
       <use xlink:href="#DejaVuSans-6e" x="128.511719"/>
       <use xlink:href="#DejaVuSans-64" x="191.890625"/>
       <use xlink:href="#DejaVuSans-6f" x="255.367188"/>
       <use xlink:href="#DejaVuSans-6d" x="316.548828"/>
       <use xlink:href="#DejaVuSans-46" x="413.960938"/>
       <use xlink:href="#DejaVuSans-6f" x="467.855469"/>
       <use xlink:href="#DejaVuSans-72" x="529.037109"/>
       <use xlink:href="#DejaVuSans-65" x="567.900391"/>
       <use xlink:href="#DejaVuSans-73" x="629.423828"/>
       <use xlink:href="#DejaVuSans-74" x="681.523438"/>
       <use xlink:href="#DejaVuSans-2d" x="720.732422"/>
       <use xlink:href="#DejaVuSans-32" x="756.816406"/>
      </g>
     </g>
    </g>
    <g id="xtick_12">
     <g id="line2d_12">
      <g>
       <use xlink:href="#m6d64c2cbd1" x="510.40075" y="463.359348" style="stroke: #000000; stroke-width: 0.8"/>
      </g>
     </g>
     <g id="text_12">
      <!-- SVC-3 -->
      <g transform="translate(487.616444 497.045999) rotate(-45) scale(0.1 -0.1)">
       <use xlink:href="#DejaVuSans-53"/>
       <use xlink:href="#DejaVuSans-56" x="63.476562"/>
       <use xlink:href="#DejaVuSans-43" x="131.884766"/>
       <use xlink:href="#DejaVuSans-2d" x="201.708984"/>
       <use xlink:href="#DejaVuSans-33" x="237.792969"/>
      </g>
     </g>
    </g>
    <g id="xtick_13">
     <g id="line2d_13">
      <g>
       <use xlink:href="#m6d64c2cbd1" x="550.57125" y="463.359348" style="stroke: #000000; stroke-width: 0.8"/>
      </g>
     </g>
     <g id="text_13">
      <!-- LogisticRegression-3 -->
      <g transform="translate(476.473088 548.359855) rotate(-45) scale(0.1 -0.1)">
       <use xlink:href="#DejaVuSans-4c"/>
       <use xlink:href="#DejaVuSans-6f" x="53.962891"/>
       <use xlink:href="#DejaVuSans-67" x="115.144531"/>
       <use xlink:href="#DejaVuSans-69" x="178.621094"/>
       <use xlink:href="#DejaVuSans-73" x="206.404297"/>
       <use xlink:href="#DejaVuSans-74" x="258.503906"/>
       <use xlink:href="#DejaVuSans-69" x="297.712891"/>
       <use xlink:href="#DejaVuSans-63" x="325.496094"/>
       <use xlink:href="#DejaVuSans-52" x="380.476562"/>
       <use xlink:href="#DejaVuSans-65" x="445.458984"/>
       <use xlink:href="#DejaVuSans-67" x="506.982422"/>
       <use xlink:href="#DejaVuSans-72" x="570.458984"/>
       <use xlink:href="#DejaVuSans-65" x="609.322266"/>
       <use xlink:href="#DejaVuSans-73" x="670.845703"/>
       <use xlink:href="#DejaVuSans-73" x="722.945312"/>
       <use xlink:href="#DejaVuSans-69" x="775.044922"/>
       <use xlink:href="#DejaVuSans-6f" x="802.828125"/>
       <use xlink:href="#DejaVuSans-6e" x="864.009766"/>
       <use xlink:href="#DejaVuSans-2d" x="927.388672"/>
       <use xlink:href="#DejaVuSans-33" x="963.472656"/>
      </g>
     </g>
    </g>
    <g id="xtick_14">
     <g id="line2d_14">
      <g>
       <use xlink:href="#m6d64c2cbd1" x="590.74175" y="463.359348" style="stroke: #000000; stroke-width: 0.8"/>
      </g>
     </g>
     <g id="text_14">
      <!-- LogisticRegression-1 -->
      <g transform="translate(516.643588 548.359855) rotate(-45) scale(0.1 -0.1)">
       <use xlink:href="#DejaVuSans-4c"/>
       <use xlink:href="#DejaVuSans-6f" x="53.962891"/>
       <use xlink:href="#DejaVuSans-67" x="115.144531"/>
       <use xlink:href="#DejaVuSans-69" x="178.621094"/>
       <use xlink:href="#DejaVuSans-73" x="206.404297"/>
       <use xlink:href="#DejaVuSans-74" x="258.503906"/>
       <use xlink:href="#DejaVuSans-69" x="297.712891"/>
       <use xlink:href="#DejaVuSans-63" x="325.496094"/>
       <use xlink:href="#DejaVuSans-52" x="380.476562"/>
       <use xlink:href="#DejaVuSans-65" x="445.458984"/>
       <use xlink:href="#DejaVuSans-67" x="506.982422"/>
       <use xlink:href="#DejaVuSans-72" x="570.458984"/>
       <use xlink:href="#DejaVuSans-65" x="609.322266"/>
       <use xlink:href="#DejaVuSans-73" x="670.845703"/>
       <use xlink:href="#DejaVuSans-73" x="722.945312"/>
       <use xlink:href="#DejaVuSans-69" x="775.044922"/>
       <use xlink:href="#DejaVuSans-6f" x="802.828125"/>
       <use xlink:href="#DejaVuSans-6e" x="864.009766"/>
       <use xlink:href="#DejaVuSans-2d" x="927.388672"/>
       <use xlink:href="#DejaVuSans-31" x="963.472656"/>
      </g>
     </g>
    </g>
    <g id="xtick_15">
     <g id="line2d_15">
      <g>
       <use xlink:href="#m6d64c2cbd1" x="630.91225" y="463.359348" style="stroke: #000000; stroke-width: 0.8"/>
      </g>
     </g>
     <g id="text_15">
      <!-- LogisticRegression-2 -->
      <g transform="translate(556.814088 548.359855) rotate(-45) scale(0.1 -0.1)">
       <use xlink:href="#DejaVuSans-4c"/>
       <use xlink:href="#DejaVuSans-6f" x="53.962891"/>
       <use xlink:href="#DejaVuSans-67" x="115.144531"/>
       <use xlink:href="#DejaVuSans-69" x="178.621094"/>
       <use xlink:href="#DejaVuSans-73" x="206.404297"/>
       <use xlink:href="#DejaVuSans-74" x="258.503906"/>
       <use xlink:href="#DejaVuSans-69" x="297.712891"/>
       <use xlink:href="#DejaVuSans-63" x="325.496094"/>
       <use xlink:href="#DejaVuSans-52" x="380.476562"/>
       <use xlink:href="#DejaVuSans-65" x="445.458984"/>
       <use xlink:href="#DejaVuSans-67" x="506.982422"/>
       <use xlink:href="#DejaVuSans-72" x="570.458984"/>
       <use xlink:href="#DejaVuSans-65" x="609.322266"/>
       <use xlink:href="#DejaVuSans-73" x="670.845703"/>
       <use xlink:href="#DejaVuSans-73" x="722.945312"/>
       <use xlink:href="#DejaVuSans-69" x="775.044922"/>
       <use xlink:href="#DejaVuSans-6f" x="802.828125"/>
       <use xlink:href="#DejaVuSans-6e" x="864.009766"/>
       <use xlink:href="#DejaVuSans-2d" x="927.388672"/>
       <use xlink:href="#DejaVuSans-32" x="963.472656"/>
      </g>
     </g>
    </g>
    <g id="xtick_16">
     <g id="line2d_16">
      <g>
       <use xlink:href="#m6d64c2cbd1" x="671.08275" y="463.359348" style="stroke: #000000; stroke-width: 0.8"/>
      </g>
     </g>
     <g id="text_16">
      <!-- SVC-2 -->
      <g transform="translate(648.298444 497.045999) rotate(-45) scale(0.1 -0.1)">
       <use xlink:href="#DejaVuSans-53"/>
       <use xlink:href="#DejaVuSans-56" x="63.476562"/>
       <use xlink:href="#DejaVuSans-43" x="131.884766"/>
       <use xlink:href="#DejaVuSans-2d" x="201.708984"/>
       <use xlink:href="#DejaVuSans-32" x="237.792969"/>
      </g>
     </g>
    </g>
    <g id="xtick_17">
     <g id="line2d_17">
      <g>
       <use xlink:href="#m6d64c2cbd1" x="711.25325" y="463.359348" style="stroke: #000000; stroke-width: 0.8"/>
      </g>
     </g>
     <g id="text_17">
      <!-- KNeighbors-1 -->
      <g transform="translate(662.113748 523.401195) rotate(-45) scale(0.1 -0.1)">
       <use xlink:href="#DejaVuSans-4b"/>
       <use xlink:href="#DejaVuSans-4e" x="65.576172"/>
       <use xlink:href="#DejaVuSans-65" x="140.380859"/>
       <use xlink:href="#DejaVuSans-69" x="201.904297"/>
       <use xlink:href="#DejaVuSans-67" x="229.6875"/>
       <use xlink:href="#DejaVuSans-68" x="293.164062"/>
       <use xlink:href="#DejaVuSans-62" x="356.542969"/>
       <use xlink:href="#DejaVuSans-6f" x="420.019531"/>
       <use xlink:href="#DejaVuSans-72" x="481.201172"/>
       <use xlink:href="#DejaVuSans-73" x="522.314453"/>
       <use xlink:href="#DejaVuSans-2d" x="574.414062"/>
       <use xlink:href="#DejaVuSans-31" x="610.498047"/>
      </g>
     </g>
    </g>
    <g id="xtick_18">
     <g id="line2d_18">
      <g>
       <use xlink:href="#m6d64c2cbd1" x="751.42375" y="463.359348" style="stroke: #000000; stroke-width: 0.8"/>
      </g>
     </g>
     <g id="text_18">
      <!-- KNeighbors-4 -->
      <g transform="translate(702.284248 523.401195) rotate(-45) scale(0.1 -0.1)">
       <use xlink:href="#DejaVuSans-4b"/>
       <use xlink:href="#DejaVuSans-4e" x="65.576172"/>
       <use xlink:href="#DejaVuSans-65" x="140.380859"/>
       <use xlink:href="#DejaVuSans-69" x="201.904297"/>
       <use xlink:href="#DejaVuSans-67" x="229.6875"/>
       <use xlink:href="#DejaVuSans-68" x="293.164062"/>
       <use xlink:href="#DejaVuSans-62" x="356.542969"/>
       <use xlink:href="#DejaVuSans-6f" x="420.019531"/>
       <use xlink:href="#DejaVuSans-72" x="481.201172"/>
       <use xlink:href="#DejaVuSans-73" x="522.314453"/>
       <use xlink:href="#DejaVuSans-2d" x="574.414062"/>
       <use xlink:href="#DejaVuSans-34" x="610.498047"/>
      </g>
     </g>
    </g>
    <g id="xtick_19">
     <g id="line2d_19">
      <g>
       <use xlink:href="#m6d64c2cbd1" x="791.59425" y="463.359348" style="stroke: #000000; stroke-width: 0.8"/>
      </g>
     </g>
     <g id="text_19">
      <!-- CNN-4 -->
      <g transform="translate(767.555934 498.300009) rotate(-45) scale(0.1 -0.1)">
       <use xlink:href="#DejaVuSans-43"/>
       <use xlink:href="#DejaVuSans-4e" x="69.824219"/>
       <use xlink:href="#DejaVuSans-4e" x="144.628906"/>
       <use xlink:href="#DejaVuSans-2d" x="219.433594"/>
       <use xlink:href="#DejaVuSans-34" x="255.517578"/>
      </g>
     </g>
    </g>
    <g id="xtick_20">
     <g id="line2d_20">
      <g>
       <use xlink:href="#m6d64c2cbd1" x="831.76475" y="463.359348" style="stroke: #000000; stroke-width: 0.8"/>
      </g>
     </g>
     <g id="text_20">
      <!-- CNN-1 -->
      <g transform="translate(807.726434 498.300009) rotate(-45) scale(0.1 -0.1)">
       <use xlink:href="#DejaVuSans-43"/>
       <use xlink:href="#DejaVuSans-4e" x="69.824219"/>
       <use xlink:href="#DejaVuSans-4e" x="144.628906"/>
       <use xlink:href="#DejaVuSans-2d" x="219.433594"/>
       <use xlink:href="#DejaVuSans-31" x="255.517578"/>
      </g>
     </g>
    </g>
    <g id="text_21">
     <!-- 模型-方法 -->
     <g transform="translate(417.745 562.626041) scale(0.12 -0.12)">
      <defs>
       <path id="MapleMonoNormalNL-NF-CN-Regular-6a21" d="M 2835 1107 
Q 2835 1197 2921 1264 
Q 3008 1331 3110 1331 
L 4416 1331 
Q 4454 1485 4474 1651 
Q 4493 1741 4576 1818 
Q 4582 1824 4589 1837 
L 3488 1837 
Q 3437 1837 3385 1859 
Q 3334 1882 3296 1920 
Q 3258 1958 3235 2009 
Q 3213 2061 3213 2112 
L 3213 3565 
Q 3213 3616 3235 3667 
Q 3258 3718 3296 3756 
Q 3334 3795 3385 3820 
Q 3437 3846 3488 3846 
L 6086 3846 
Q 6144 3846 6192 3820 
Q 6240 3795 6278 3756 
Q 6317 3718 6342 3667 
Q 6368 3616 6368 3565 
L 6368 2112 
Q 6368 2061 6342 2009 
Q 6317 1958 6278 1920 
Q 6240 1882 6192 1859 
Q 6144 1837 6086 1837 
L 4902 1837 
L 4934 1805 
Q 4973 1760 4989 1705 
Q 5005 1651 4998 1594 
Q 4979 1459 4947 1331 
L 6413 1331 
Q 6515 1331 6601 1264 
Q 6688 1197 6688 1107 
Q 6688 1069 6665 1027 
Q 6643 986 6604 954 
Q 6566 922 6515 902 
Q 6464 883 6413 883 
L 5318 883 
Q 5478 621 5728 422 
Q 6022 186 6432 51 
Q 6579 -13 6630 -131 
Q 6682 -250 6605 -365 
Q 6566 -422 6473 -454 
Q 6381 -486 6304 -448 
Q 5792 -282 5414 32 
Q 5037 346 4826 800 
Q 4813 819 4806 845 
Q 4698 557 4506 320 
Q 4294 64 3968 -131 
Q 3642 -326 3162 -467 
Q 3072 -493 2976 -457 
Q 2880 -422 2842 -365 
Q 2778 -256 2842 -150 
Q 2906 -45 3059 13 
Q 3430 122 3683 278 
Q 3936 435 4096 640 
Q 4186 755 4250 883 
L 3110 883 
Q 3059 883 3008 902 
Q 2957 922 2918 954 
Q 2880 986 2857 1027 
Q 2835 1069 2835 1107 
z
M 954 3910 
Q 954 3962 976 4006 
Q 998 4051 1036 4086 
Q 1075 4122 1126 4141 
Q 1178 4160 1229 4160 
L 1728 4160 
L 1728 5114 
Q 1728 5165 1750 5216 
Q 1773 5267 1808 5305 
Q 1843 5344 1891 5366 
Q 1939 5389 1987 5389 
Q 2035 5389 2080 5366 
Q 2125 5344 2160 5305 
Q 2195 5267 2217 5216 
Q 2240 5165 2240 5114 
L 2240 4160 
L 2611 4160 
Q 2662 4160 2710 4141 
Q 2758 4122 2800 4086 
Q 2842 4051 2864 4006 
Q 2886 3962 2886 3910 
Q 2886 3866 2864 3821 
Q 2842 3776 2800 3741 
Q 2758 3706 2710 3683 
Q 2662 3661 2611 3661 
L 2240 3661 
L 2240 3334 
Q 2317 3296 2374 3219 
Q 2432 3130 2502 3011 
Q 2573 2893 2649 2768 
Q 2726 2643 2793 2524 
Q 2861 2406 2906 2330 
Q 2950 2266 2947 2179 
Q 2944 2093 2899 2048 
Q 2861 1997 2806 1981 
Q 2752 1965 2697 1984 
Q 2643 2003 2595 2044 
Q 2547 2086 2515 2157 
Q 2470 2253 2409 2371 
Q 2349 2490 2291 2611 
Q 2266 2662 2240 2707 
L 2240 -237 
Q 2240 -294 2217 -342 
Q 2195 -390 2160 -428 
Q 2125 -467 2080 -492 
Q 2035 -518 1987 -518 
Q 1939 -518 1891 -492 
Q 1843 -467 1808 -428 
Q 1773 -390 1750 -342 
Q 1728 -294 1728 -237 
L 1728 2227 
Q 1638 1933 1530 1658 
Q 1427 1370 1312 1139 
Q 1280 1069 1229 1030 
Q 1178 992 1123 992 
Q 1069 992 1017 1024 
Q 966 1056 928 1126 
Q 890 1184 893 1283 
Q 896 1382 941 1446 
Q 1056 1638 1165 1881 
Q 1274 2125 1373 2397 
Q 1472 2669 1555 2953 
Q 1638 3238 1696 3514 
Q 1709 3565 1728 3603 
L 1728 3661 
L 1229 3661 
Q 1178 3661 1126 3683 
Q 1075 3706 1036 3741 
Q 998 3776 976 3821 
Q 954 3866 954 3910 
z
M 2963 4653 
Q 2963 4736 3049 4806 
Q 3136 4877 3245 4877 
L 3866 4877 
L 3866 5114 
Q 3866 5165 3888 5213 
Q 3910 5261 3945 5299 
Q 3981 5338 4025 5363 
Q 4070 5389 4121 5389 
Q 4173 5389 4217 5363 
Q 4262 5338 4297 5299 
Q 4333 5261 4352 5213 
Q 4371 5165 4371 5114 
L 4371 4877 
L 5312 4877 
L 5312 5114 
Q 5312 5165 5331 5213 
Q 5350 5261 5388 5299 
Q 5427 5338 5475 5363 
Q 5523 5389 5571 5389 
Q 5619 5389 5667 5363 
Q 5715 5338 5750 5299 
Q 5786 5261 5808 5213 
Q 5830 5165 5830 5114 
L 5830 4877 
L 6419 4877 
Q 6470 4877 6518 4857 
Q 6566 4838 6604 4809 
Q 6643 4781 6668 4739 
Q 6694 4698 6694 4653 
Q 6694 4608 6668 4569 
Q 6643 4531 6604 4496 
Q 6566 4461 6518 4441 
Q 6470 4422 6419 4422 
L 5830 4422 
L 5830 4237 
Q 5830 4186 5808 4138 
Q 5786 4090 5750 4051 
Q 5715 4013 5667 3987 
Q 5619 3962 5571 3962 
Q 5523 3962 5475 3987 
Q 5427 4013 5388 4051 
Q 5350 4090 5331 4138 
Q 5312 4186 5312 4237 
L 5312 4422 
L 4371 4422 
L 4371 4237 
Q 4371 4186 4352 4138 
Q 4333 4090 4297 4051 
Q 4262 4013 4217 3987 
Q 4173 3962 4121 3962 
Q 4070 3962 4025 3987 
Q 3981 4013 3945 4051 
Q 3910 4090 3888 4138 
Q 3866 4186 3866 4237 
L 3866 4422 
L 3245 4422 
Q 3187 4422 3139 4441 
Q 3091 4461 3049 4496 
Q 3008 4531 2985 4569 
Q 2963 4608 2963 4653 
z
M 3750 2656 
Q 3738 2656 3725 2643 
Q 3712 2630 3712 2611 
L 3712 2272 
Q 3712 2253 3725 2240 
Q 3738 2227 3750 2227 
L 5805 2227 
Q 5824 2227 5837 2240 
Q 5850 2253 5850 2272 
L 5850 2611 
Q 5850 2630 5837 2643 
Q 5824 2656 5805 2656 
L 3750 2656 
z
M 3750 3450 
Q 3738 3450 3725 3437 
Q 3712 3424 3712 3411 
L 3712 3072 
Q 3712 3059 3725 3046 
Q 3738 3034 3750 3034 
L 5805 3034 
Q 5824 3034 5837 3046 
Q 5850 3059 5850 3072 
L 5850 3411 
Q 5850 3424 5837 3437 
Q 5824 3450 5805 3450 
L 3750 3450 
z
" transform="scale(0.015625)"/>
       <path id="MapleMonoNormalNL-NF-CN-Regular-578b" d="M 1267 4896 
Q 1267 4947 1292 4988 
Q 1318 5030 1356 5062 
Q 1395 5094 1443 5113 
Q 1491 5133 1542 5133 
L 3891 5133 
Q 3942 5133 3990 5113 
Q 4038 5094 4080 5062 
Q 4122 5030 4144 4988 
Q 4166 4947 4166 4899 
Q 4166 4851 4144 4809 
Q 4122 4768 4080 4733 
Q 4038 4698 3990 4678 
Q 3942 4659 3891 4659 
L 3597 4659 
L 3597 3821 
L 4026 3821 
Q 4077 3821 4128 3801 
Q 4179 3782 4217 3747 
Q 4256 3712 4278 3670 
Q 4301 3629 4301 3584 
Q 4301 3539 4278 3494 
Q 4256 3450 4217 3414 
Q 4179 3379 4128 3360 
Q 4077 3341 4026 3341 
L 3597 3341 
L 3597 2272 
Q 3597 2221 3574 2169 
Q 3552 2118 3517 2080 
Q 3482 2042 3440 2019 
Q 3398 1997 3347 1997 
Q 3302 1997 3257 2019 
Q 3213 2042 3174 2080 
Q 3136 2118 3117 2169 
Q 3098 2221 3098 2272 
L 3098 3341 
L 2317 3341 
Q 2285 3098 2202 2861 
Q 2112 2618 1955 2390 
Q 1798 2163 1549 1965 
Q 1510 1939 1462 1926 
Q 1414 1914 1369 1917 
Q 1325 1920 1283 1936 
Q 1242 1952 1216 1984 
Q 1133 2074 1168 2202 
Q 1203 2330 1306 2432 
Q 1485 2592 1590 2755 
Q 1696 2918 1754 3091 
Q 1798 3213 1818 3341 
L 1338 3341 
Q 1286 3341 1235 3360 
Q 1184 3379 1142 3414 
Q 1101 3450 1078 3494 
Q 1056 3539 1056 3584 
Q 1056 3629 1078 3670 
Q 1101 3712 1142 3747 
Q 1184 3782 1235 3801 
Q 1286 3821 1338 3821 
L 1856 3821 
L 1856 4659 
L 1542 4659 
Q 1491 4659 1443 4678 
Q 1395 4698 1356 4733 
Q 1318 4768 1292 4809 
Q 1267 4851 1267 4896 
z
M 941 -51 
Q 941 -6 963 38 
Q 986 83 1027 118 
Q 1069 154 1120 176 
Q 1171 198 1216 198 
L 3597 198 
L 3597 954 
L 1888 954 
Q 1830 954 1779 973 
Q 1728 992 1689 1027 
Q 1651 1062 1628 1107 
Q 1606 1152 1606 1200 
Q 1606 1248 1628 1289 
Q 1651 1331 1689 1366 
Q 1728 1402 1779 1421 
Q 1830 1440 1888 1440 
L 3597 1440 
L 3597 1837 
Q 3597 1888 3616 1939 
Q 3635 1990 3676 2028 
Q 3718 2067 3763 2089 
Q 3808 2112 3866 2112 
L 3872 2112 
Q 3930 2112 3974 2089 
Q 4019 2067 4057 2028 
Q 4096 1990 4118 1939 
Q 4141 1888 4141 1837 
L 4141 1440 
L 5786 1440 
Q 5843 1440 5894 1421 
Q 5946 1402 5984 1366 
Q 6022 1331 6044 1289 
Q 6067 1248 6067 1200 
Q 6067 1152 6044 1107 
Q 6022 1062 5984 1027 
Q 5946 992 5894 973 
Q 5843 954 5786 954 
L 4141 954 
L 4141 198 
L 6458 198 
Q 6509 198 6557 176 
Q 6605 154 6646 118 
Q 6688 83 6710 38 
Q 6733 -6 6733 -51 
Q 6733 -96 6710 -141 
Q 6688 -186 6646 -224 
Q 6605 -262 6557 -281 
Q 6509 -301 6458 -301 
L 1216 -301 
Q 1171 -301 1120 -281 
Q 1069 -262 1027 -224 
Q 986 -186 963 -141 
Q 941 -96 941 -51 
z
M 5862 5069 
Q 5862 5120 5884 5168 
Q 5907 5216 5945 5254 
Q 5984 5293 6029 5318 
Q 6074 5344 6122 5344 
Q 6170 5344 6218 5318 
Q 6266 5293 6301 5254 
Q 6336 5216 6355 5168 
Q 6374 5120 6374 5062 
L 6374 2502 
Q 6374 2285 6323 2176 
Q 6272 2067 6118 1997 
Q 5997 1952 5814 1936 
Q 5632 1920 5370 1914 
Q 5286 1914 5206 1968 
Q 5126 2022 5101 2086 
Q 5062 2208 5142 2297 
Q 5222 2387 5376 2394 
Q 5517 2387 5590 2387 
Q 5664 2387 5741 2393 
Q 5818 2400 5840 2419 
Q 5862 2438 5862 2509 
L 5862 5069 
z
M 4678 4749 
Q 4678 4800 4697 4848 
Q 4717 4896 4752 4937 
Q 4787 4979 4832 5001 
Q 4877 5024 4925 5024 
Q 4973 5024 5014 5001 
Q 5056 4979 5091 4937 
Q 5126 4896 5148 4848 
Q 5171 4800 5171 4749 
L 5171 3149 
Q 5171 3098 5148 3046 
Q 5126 2995 5091 2956 
Q 5056 2918 5014 2896 
Q 4973 2874 4925 2874 
Q 4877 2874 4832 2896 
Q 4787 2918 4752 2956 
Q 4717 2995 4697 3046 
Q 4678 3098 4678 3149 
L 4678 4749 
z
M 2349 3821 
L 3098 3821 
L 3098 4659 
L 2349 4659 
L 2349 3821 
z
" transform="scale(0.015625)"/>
       <path id="MapleMonoNormalNL-NF-CN-Regular-2d" d="M 768 1824 
Q 621 1824 550 1894 
Q 480 1965 480 2112 
Q 480 2259 550 2329 
Q 621 2400 768 2400 
L 3072 2400 
Q 3219 2400 3289 2329 
Q 3360 2259 3360 2112 
Q 3360 1965 3289 1894 
Q 3219 1824 3072 1824 
L 768 1824 
z
" transform="scale(0.015625)"/>
       <path id="MapleMonoNormalNL-NF-CN-Regular-65b9" d="M 1056 4038 
Q 1056 4090 1078 4134 
Q 1101 4179 1139 4214 
Q 1178 4250 1229 4272 
Q 1280 4294 1331 4294 
L 6374 4294 
Q 6419 4294 6470 4272 
Q 6522 4250 6560 4214 
Q 6598 4179 6620 4134 
Q 6643 4090 6643 4038 
Q 6643 3987 6620 3942 
Q 6598 3898 6560 3859 
Q 6522 3821 6470 3798 
Q 6419 3776 6374 3776 
L 3354 3776 
Q 3366 3731 3366 3693 
Q 3334 3245 3283 2784 
Q 3322 2797 3354 2797 
L 5754 2797 
Q 5811 2797 5859 2774 
Q 5907 2752 5945 2713 
Q 5984 2675 6009 2630 
Q 6035 2586 6035 2538 
Q 6035 2490 6010 2445 
L 6010 2438 
Q 5965 1824 5920 1382 
Q 5869 902 5808 579 
Q 5747 256 5673 67 
Q 5600 -122 5504 -211 
Q 5382 -346 5248 -390 
Q 5114 -435 4922 -454 
Q 4787 -461 4566 -461 
Q 4346 -461 4083 -442 
Q 3987 -442 3904 -378 
Q 3821 -314 3802 -243 
Q 3763 -109 3846 -19 
Q 3930 70 4102 64 
Q 4205 58 4291 54 
Q 4378 51 4451 48 
Q 4525 45 4595 45 
L 4730 45 
Q 4832 45 4902 57 
Q 4973 70 5037 122 
Q 5107 186 5171 362 
Q 5235 538 5289 848 
Q 5344 1158 5389 1613 
Q 5421 1907 5446 2278 
L 3354 2278 
Q 3302 2278 3258 2298 
Q 3238 2310 3219 2317 
Q 3136 1856 2982 1421 
Q 2790 883 2448 416 
Q 2106 -51 1542 -397 
Q 1498 -422 1446 -432 
Q 1395 -442 1344 -435 
Q 1293 -429 1251 -406 
Q 1210 -384 1178 -352 
Q 1088 -250 1113 -118 
Q 1139 13 1254 102 
Q 1741 410 2029 829 
Q 2317 1248 2477 1725 
Q 2637 2202 2694 2710 
Q 2752 3219 2778 3712 
Q 2778 3744 2790 3776 
L 1331 3776 
Q 1280 3776 1229 3798 
Q 1178 3821 1139 3859 
Q 1101 3898 1078 3942 
Q 1056 3987 1056 4038 
z
M 3565 4960 
Q 3539 5011 3536 5072 
Q 3533 5133 3555 5184 
Q 3578 5235 3610 5280 
Q 3642 5325 3699 5344 
L 3744 5363 
Q 3821 5389 3920 5350 
Q 4019 5312 4058 5242 
Q 4128 5114 4192 4979 
Q 4256 4845 4301 4736 
Q 4326 4685 4326 4637 
Q 4326 4589 4307 4537 
Q 4288 4486 4253 4444 
Q 4218 4403 4173 4384 
L 4141 4378 
Q 4090 4352 4032 4358 
Q 3974 4365 3920 4387 
Q 3866 4410 3821 4448 
Q 3776 4486 3757 4544 
Q 3718 4634 3667 4746 
Q 3616 4858 3565 4960 
z
" transform="scale(0.015625)"/>
       <path id="MapleMonoNormalNL-NF-CN-Regular-6cd5" d="M 4442 5114 
Q 4442 5165 4464 5216 
Q 4486 5267 4524 5305 
Q 4563 5344 4611 5366 
Q 4659 5389 4710 5389 
L 4723 5389 
Q 4774 5389 4819 5366 
Q 4864 5344 4902 5305 
Q 4941 5267 4963 5216 
Q 4986 5165 4986 5114 
L 4986 4314 
L 6112 4314 
Q 6163 4314 6214 4294 
Q 6266 4275 6304 4240 
Q 6342 4205 6364 4160 
Q 6387 4115 6387 4064 
Q 6387 4013 6364 3968 
Q 6342 3923 6304 3884 
Q 6266 3846 6214 3827 
Q 6163 3808 6112 3808 
L 4986 3808 
L 4986 2701 
L 6362 2701 
Q 6419 2701 6467 2678 
Q 6515 2656 6556 2621 
Q 6598 2586 6620 2541 
Q 6643 2496 6643 2448 
Q 6643 2400 6620 2355 
Q 6598 2310 6556 2272 
Q 6515 2234 6467 2214 
Q 6419 2195 6362 2195 
L 4838 2195 
Q 4832 2163 4819 2131 
Q 4531 1542 4192 992 
Q 3974 634 3750 333 
L 5664 550 
L 5677 550 
L 5549 755 
Q 5434 922 5325 1075 
Q 5286 1126 5276 1187 
Q 5267 1248 5280 1302 
Q 5293 1357 5321 1398 
Q 5350 1440 5395 1466 
Q 5466 1498 5558 1469 
Q 5651 1440 5702 1370 
Q 5830 1203 5961 1017 
Q 6093 832 6211 643 
Q 6330 454 6429 275 
Q 6528 96 6605 -58 
Q 6624 -102 6621 -147 
Q 6618 -192 6602 -237 
Q 6586 -282 6557 -320 
Q 6528 -358 6496 -378 
Q 6445 -403 6384 -400 
Q 6323 -397 6268 -374 
Q 6214 -352 6169 -307 
Q 6125 -262 6099 -205 
Q 6035 -64 5946 96 
L 5907 173 
Q 5824 96 5715 77 
Q 5197 13 4822 -35 
Q 4448 -83 4189 -118 
Q 3930 -154 3766 -176 
Q 3603 -198 3494 -218 
Q 3430 -230 3360 -220 
Q 3290 -211 3238 -186 
Q 3213 -173 3194 -160 
L 3187 -154 
Q 3078 -134 3040 -26 
Q 3021 19 3030 80 
Q 3040 141 3062 201 
Q 3085 262 3120 320 
Q 3155 378 3187 429 
Q 3206 448 3209 448 
Q 3213 448 3225 461 
Q 3238 474 3267 512 
Q 3296 550 3354 640 
Q 3411 717 3516 883 
Q 3622 1050 3750 1274 
Q 3878 1498 4013 1766 
Q 4122 1978 4218 2195 
L 3091 2195 
Q 3040 2195 2989 2214 
Q 2938 2234 2899 2272 
Q 2861 2310 2835 2355 
Q 2810 2400 2810 2448 
Q 2810 2496 2835 2541 
Q 2861 2586 2899 2621 
Q 2938 2656 2989 2678 
Q 3040 2701 3091 2701 
L 4442 2701 
L 4442 3808 
L 3366 3808 
Q 3315 3808 3264 3827 
Q 3213 3846 3174 3884 
Q 3136 3923 3113 3968 
Q 3091 4013 3091 4064 
Q 3091 4115 3113 4160 
Q 3136 4205 3174 4240 
Q 3213 4275 3264 4294 
Q 3315 4314 3366 4314 
L 4442 4314 
L 4442 5114 
z
M 1318 -237 
Q 1280 -211 1257 -163 
Q 1235 -115 1225 -64 
Q 1216 -13 1229 41 
Q 1242 96 1261 134 
Q 1370 288 1485 473 
Q 1600 659 1715 857 
Q 1830 1056 1948 1261 
Q 2067 1466 2176 1670 
Q 2202 1728 2253 1763 
Q 2304 1798 2361 1811 
Q 2419 1824 2476 1811 
Q 2534 1798 2579 1754 
L 2586 1754 
Q 2637 1702 2653 1603 
Q 2669 1504 2637 1440 
Q 2534 1242 2422 1030 
Q 2310 819 2192 611 
Q 2074 403 1955 201 
Q 1837 0 1728 -179 
Q 1702 -224 1654 -256 
Q 1606 -288 1548 -297 
Q 1491 -307 1436 -297 
Q 1382 -288 1331 -250 
L 1318 -237 
z
M 1555 4774 
Q 1498 4806 1459 4854 
Q 1421 4902 1405 4956 
Q 1389 5011 1395 5072 
Q 1402 5133 1434 5171 
Q 1478 5229 1571 5251 
Q 1664 5274 1728 5242 
Q 1946 5146 2163 5027 
Q 2381 4909 2554 4800 
Q 2592 4774 2617 4729 
Q 2643 4685 2652 4637 
Q 2662 4589 2656 4541 
Q 2650 4493 2624 4448 
Q 2592 4403 2544 4377 
Q 2496 4352 2435 4345 
Q 2374 4339 2313 4352 
Q 2253 4365 2208 4397 
Q 2074 4486 1901 4588 
Q 1728 4691 1555 4774 
z
M 1203 3046 
Q 1146 3078 1107 3123 
Q 1069 3168 1049 3225 
Q 1030 3283 1040 3337 
Q 1050 3392 1082 3443 
Q 1120 3501 1213 3526 
Q 1306 3552 1376 3520 
Q 1587 3424 1798 3309 
Q 2010 3194 2170 3085 
Q 2208 3059 2237 3017 
Q 2266 2976 2275 2928 
Q 2285 2880 2281 2832 
Q 2278 2784 2246 2746 
Q 2221 2694 2169 2665 
Q 2118 2637 2057 2630 
Q 1997 2624 1939 2633 
Q 1882 2643 1837 2675 
Q 1702 2765 1536 2864 
Q 1370 2963 1203 3046 
z
" transform="scale(0.015625)"/>
      </defs>
      <use xlink:href="#MapleMonoNormalNL-NF-CN-Regular-6a21"/>
      <use xlink:href="#MapleMonoNormalNL-NF-CN-Regular-578b" x="119.999985"/>
      <use xlink:href="#MapleMonoNormalNL-NF-CN-Regular-2d" x="239.999969"/>
      <use xlink:href="#MapleMonoNormalNL-NF-CN-Regular-65b9" x="299.999954"/>
      <use xlink:href="#MapleMonoNormalNL-NF-CN-Regular-6cd5" x="419.999939"/>
     </g>
    </g>
   </g>
   <g id="matplotlib.axis_2">
    <g id="ytick_1">
     <g id="line2d_21">
      <defs>
       <path id="mceeb7a84c3" d="M 0 0 
L -3.5 0 
" style="stroke: #000000; stroke-width: 0.8"/>
      </defs>
      <g>
       <use xlink:href="#mceeb7a84c3" x="48.44" y="463.359348" style="stroke: #000000; stroke-width: 0.8"/>
      </g>
     </g>
     <g id="text_22">
      <!-- 0.0 -->
      <g transform="translate(25.536875 467.158566) scale(0.1 -0.1)">
       <defs>
        <path id="DejaVuSans-30" d="M 2034 4250 
Q 1547 4250 1301 3770 
Q 1056 3291 1056 2328 
Q 1056 1369 1301 889 
Q 1547 409 2034 409 
Q 2525 409 2770 889 
Q 3016 1369 3016 2328 
Q 3016 3291 2770 3770 
Q 2525 4250 2034 4250 
z
M 2034 4750 
Q 2819 4750 3233 4129 
Q 3647 3509 3647 2328 
Q 3647 1150 3233 529 
Q 2819 -91 2034 -91 
Q 1250 -91 836 529 
Q 422 1150 422 2328 
Q 422 3509 836 4129 
Q 1250 4750 2034 4750 
z
" transform="scale(0.015625)"/>
        <path id="DejaVuSans-2e" d="M 684 794 
L 1344 794 
L 1344 0 
L 684 0 
L 684 794 
z
" transform="scale(0.015625)"/>
       </defs>
       <use xlink:href="#DejaVuSans-30"/>
       <use xlink:href="#DejaVuSans-2e" x="63.623047"/>
       <use xlink:href="#DejaVuSans-30" x="95.410156"/>
      </g>
     </g>
    </g>
    <g id="ytick_2">
     <g id="line2d_22">
      <g>
       <use xlink:href="#mceeb7a84c3" x="48.44" y="378.695901" style="stroke: #000000; stroke-width: 0.8"/>
      </g>
     </g>
     <g id="text_23">
      <!-- 0.2 -->
      <g transform="translate(25.536875 382.49512) scale(0.1 -0.1)">
       <use xlink:href="#DejaVuSans-30"/>
       <use xlink:href="#DejaVuSans-2e" x="63.623047"/>
       <use xlink:href="#DejaVuSans-32" x="95.410156"/>
      </g>
     </g>
    </g>
    <g id="ytick_3">
     <g id="line2d_23">
      <g>
       <use xlink:href="#mceeb7a84c3" x="48.44" y="294.032455" style="stroke: #000000; stroke-width: 0.8"/>
      </g>
     </g>
     <g id="text_24">
      <!-- 0.4 -->
      <g transform="translate(25.536875 297.831674) scale(0.1 -0.1)">
       <use xlink:href="#DejaVuSans-30"/>
       <use xlink:href="#DejaVuSans-2e" x="63.623047"/>
       <use xlink:href="#DejaVuSans-34" x="95.410156"/>
      </g>
     </g>
    </g>
    <g id="ytick_4">
     <g id="line2d_24">
      <g>
       <use xlink:href="#mceeb7a84c3" x="48.44" y="209.369009" style="stroke: #000000; stroke-width: 0.8"/>
      </g>
     </g>
     <g id="text_25">
      <!-- 0.6 -->
      <g transform="translate(25.536875 213.168228) scale(0.1 -0.1)">
       <defs>
        <path id="DejaVuSans-36" d="M 2113 2584 
Q 1688 2584 1439 2293 
Q 1191 2003 1191 1497 
Q 1191 994 1439 701 
Q 1688 409 2113 409 
Q 2538 409 2786 701 
Q 3034 994 3034 1497 
Q 3034 2003 2786 2293 
Q 2538 2584 2113 2584 
z
M 3366 4563 
L 3366 3988 
Q 3128 4100 2886 4159 
Q 2644 4219 2406 4219 
Q 1781 4219 1451 3797 
Q 1122 3375 1075 2522 
Q 1259 2794 1537 2939 
Q 1816 3084 2150 3084 
Q 2853 3084 3261 2657 
Q 3669 2231 3669 1497 
Q 3669 778 3244 343 
Q 2819 -91 2113 -91 
Q 1303 -91 875 529 
Q 447 1150 447 2328 
Q 447 3434 972 4092 
Q 1497 4750 2381 4750 
Q 2619 4750 2861 4703 
Q 3103 4656 3366 4563 
z
" transform="scale(0.015625)"/>
       </defs>
       <use xlink:href="#DejaVuSans-30"/>
       <use xlink:href="#DejaVuSans-2e" x="63.623047"/>
       <use xlink:href="#DejaVuSans-36" x="95.410156"/>
      </g>
     </g>
    </g>
    <g id="ytick_5">
     <g id="line2d_25">
      <g>
       <use xlink:href="#mceeb7a84c3" x="48.44" y="124.705563" style="stroke: #000000; stroke-width: 0.8"/>
      </g>
     </g>
     <g id="text_26">
      <!-- 0.8 -->
      <g transform="translate(25.536875 128.504781) scale(0.1 -0.1)">
       <defs>
        <path id="DejaVuSans-38" d="M 2034 2216 
Q 1584 2216 1326 1975 
Q 1069 1734 1069 1313 
Q 1069 891 1326 650 
Q 1584 409 2034 409 
Q 2484 409 2743 651 
Q 3003 894 3003 1313 
Q 3003 1734 2745 1975 
Q 2488 2216 2034 2216 
z
M 1403 2484 
Q 997 2584 770 2862 
Q 544 3141 544 3541 
Q 544 4100 942 4425 
Q 1341 4750 2034 4750 
Q 2731 4750 3128 4425 
Q 3525 4100 3525 3541 
Q 3525 3141 3298 2862 
Q 3072 2584 2669 2484 
Q 3125 2378 3379 2068 
Q 3634 1759 3634 1313 
Q 3634 634 3220 271 
Q 2806 -91 2034 -91 
Q 1263 -91 848 271 
Q 434 634 434 1313 
Q 434 1759 690 2068 
Q 947 2378 1403 2484 
z
M 1172 3481 
Q 1172 3119 1398 2916 
Q 1625 2713 2034 2713 
Q 2441 2713 2670 2916 
Q 2900 3119 2900 3481 
Q 2900 3844 2670 4047 
Q 2441 4250 2034 4250 
Q 1625 4250 1398 4047 
Q 1172 3844 1172 3481 
z
" transform="scale(0.015625)"/>
       </defs>
       <use xlink:href="#DejaVuSans-30"/>
       <use xlink:href="#DejaVuSans-2e" x="63.623047"/>
       <use xlink:href="#DejaVuSans-38" x="95.410156"/>
      </g>
     </g>
    </g>
    <g id="ytick_6">
     <g id="line2d_26">
      <g>
       <use xlink:href="#mceeb7a84c3" x="48.44" y="40.042116" style="stroke: #000000; stroke-width: 0.8"/>
      </g>
     </g>
     <g id="text_27">
      <!-- 1.0 -->
      <g transform="translate(25.536875 43.841335) scale(0.1 -0.1)">
       <use xlink:href="#DejaVuSans-31"/>
       <use xlink:href="#DejaVuSans-2e" x="63.623047"/>
       <use xlink:href="#DejaVuSans-30" x="95.410156"/>
      </g>
     </g>
    </g>
    <g id="text_28">
     <!-- F1-score -->
     <g transform="translate(19.256875 272.485299) rotate(-90) scale(0.12 -0.12)">
      <defs>
       <path id="MapleMonoNormalNL-NF-CN-Regular-46" d="M 1184 2733 
L 2938 2733 
Q 3066 2733 3130 2669 
Q 3194 2605 3194 2477 
Q 3194 2349 3130 2285 
Q 3066 2221 2938 2221 
L 1184 2221 
L 1184 288 
Q 1184 141 1113 70 
Q 1043 0 896 0 
Q 749 0 678 70 
Q 608 141 608 288 
L 608 4160 
Q 608 4422 733 4547 
Q 858 4672 1120 4672 
L 3072 4672 
Q 3219 4672 3289 4601 
Q 3360 4531 3360 4384 
Q 3360 4237 3289 4166 
Q 3219 4096 3072 4096 
L 1440 4096 
Q 1312 4096 1248 4032 
Q 1184 3968 1184 3840 
L 1184 2733 
z
" transform="scale(0.015625)"/>
       <path id="MapleMonoNormalNL-NF-CN-Regular-31" d="M 800 0 
Q 653 0 582 70 
Q 512 141 512 288 
Q 512 435 582 505 
Q 653 576 800 576 
L 1843 576 
L 1843 3917 
Q 1843 4000 1824 4038 
Q 1805 4077 1766 4077 
Q 1741 4077 1712 4061 
Q 1683 4045 1645 4013 
L 1018 3514 
Q 928 3443 857 3408 
Q 787 3373 736 3373 
Q 653 3373 614 3446 
Q 576 3520 576 3667 
Q 576 3808 614 3888 
Q 653 3968 723 4026 
L 1427 4576 
Q 1536 4666 1651 4701 
Q 1766 4736 1907 4736 
Q 2170 4736 2294 4611 
Q 2419 4486 2419 4224 
L 2419 576 
L 3232 576 
Q 3379 576 3449 505 
Q 3520 435 3520 288 
Q 3520 141 3449 70 
Q 3379 0 3232 0 
L 800 0 
z
" transform="scale(0.015625)"/>
       <path id="MapleMonoNormalNL-NF-CN-Regular-73" d="M 1926 -64 
Q 1734 -64 1555 -38 
Q 1376 -13 1219 48 
Q 1062 109 918 208 
Q 774 307 646 454 
Q 582 525 550 614 
Q 518 704 518 794 
Q 518 934 595 985 
Q 672 1037 762 1037 
Q 832 1037 889 1011 
Q 947 986 1018 922 
Q 1222 742 1417 627 
Q 1613 512 1920 512 
Q 2029 512 2173 525 
Q 2317 538 2445 586 
Q 2573 634 2662 723 
Q 2752 813 2752 960 
Q 2752 1101 2662 1200 
Q 2573 1299 2445 1366 
Q 2317 1434 2173 1475 
Q 2029 1517 1920 1536 
Q 1702 1581 1478 1645 
Q 1254 1709 1072 1824 
Q 890 1939 771 2124 
Q 653 2310 653 2598 
Q 653 2867 755 3052 
Q 858 3238 1030 3356 
Q 1203 3475 1433 3529 
Q 1664 3584 1920 3584 
Q 2336 3584 2675 3446 
Q 3014 3309 3181 3040 
Q 3226 2970 3242 2912 
Q 3258 2854 3258 2810 
Q 3258 2707 3194 2630 
Q 3130 2554 3002 2554 
Q 2944 2554 2867 2576 
Q 2790 2598 2720 2669 
Q 2566 2822 2390 2915 
Q 2214 3008 1920 3008 
Q 1779 3008 1654 2985 
Q 1530 2963 1434 2912 
Q 1338 2861 1283 2787 
Q 1229 2714 1229 2605 
Q 1229 2477 1296 2390 
Q 1363 2304 1468 2253 
Q 1574 2202 1696 2170 
Q 1818 2138 1920 2118 
Q 2163 2067 2412 1993 
Q 2662 1920 2867 1792 
Q 3072 1664 3200 1462 
Q 3328 1261 3328 954 
Q 3328 672 3213 477 
Q 3098 282 2906 163 
Q 2714 45 2461 -9 
Q 2208 -64 1926 -64 
z
" transform="scale(0.015625)"/>
       <path id="MapleMonoNormalNL-NF-CN-Regular-63" d="M 512 1754 
Q 512 2246 640 2592 
Q 768 2938 982 3158 
Q 1197 3379 1485 3481 
Q 1773 3584 2093 3584 
Q 2336 3584 2528 3542 
Q 2720 3501 2864 3430 
Q 3008 3360 3110 3270 
Q 3213 3181 3270 3085 
Q 3360 2938 3337 2829 
Q 3315 2720 3206 2656 
Q 3091 2586 2988 2605 
Q 2886 2624 2829 2720 
Q 2758 2829 2585 2918 
Q 2413 3008 2131 3008 
Q 1901 3008 1709 2931 
Q 1517 2854 1379 2700 
Q 1242 2547 1165 2320 
Q 1088 2093 1088 1786 
Q 1088 1472 1168 1232 
Q 1248 992 1385 832 
Q 1523 672 1715 592 
Q 1907 512 2125 512 
Q 2291 512 2470 553 
Q 2650 595 2746 691 
Q 2822 768 2934 781 
Q 3046 794 3155 704 
Q 3194 666 3216 618 
Q 3238 570 3238 512 
Q 3238 454 3206 387 
Q 3174 320 3110 243 
Q 3027 141 2912 80 
Q 2797 19 2665 -13 
Q 2534 -45 2393 -54 
Q 2253 -64 2112 -64 
Q 1760 -64 1465 45 
Q 1171 154 960 374 
Q 749 595 630 940 
Q 512 1286 512 1754 
z
" transform="scale(0.015625)"/>
       <path id="MapleMonoNormalNL-NF-CN-Regular-6f" d="M 1920 -64 
Q 1549 -64 1280 73 
Q 1011 211 832 454 
Q 653 698 566 1034 
Q 480 1370 480 1766 
Q 480 2163 563 2496 
Q 646 2829 825 3069 
Q 1005 3309 1277 3446 
Q 1549 3584 1920 3584 
Q 2298 3584 2570 3446 
Q 2842 3309 3018 3069 
Q 3194 2829 3277 2496 
Q 3360 2163 3360 1766 
Q 3360 1370 3273 1034 
Q 3187 698 3011 454 
Q 2835 211 2563 73 
Q 2291 -64 1920 -64 
z
M 1920 512 
Q 2144 512 2307 605 
Q 2470 698 2576 861 
Q 2682 1024 2733 1257 
Q 2784 1491 2784 1766 
Q 2784 2042 2736 2269 
Q 2688 2496 2582 2659 
Q 2477 2822 2313 2915 
Q 2150 3008 1920 3008 
Q 1690 3008 1526 2915 
Q 1363 2822 1257 2659 
Q 1152 2496 1104 2265 
Q 1056 2035 1056 1760 
Q 1056 1485 1107 1254 
Q 1158 1024 1264 861 
Q 1370 698 1533 605 
Q 1696 512 1920 512 
z
" transform="scale(0.015625)"/>
       <path id="MapleMonoNormalNL-NF-CN-Regular-72" d="M 992 -64 
Q 845 -64 774 6 
Q 704 77 704 224 
L 704 3296 
Q 704 3443 774 3513 
Q 845 3584 992 3584 
Q 1139 3584 1209 3513 
Q 1280 3443 1280 3296 
L 1280 2918 
Q 1389 3226 1686 3405 
Q 1984 3584 2458 3584 
Q 2746 3584 2928 3481 
Q 3110 3379 3212 3206 
Q 3315 3034 3353 2803 
Q 3392 2573 3392 2317 
L 3392 2240 
Q 3392 2093 3321 2022 
Q 3251 1952 3104 1952 
Q 2957 1952 2886 2022 
Q 2816 2093 2816 2240 
L 2816 2317 
Q 2816 2464 2797 2601 
Q 2778 2739 2720 2848 
Q 2662 2957 2553 3021 
Q 2445 3085 2259 3085 
Q 2093 3085 1920 3027 
Q 1747 2970 1603 2861 
Q 1459 2752 1369 2595 
Q 1280 2438 1280 2240 
L 1280 224 
Q 1280 77 1209 6 
Q 1139 -64 992 -64 
z
" transform="scale(0.015625)"/>
       <path id="MapleMonoNormalNL-NF-CN-Regular-65" d="M 2938 845 
Q 3059 845 3139 758 
Q 3219 672 3219 563 
Q 3219 506 3190 451 
Q 3162 397 3085 320 
Q 2982 224 2867 153 
Q 2752 83 2621 32 
Q 2490 -19 2346 -41 
Q 2202 -64 2042 -64 
Q 1670 -64 1379 61 
Q 1088 186 886 419 
Q 685 653 576 989 
Q 467 1325 467 1741 
Q 467 2106 547 2442 
Q 627 2778 803 3030 
Q 979 3283 1260 3433 
Q 1542 3584 1952 3584 
Q 2336 3584 2592 3453 
Q 2848 3322 3005 3085 
Q 3162 2848 3229 2531 
Q 3296 2214 3296 1837 
Q 3296 1722 3213 1629 
Q 3130 1536 2995 1536 
L 1056 1536 
Q 1082 1280 1165 1085 
Q 1248 890 1376 765 
Q 1504 640 1673 576 
Q 1843 512 2048 512 
Q 2336 512 2505 601 
Q 2675 691 2771 768 
Q 2822 813 2854 829 
Q 2886 845 2938 845 
z
M 1056 2048 
L 2618 2048 
Q 2650 2048 2685 2086 
Q 2720 2125 2720 2259 
Q 2720 2394 2669 2528 
Q 2618 2662 2518 2768 
Q 2419 2874 2275 2941 
Q 2131 3008 1952 3008 
Q 1754 3008 1597 2937 
Q 1440 2867 1328 2739 
Q 1216 2611 1149 2435 
Q 1082 2259 1056 2048 
z
" transform="scale(0.015625)"/>
      </defs>
      <use xlink:href="#MapleMonoNormalNL-NF-CN-Regular-46"/>
      <use xlink:href="#MapleMonoNormalNL-NF-CN-Regular-31" x="59.999985"/>
      <use xlink:href="#MapleMonoNormalNL-NF-CN-Regular-2d" x="119.999969"/>
      <use xlink:href="#MapleMonoNormalNL-NF-CN-Regular-73" x="179.999954"/>
      <use xlink:href="#MapleMonoNormalNL-NF-CN-Regular-63" x="239.999939"/>
      <use xlink:href="#MapleMonoNormalNL-NF-CN-Regular-6f" x="299.999924"/>
      <use xlink:href="#MapleMonoNormalNL-NF-CN-Regular-72" x="359.999908"/>
      <use xlink:href="#MapleMonoNormalNL-NF-CN-Regular-65" x="419.999893"/>
     </g>
    </g>
   </g>
   <g id="line2d_27">
    <path clip-path="url(#pe32ef4650f)" style="fill: none; stroke: #424242; stroke-width: 2.25; stroke-linecap: square"/>
   </g>
   <g id="line2d_28">
    <path clip-path="url(#pe32ef4650f)" style="fill: none; stroke: #424242; stroke-width: 2.25; stroke-linecap: square"/>
   </g>
   <g id="line2d_29">
    <path clip-path="url(#pe32ef4650f)" style="fill: none; stroke: #424242; stroke-width: 2.25; stroke-linecap: square"/>
   </g>
   <g id="line2d_30">
    <path clip-path="url(#pe32ef4650f)" style="fill: none; stroke: #424242; stroke-width: 2.25; stroke-linecap: square"/>
   </g>
   <g id="line2d_31">
    <path clip-path="url(#pe32ef4650f)" style="fill: none; stroke: #424242; stroke-width: 2.25; stroke-linecap: square"/>
   </g>
   <g id="line2d_32">
    <path clip-path="url(#pe32ef4650f)" style="fill: none; stroke: #424242; stroke-width: 2.25; stroke-linecap: square"/>
   </g>
   <g id="line2d_33">
    <path clip-path="url(#pe32ef4650f)" style="fill: none; stroke: #424242; stroke-width: 2.25; stroke-linecap: square"/>
   </g>
   <g id="line2d_34">
    <path clip-path="url(#pe32ef4650f)" style="fill: none; stroke: #424242; stroke-width: 2.25; stroke-linecap: square"/>
   </g>
   <g id="line2d_35">
    <path clip-path="url(#pe32ef4650f)" style="fill: none; stroke: #424242; stroke-width: 2.25; stroke-linecap: square"/>
   </g>
   <g id="line2d_36">
    <path clip-path="url(#pe32ef4650f)" style="fill: none; stroke: #424242; stroke-width: 2.25; stroke-linecap: square"/>
   </g>
   <g id="line2d_37">
    <path clip-path="url(#pe32ef4650f)" style="fill: none; stroke: #424242; stroke-width: 2.25; stroke-linecap: square"/>
   </g>
   <g id="line2d_38">
    <path clip-path="url(#pe32ef4650f)" style="fill: none; stroke: #424242; stroke-width: 2.25; stroke-linecap: square"/>
   </g>
   <g id="line2d_39">
    <path clip-path="url(#pe32ef4650f)" style="fill: none; stroke: #424242; stroke-width: 2.25; stroke-linecap: square"/>
   </g>
   <g id="line2d_40">
    <path clip-path="url(#pe32ef4650f)" style="fill: none; stroke: #424242; stroke-width: 2.25; stroke-linecap: square"/>
   </g>
   <g id="line2d_41">
    <path clip-path="url(#pe32ef4650f)" style="fill: none; stroke: #424242; stroke-width: 2.25; stroke-linecap: square"/>
   </g>
   <g id="line2d_42">
    <path clip-path="url(#pe32ef4650f)" style="fill: none; stroke: #424242; stroke-width: 2.25; stroke-linecap: square"/>
   </g>
   <g id="line2d_43">
    <path clip-path="url(#pe32ef4650f)" style="fill: none; stroke: #424242; stroke-width: 2.25; stroke-linecap: square"/>
   </g>
   <g id="line2d_44">
    <path clip-path="url(#pe32ef4650f)" style="fill: none; stroke: #424242; stroke-width: 2.25; stroke-linecap: square"/>
   </g>
   <g id="line2d_45">
    <path clip-path="url(#pe32ef4650f)" style="fill: none; stroke: #424242; stroke-width: 2.25; stroke-linecap: square"/>
   </g>
   <g id="line2d_46">
    <path clip-path="url(#pe32ef4650f)" style="fill: none; stroke: #424242; stroke-width: 2.25; stroke-linecap: square"/>
   </g>
   <g id="patch_23">
    <path d="M 48.44 463.359348 
L 48.44 24.01125 
" style="fill: none; stroke: #000000; stroke-width: 0.8; stroke-linejoin: miter; stroke-linecap: square"/>
   </g>
   <g id="patch_24">
    <path d="M 851.85 463.359348 
L 851.85 24.01125 
" style="fill: none; stroke: #000000; stroke-width: 0.8; stroke-linejoin: miter; stroke-linecap: square"/>
   </g>
   <g id="patch_25">
    <path d="M 48.44 463.359348 
L 851.85 463.359348 
" style="fill: none; stroke: #000000; stroke-width: 0.8; stroke-linejoin: miter; stroke-linecap: square"/>
   </g>
   <g id="patch_26">
    <path d="M 48.44 24.01125 
L 851.85 24.01125 
" style="fill: none; stroke: #000000; stroke-width: 0.8; stroke-linejoin: miter; stroke-linecap: square"/>
   </g>
   <g id="text_29">
    <!-- 0.9884 -->
    <g transform="translate(50.52525 38.799416) scale(0.1 -0.1)">
     <defs>
      <path id="MapleMonoNormalNL-NF-CN-Regular-30" d="M 1920 -64 
Q 1440 -64 1142 169 
Q 845 403 681 758 
Q 518 1114 460 1536 
Q 403 1958 403 2336 
Q 403 2714 460 3136 
Q 518 3558 684 3913 
Q 851 4269 1148 4502 
Q 1446 4736 1933 4736 
Q 2413 4736 2710 4505 
Q 3008 4275 3168 3923 
Q 3328 3571 3382 3155 
Q 3437 2739 3437 2368 
Q 3437 1978 3379 1549 
Q 3322 1120 3155 761 
Q 2989 403 2694 169 
Q 2400 -64 1920 -64 
z
M 1920 512 
Q 2227 512 2412 713 
Q 2598 915 2697 1200 
Q 2797 1485 2829 1801 
Q 2861 2118 2861 2349 
Q 2861 2515 2842 2726 
L 1133 1222 
Q 1139 1210 1146 1203 
Q 1242 915 1427 713 
Q 1613 512 1920 512 
z
M 2701 3462 
L 2701 3482 
Q 2598 3763 2412 3961 
Q 2227 4160 1920 4160 
Q 1613 4160 1427 3958 
Q 1242 3757 1142 3472 
Q 1043 3187 1011 2876 
Q 979 2566 979 2342 
Q 979 2170 998 1958 
L 2701 3462 
z
" transform="scale(0.015625)"/>
      <path id="MapleMonoNormalNL-NF-CN-Regular-2e" d="M 1376 480 
Q 1376 595 1417 694 
Q 1459 794 1532 867 
Q 1606 941 1705 982 
Q 1805 1024 1920 1024 
Q 2035 1024 2134 982 
Q 2234 941 2307 867 
Q 2381 794 2422 694 
Q 2464 595 2464 480 
Q 2464 371 2422 272 
Q 2381 173 2307 99 
Q 2234 26 2134 -19 
Q 2035 -64 1920 -64 
Q 1805 -64 1705 -19 
Q 1606 26 1532 99 
Q 1459 173 1417 272 
Q 1376 371 1376 480 
z
" transform="scale(0.015625)"/>
      <path id="MapleMonoNormalNL-NF-CN-Regular-39" d="M 1920 4154 
Q 1722 4154 1552 4099 
Q 1382 4045 1260 3926 
Q 1139 3808 1072 3625 
Q 1005 3443 1005 3194 
Q 1005 3002 1069 2832 
Q 1133 2662 1251 2534 
Q 1370 2406 1539 2332 
Q 1709 2259 1920 2259 
Q 2144 2259 2313 2339 
Q 2483 2419 2598 2553 
Q 2714 2688 2774 2870 
Q 2835 3053 2835 3251 
Q 2835 3514 2761 3690 
Q 2688 3866 2563 3968 
Q 2438 4070 2272 4112 
Q 2106 4154 1920 4154 
z
M 1459 -26 
Q 1325 -77 1225 -61 
Q 1126 -45 1056 83 
Q 992 198 1021 307 
Q 1050 416 1190 467 
Q 1498 570 1776 752 
Q 2054 934 2275 1174 
Q 2496 1414 2643 1708 
Q 2790 2003 2835 2330 
Q 2662 2029 2396 1856 
Q 2131 1683 1734 1683 
Q 1459 1683 1219 1795 
Q 979 1907 803 2108 
Q 627 2310 528 2582 
Q 429 2854 429 3174 
Q 429 3558 547 3849 
Q 666 4141 867 4336 
Q 1069 4531 1337 4630 
Q 1606 4730 1914 4730 
Q 2253 4730 2528 4643 
Q 2803 4557 2998 4352 
Q 3194 4147 3302 3798 
Q 3411 3450 3411 2925 
Q 3411 2342 3260 1862 
Q 3110 1382 2844 1011 
Q 2579 640 2224 377 
Q 1869 115 1459 -26 
z
" transform="scale(0.015625)"/>
      <path id="MapleMonoNormalNL-NF-CN-Regular-38" d="M 1920 -64 
Q 1587 -64 1312 35 
Q 1037 134 838 313 
Q 640 493 531 739 
Q 422 986 422 1280 
Q 422 1510 489 1708 
Q 557 1907 675 2060 
Q 794 2214 966 2316 
Q 1139 2419 1350 2458 
L 1350 2477 
Q 986 2560 768 2845 
Q 550 3130 550 3526 
Q 550 3789 649 4013 
Q 749 4237 931 4397 
Q 1114 4557 1363 4646 
Q 1613 4736 1920 4736 
Q 2227 4736 2476 4646 
Q 2726 4557 2908 4397 
Q 3091 4237 3190 4013 
Q 3290 3789 3290 3526 
Q 3290 3130 3072 2845 
Q 2854 2560 2490 2477 
L 2490 2458 
Q 2701 2419 2873 2316 
Q 3046 2214 3164 2060 
Q 3283 1907 3350 1708 
Q 3418 1510 3418 1280 
Q 3418 986 3309 739 
Q 3200 493 3001 313 
Q 2803 134 2528 35 
Q 2253 -64 1920 -64 
z
M 1920 512 
Q 2125 512 2294 569 
Q 2464 627 2585 736 
Q 2707 845 2774 998 
Q 2842 1152 2842 1338 
Q 2842 1523 2774 1680 
Q 2707 1837 2585 1945 
Q 2464 2054 2294 2115 
Q 2125 2176 1920 2176 
Q 1715 2176 1545 2115 
Q 1376 2054 1254 1945 
Q 1133 1837 1065 1680 
Q 998 1523 998 1338 
Q 998 1152 1065 998 
Q 1133 845 1254 736 
Q 1376 627 1545 569 
Q 1715 512 1920 512 
z
M 1920 2752 
Q 2278 2752 2496 2937 
Q 2714 3123 2714 3450 
Q 2714 3782 2496 3971 
Q 2278 4160 1920 4160 
Q 1562 4160 1344 3971 
Q 1126 3782 1126 3450 
Q 1126 3123 1344 2937 
Q 1562 2752 1920 2752 
z
" transform="scale(0.015625)"/>
      <path id="MapleMonoNormalNL-NF-CN-Regular-34" d="M 2304 1632 
L 2304 3443 
Q 2304 3514 2294 3539 
Q 2285 3565 2266 3565 
Q 2253 3565 2227 3549 
Q 2202 3533 2170 3482 
L 1190 1850 
Q 1165 1811 1155 1779 
Q 1146 1747 1146 1722 
Q 1146 1670 1187 1651 
Q 1229 1632 1312 1632 
L 2304 1632 
z
M 2304 224 
L 2304 1056 
L 819 1056 
Q 602 1056 493 1161 
Q 384 1267 384 1472 
Q 384 1562 403 1626 
Q 422 1690 461 1754 
L 2202 4570 
Q 2253 4653 2329 4694 
Q 2406 4736 2522 4736 
Q 2694 4736 2787 4640 
Q 2880 4544 2880 4352 
L 2880 1632 
L 3264 1632 
Q 3411 1632 3481 1561 
Q 3552 1491 3552 1344 
Q 3552 1197 3481 1126 
Q 3411 1056 3264 1056 
L 2880 1056 
L 2880 224 
Q 2880 77 2809 6 
Q 2739 -64 2592 -64 
Q 2445 -64 2374 6 
Q 2304 77 2304 224 
z
" transform="scale(0.015625)"/>
     </defs>
     <use xlink:href="#MapleMonoNormalNL-NF-CN-Regular-30"/>
     <use xlink:href="#MapleMonoNormalNL-NF-CN-Regular-2e" x="59.999985"/>
     <use xlink:href="#MapleMonoNormalNL-NF-CN-Regular-39" x="119.999969"/>
     <use xlink:href="#MapleMonoNormalNL-NF-CN-Regular-38" x="179.999954"/>
     <use xlink:href="#MapleMonoNormalNL-NF-CN-Regular-38" x="239.999939"/>
     <use xlink:href="#MapleMonoNormalNL-NF-CN-Regular-34" x="299.999924"/>
    </g>
   </g>
   <g id="text_30">
    <!-- 0.9742 -->
    <g transform="translate(90.69575 44.814655) scale(0.1 -0.1)">
     <defs>
      <path id="MapleMonoNormalNL-NF-CN-Regular-37" d="M 1242 326 
L 2656 3859 
Q 2669 3891 2675 3920 
Q 2682 3949 2682 3974 
Q 2682 4038 2637 4067 
Q 2592 4096 2496 4096 
L 685 4096 
Q 538 4096 467 4166 
Q 397 4237 397 4384 
Q 397 4531 467 4601 
Q 538 4672 685 4672 
L 2906 4672 
Q 3136 4672 3251 4560 
Q 3366 4448 3366 4237 
Q 3366 4160 3353 4099 
Q 3341 4038 3322 3987 
L 1792 128 
Q 1754 32 1677 -16 
Q 1600 -64 1472 -64 
Q 1338 -64 1267 -16 
Q 1197 32 1197 134 
Q 1197 173 1209 224 
Q 1222 275 1242 326 
z
" transform="scale(0.015625)"/>
      <path id="MapleMonoNormalNL-NF-CN-Regular-32" d="M 870 0 
Q 685 0 585 93 
Q 486 186 486 371 
Q 486 474 518 560 
Q 550 646 621 717 
L 2042 2189 
Q 2144 2298 2265 2435 
Q 2387 2573 2492 2726 
Q 2598 2880 2668 3043 
Q 2739 3206 2739 3366 
Q 2739 3590 2668 3740 
Q 2598 3891 2476 3984 
Q 2355 4077 2188 4118 
Q 2022 4160 1830 4160 
Q 1574 4160 1398 4099 
Q 1222 4038 1062 3942 
Q 947 3872 835 3920 
Q 723 3968 659 4077 
Q 602 4179 637 4288 
Q 672 4397 768 4467 
Q 973 4614 1229 4675 
Q 1485 4736 1850 4736 
Q 2150 4736 2416 4675 
Q 2682 4614 2880 4467 
Q 3078 4320 3196 4070 
Q 3315 3821 3315 3437 
Q 3315 3238 3251 3036 
Q 3187 2835 3081 2636 
Q 2976 2438 2832 2252 
Q 2688 2067 2528 1894 
L 1395 691 
Q 1363 659 1379 617 
Q 1395 576 1504 576 
L 3149 576 
Q 3296 576 3366 505 
Q 3437 435 3437 288 
Q 3437 141 3366 70 
Q 3296 0 3149 0 
L 870 0 
z
" transform="scale(0.015625)"/>
     </defs>
     <use xlink:href="#MapleMonoNormalNL-NF-CN-Regular-30"/>
     <use xlink:href="#MapleMonoNormalNL-NF-CN-Regular-2e" x="59.999985"/>
     <use xlink:href="#MapleMonoNormalNL-NF-CN-Regular-39" x="119.999969"/>
     <use xlink:href="#MapleMonoNormalNL-NF-CN-Regular-37" x="179.999954"/>
     <use xlink:href="#MapleMonoNormalNL-NF-CN-Regular-34" x="239.999939"/>
     <use xlink:href="#MapleMonoNormalNL-NF-CN-Regular-32" x="299.999924"/>
    </g>
   </g>
   <g id="text_31">
    <!-- 0.8575 -->
    <g transform="translate(130.86625 94.221785) scale(0.1 -0.1)">
     <defs>
      <path id="MapleMonoNormalNL-NF-CN-Regular-35" d="M 3328 1306 
Q 3328 998 3222 748 
Q 3117 499 2915 316 
Q 2714 134 2419 35 
Q 2125 -64 1741 -64 
Q 1466 -64 1165 -13 
Q 864 38 646 134 
Q 518 186 470 298 
Q 422 410 480 538 
Q 531 653 643 701 
Q 755 749 922 678 
Q 1094 608 1315 560 
Q 1536 512 1741 512 
Q 2202 512 2477 745 
Q 2752 979 2752 1446 
Q 2752 1683 2643 1836 
Q 2534 1990 2345 2083 
Q 2157 2176 1901 2211 
Q 1645 2246 1344 2246 
L 1216 2246 
Q 954 2246 829 2371 
Q 704 2496 704 2765 
L 704 4160 
Q 704 4422 829 4547 
Q 954 4672 1216 4672 
L 2950 4672 
Q 3098 4672 3168 4601 
Q 3238 4531 3238 4384 
Q 3238 4237 3168 4166 
Q 3098 4096 2950 4096 
L 1536 4096 
Q 1408 4096 1344 4032 
Q 1280 3968 1280 3840 
L 1280 3078 
Q 1280 2950 1344 2886 
Q 1408 2822 1536 2822 
Q 1856 2822 2173 2780 
Q 2490 2739 2749 2582 
Q 3008 2426 3168 2125 
Q 3328 1824 3328 1306 
z
" transform="scale(0.015625)"/>
     </defs>
     <use xlink:href="#MapleMonoNormalNL-NF-CN-Regular-30"/>
     <use xlink:href="#MapleMonoNormalNL-NF-CN-Regular-2e" x="59.999985"/>
     <use xlink:href="#MapleMonoNormalNL-NF-CN-Regular-38" x="119.999969"/>
     <use xlink:href="#MapleMonoNormalNL-NF-CN-Regular-35" x="179.999954"/>
     <use xlink:href="#MapleMonoNormalNL-NF-CN-Regular-37" x="239.999939"/>
     <use xlink:href="#MapleMonoNormalNL-NF-CN-Regular-35" x="299.999924"/>
    </g>
   </g>
   <g id="text_32">
    <!-- 0.8026 -->
    <g transform="translate(171.03675 117.46423) scale(0.1 -0.1)">
     <defs>
      <path id="MapleMonoNormalNL-NF-CN-Regular-36" d="M 1920 512 
Q 2125 512 2291 566 
Q 2458 621 2579 739 
Q 2701 858 2768 1040 
Q 2835 1222 2835 1472 
Q 2835 1664 2771 1833 
Q 2707 2003 2588 2131 
Q 2470 2259 2300 2332 
Q 2131 2406 1920 2406 
Q 1702 2406 1529 2326 
Q 1357 2246 1241 2112 
Q 1126 1978 1065 1798 
Q 1005 1619 1005 1414 
Q 1005 1152 1078 976 
Q 1152 800 1277 697 
Q 1402 595 1568 553 
Q 1734 512 1920 512 
z
M 2381 4691 
Q 2515 4742 2614 4726 
Q 2714 4710 2784 4582 
Q 2848 4467 2819 4358 
Q 2790 4250 2650 4198 
Q 2342 4096 2064 3913 
Q 1786 3731 1565 3491 
Q 1344 3251 1200 2956 
Q 1056 2662 1005 2336 
Q 1178 2637 1443 2809 
Q 1709 2982 2106 2982 
Q 2381 2982 2621 2870 
Q 2861 2758 3037 2556 
Q 3213 2355 3312 2083 
Q 3411 1811 3411 1491 
Q 3411 1107 3296 816 
Q 3181 525 2979 329 
Q 2778 134 2506 35 
Q 2234 -64 1926 -64 
Q 1594 -64 1315 22 
Q 1037 109 841 313 
Q 646 518 537 867 
Q 429 1216 429 1741 
Q 429 2323 582 2803 
Q 736 3283 998 3654 
Q 1261 4026 1616 4288 
Q 1971 4550 2381 4691 
z
" transform="scale(0.015625)"/>
     </defs>
     <use xlink:href="#MapleMonoNormalNL-NF-CN-Regular-30"/>
     <use xlink:href="#MapleMonoNormalNL-NF-CN-Regular-2e" x="59.999985"/>
     <use xlink:href="#MapleMonoNormalNL-NF-CN-Regular-38" x="119.999969"/>
     <use xlink:href="#MapleMonoNormalNL-NF-CN-Regular-30" x="179.999954"/>
     <use xlink:href="#MapleMonoNormalNL-NF-CN-Regular-32" x="239.999939"/>
     <use xlink:href="#MapleMonoNormalNL-NF-CN-Regular-36" x="299.999924"/>
    </g>
   </g>
   <g id="text_33">
    <!-- 0.7092 -->
    <g transform="translate(211.20725 157.019865) scale(0.1 -0.1)">
     <use xlink:href="#MapleMonoNormalNL-NF-CN-Regular-30"/>
     <use xlink:href="#MapleMonoNormalNL-NF-CN-Regular-2e" x="59.999985"/>
     <use xlink:href="#MapleMonoNormalNL-NF-CN-Regular-37" x="119.999969"/>
     <use xlink:href="#MapleMonoNormalNL-NF-CN-Regular-30" x="179.999954"/>
     <use xlink:href="#MapleMonoNormalNL-NF-CN-Regular-39" x="239.999939"/>
     <use xlink:href="#MapleMonoNormalNL-NF-CN-Regular-32" x="299.999924"/>
    </g>
   </g>
   <g id="text_34">
    <!-- 0.6897 -->
    <g transform="translate(251.37775 165.267502) scale(0.1 -0.1)">
     <use xlink:href="#MapleMonoNormalNL-NF-CN-Regular-30"/>
     <use xlink:href="#MapleMonoNormalNL-NF-CN-Regular-2e" x="59.999985"/>
     <use xlink:href="#MapleMonoNormalNL-NF-CN-Regular-36" x="119.999969"/>
     <use xlink:href="#MapleMonoNormalNL-NF-CN-Regular-38" x="179.999954"/>
     <use xlink:href="#MapleMonoNormalNL-NF-CN-Regular-39" x="239.999939"/>
     <use xlink:href="#MapleMonoNormalNL-NF-CN-Regular-37" x="299.999924"/>
    </g>
   </g>
   <g id="text_35">
    <!-- 0.6742 -->
    <g transform="translate(291.54825 171.83356) scale(0.1 -0.1)">
     <use xlink:href="#MapleMonoNormalNL-NF-CN-Regular-30"/>
     <use xlink:href="#MapleMonoNormalNL-NF-CN-Regular-2e" x="59.999985"/>
     <use xlink:href="#MapleMonoNormalNL-NF-CN-Regular-36" x="119.999969"/>
     <use xlink:href="#MapleMonoNormalNL-NF-CN-Regular-37" x="179.999954"/>
     <use xlink:href="#MapleMonoNormalNL-NF-CN-Regular-34" x="239.999939"/>
     <use xlink:href="#MapleMonoNormalNL-NF-CN-Regular-32" x="299.999924"/>
    </g>
   </g>
   <g id="text_36">
    <!-- 0.6635 -->
    <g transform="translate(331.71875 176.374275) scale(0.1 -0.1)">
     <defs>
      <path id="MapleMonoNormalNL-NF-CN-Regular-33" d="M 646 134 
Q 518 186 470 298 
Q 422 410 480 538 
Q 531 653 643 701 
Q 755 749 922 678 
Q 1094 608 1315 560 
Q 1536 512 1741 512 
Q 2202 512 2477 745 
Q 2752 979 2752 1446 
Q 2752 1696 2601 1843 
Q 2451 1990 2233 2064 
Q 2016 2138 1766 2154 
Q 1517 2170 1312 2157 
Q 1254 2150 1203 2166 
Q 1152 2182 1110 2217 
Q 1069 2253 1046 2310 
Q 1024 2368 1024 2451 
Q 1024 2598 1110 2665 
Q 1197 2733 1389 2733 
Q 1555 2733 1753 2768 
Q 1952 2803 2128 2892 
Q 2304 2982 2422 3132 
Q 2541 3283 2541 3514 
Q 2541 3706 2454 3830 
Q 2368 3955 2233 4028 
Q 2099 4102 1939 4131 
Q 1779 4160 1626 4160 
Q 1446 4160 1292 4125 
Q 1139 4090 992 4006 
Q 896 3955 787 3993 
Q 678 4032 621 4147 
Q 570 4243 598 4355 
Q 627 4467 749 4550 
Q 877 4640 1120 4688 
Q 1363 4736 1632 4736 
Q 1914 4736 2179 4678 
Q 2445 4621 2653 4483 
Q 2861 4346 2989 4122 
Q 3117 3898 3117 3571 
Q 3117 3386 3075 3210 
Q 3034 3034 2947 2893 
Q 2861 2752 2726 2653 
Q 2592 2554 2406 2522 
Q 2650 2502 2826 2403 
Q 3002 2304 3114 2141 
Q 3226 1978 3277 1763 
Q 3328 1549 3328 1306 
Q 3328 998 3222 748 
Q 3117 499 2915 316 
Q 2714 134 2419 35 
Q 2125 -64 1741 -64 
Q 1466 -64 1165 -13 
Q 864 38 646 134 
z
" transform="scale(0.015625)"/>
     </defs>
     <use xlink:href="#MapleMonoNormalNL-NF-CN-Regular-30"/>
     <use xlink:href="#MapleMonoNormalNL-NF-CN-Regular-2e" x="59.999985"/>
     <use xlink:href="#MapleMonoNormalNL-NF-CN-Regular-36" x="119.999969"/>
     <use xlink:href="#MapleMonoNormalNL-NF-CN-Regular-36" x="179.999954"/>
     <use xlink:href="#MapleMonoNormalNL-NF-CN-Regular-33" x="239.999939"/>
     <use xlink:href="#MapleMonoNormalNL-NF-CN-Regular-35" x="299.999924"/>
    </g>
   </g>
   <g id="text_37">
    <!-- 0.6630 -->
    <g transform="translate(371.88925 176.569037) scale(0.1 -0.1)">
     <use xlink:href="#MapleMonoNormalNL-NF-CN-Regular-30"/>
     <use xlink:href="#MapleMonoNormalNL-NF-CN-Regular-2e" x="59.999985"/>
     <use xlink:href="#MapleMonoNormalNL-NF-CN-Regular-36" x="119.999969"/>
     <use xlink:href="#MapleMonoNormalNL-NF-CN-Regular-36" x="179.999954"/>
     <use xlink:href="#MapleMonoNormalNL-NF-CN-Regular-33" x="239.999939"/>
     <use xlink:href="#MapleMonoNormalNL-NF-CN-Regular-30" x="299.999924"/>
    </g>
   </g>
   <g id="text_38">
    <!-- 0.6232 -->
    <g transform="translate(412.05975 193.414785) scale(0.1 -0.1)">
     <use xlink:href="#MapleMonoNormalNL-NF-CN-Regular-30"/>
     <use xlink:href="#MapleMonoNormalNL-NF-CN-Regular-2e" x="59.999985"/>
     <use xlink:href="#MapleMonoNormalNL-NF-CN-Regular-36" x="119.999969"/>
     <use xlink:href="#MapleMonoNormalNL-NF-CN-Regular-32" x="179.999954"/>
     <use xlink:href="#MapleMonoNormalNL-NF-CN-Regular-33" x="239.999939"/>
     <use xlink:href="#MapleMonoNormalNL-NF-CN-Regular-32" x="299.999924"/>
    </g>
   </g>
   <g id="text_39">
    <!-- 0.6085 -->
    <g transform="translate(452.23025 199.645458) scale(0.1 -0.1)">
     <use xlink:href="#MapleMonoNormalNL-NF-CN-Regular-30"/>
     <use xlink:href="#MapleMonoNormalNL-NF-CN-Regular-2e" x="59.999985"/>
     <use xlink:href="#MapleMonoNormalNL-NF-CN-Regular-36" x="119.999969"/>
     <use xlink:href="#MapleMonoNormalNL-NF-CN-Regular-30" x="179.999954"/>
     <use xlink:href="#MapleMonoNormalNL-NF-CN-Regular-38" x="239.999939"/>
     <use xlink:href="#MapleMonoNormalNL-NF-CN-Regular-35" x="299.999924"/>
    </g>
   </g>
   <g id="text_40">
    <!-- 0.5931 -->
    <g transform="translate(492.40075 206.146142) scale(0.1 -0.1)">
     <use xlink:href="#MapleMonoNormalNL-NF-CN-Regular-30"/>
     <use xlink:href="#MapleMonoNormalNL-NF-CN-Regular-2e" x="59.999985"/>
     <use xlink:href="#MapleMonoNormalNL-NF-CN-Regular-35" x="119.999969"/>
     <use xlink:href="#MapleMonoNormalNL-NF-CN-Regular-39" x="179.999954"/>
     <use xlink:href="#MapleMonoNormalNL-NF-CN-Regular-33" x="239.999939"/>
     <use xlink:href="#MapleMonoNormalNL-NF-CN-Regular-31" x="299.999924"/>
    </g>
   </g>
   <g id="text_41">
    <!-- 0.5866 -->
    <g transform="translate(532.57125 208.902288) scale(0.1 -0.1)">
     <use xlink:href="#MapleMonoNormalNL-NF-CN-Regular-30"/>
     <use xlink:href="#MapleMonoNormalNL-NF-CN-Regular-2e" x="59.999985"/>
     <use xlink:href="#MapleMonoNormalNL-NF-CN-Regular-35" x="119.999969"/>
     <use xlink:href="#MapleMonoNormalNL-NF-CN-Regular-38" x="179.999954"/>
     <use xlink:href="#MapleMonoNormalNL-NF-CN-Regular-36" x="239.999939"/>
     <use xlink:href="#MapleMonoNormalNL-NF-CN-Regular-36" x="299.999924"/>
    </g>
   </g>
   <g id="text_42">
    <!-- 0.5850 -->
    <g transform="translate(572.74175 209.565417) scale(0.1 -0.1)">
     <use xlink:href="#MapleMonoNormalNL-NF-CN-Regular-30"/>
     <use xlink:href="#MapleMonoNormalNL-NF-CN-Regular-2e" x="59.999985"/>
     <use xlink:href="#MapleMonoNormalNL-NF-CN-Regular-35" x="119.999969"/>
     <use xlink:href="#MapleMonoNormalNL-NF-CN-Regular-38" x="179.999954"/>
     <use xlink:href="#MapleMonoNormalNL-NF-CN-Regular-35" x="239.999939"/>
     <use xlink:href="#MapleMonoNormalNL-NF-CN-Regular-30" x="299.999924"/>
    </g>
   </g>
   <g id="text_43">
    <!-- 0.5425 -->
    <g transform="translate(612.91225 227.559613) scale(0.1 -0.1)">
     <use xlink:href="#MapleMonoNormalNL-NF-CN-Regular-30"/>
     <use xlink:href="#MapleMonoNormalNL-NF-CN-Regular-2e" x="59.999985"/>
     <use xlink:href="#MapleMonoNormalNL-NF-CN-Regular-35" x="119.999969"/>
     <use xlink:href="#MapleMonoNormalNL-NF-CN-Regular-34" x="179.999954"/>
     <use xlink:href="#MapleMonoNormalNL-NF-CN-Regular-32" x="239.999939"/>
     <use xlink:href="#MapleMonoNormalNL-NF-CN-Regular-35" x="299.999924"/>
    </g>
   </g>
   <g id="text_44">
    <!-- 0.5359 -->
    <g transform="translate(653.08275 230.357706) scale(0.1 -0.1)">
     <use xlink:href="#MapleMonoNormalNL-NF-CN-Regular-30"/>
     <use xlink:href="#MapleMonoNormalNL-NF-CN-Regular-2e" x="59.999985"/>
     <use xlink:href="#MapleMonoNormalNL-NF-CN-Regular-35" x="119.999969"/>
     <use xlink:href="#MapleMonoNormalNL-NF-CN-Regular-33" x="179.999954"/>
     <use xlink:href="#MapleMonoNormalNL-NF-CN-Regular-35" x="239.999939"/>
     <use xlink:href="#MapleMonoNormalNL-NF-CN-Regular-39" x="299.999924"/>
    </g>
   </g>
   <g id="text_45">
    <!-- 0.4502 -->
    <g transform="translate(693.25325 266.636181) scale(0.1 -0.1)">
     <use xlink:href="#MapleMonoNormalNL-NF-CN-Regular-30"/>
     <use xlink:href="#MapleMonoNormalNL-NF-CN-Regular-2e" x="59.999985"/>
     <use xlink:href="#MapleMonoNormalNL-NF-CN-Regular-34" x="119.999969"/>
     <use xlink:href="#MapleMonoNormalNL-NF-CN-Regular-35" x="179.999954"/>
     <use xlink:href="#MapleMonoNormalNL-NF-CN-Regular-30" x="239.999939"/>
     <use xlink:href="#MapleMonoNormalNL-NF-CN-Regular-32" x="299.999924"/>
    </g>
   </g>
   <g id="text_46">
    <!-- 0.4411 -->
    <g transform="translate(733.42375 270.513428) scale(0.1 -0.1)">
     <use xlink:href="#MapleMonoNormalNL-NF-CN-Regular-30"/>
     <use xlink:href="#MapleMonoNormalNL-NF-CN-Regular-2e" x="59.999985"/>
     <use xlink:href="#MapleMonoNormalNL-NF-CN-Regular-34" x="119.999969"/>
     <use xlink:href="#MapleMonoNormalNL-NF-CN-Regular-34" x="179.999954"/>
     <use xlink:href="#MapleMonoNormalNL-NF-CN-Regular-31" x="239.999939"/>
     <use xlink:href="#MapleMonoNormalNL-NF-CN-Regular-31" x="299.999924"/>
    </g>
   </g>
   <g id="text_47">
    <!-- 0.3204 -->
    <g transform="translate(773.59425 321.575202) scale(0.1 -0.1)">
     <use xlink:href="#MapleMonoNormalNL-NF-CN-Regular-30"/>
     <use xlink:href="#MapleMonoNormalNL-NF-CN-Regular-2e" x="59.999985"/>
     <use xlink:href="#MapleMonoNormalNL-NF-CN-Regular-33" x="119.999969"/>
     <use xlink:href="#MapleMonoNormalNL-NF-CN-Regular-32" x="179.999954"/>
     <use xlink:href="#MapleMonoNormalNL-NF-CN-Regular-30" x="239.999939"/>
     <use xlink:href="#MapleMonoNormalNL-NF-CN-Regular-34" x="299.999924"/>
    </g>
   </g>
   <g id="text_48">
    <!-- 0.2431 -->
    <g transform="translate(813.76475 354.334935) scale(0.1 -0.1)">
     <use xlink:href="#MapleMonoNormalNL-NF-CN-Regular-30"/>
     <use xlink:href="#MapleMonoNormalNL-NF-CN-Regular-2e" x="59.999985"/>
     <use xlink:href="#MapleMonoNormalNL-NF-CN-Regular-32" x="119.999969"/>
     <use xlink:href="#MapleMonoNormalNL-NF-CN-Regular-34" x="179.999954"/>
     <use xlink:href="#MapleMonoNormalNL-NF-CN-Regular-33" x="239.999939"/>
     <use xlink:href="#MapleMonoNormalNL-NF-CN-Regular-31" x="299.999924"/>
    </g>
   </g>
   <g id="text_49">
    <!-- 模型比对 - 不同方法下 F1-score -->
    <g transform="translate(360.145 18.01125) scale(0.1 -0.1)">
     <defs>
      <path id="MapleMonoNormalNL-NF-CN-Regular-6bd4" d="M 5965 4032 
Q 6003 4077 6057 4096 
Q 6112 4115 6169 4115 
Q 6227 4115 6278 4099 
Q 6330 4083 6368 4038 
L 6419 3981 
Q 6458 3942 6474 3888 
Q 6490 3834 6486 3779 
Q 6483 3725 6457 3673 
Q 6432 3622 6394 3590 
Q 6035 3302 5609 3024 
Q 5184 2746 4755 2496 
Q 4704 2464 4646 2451 
Q 4614 2445 4589 2438 
L 4589 582 
Q 4589 448 4601 365 
Q 4614 282 4649 234 
Q 4685 186 4749 173 
Q 4813 160 4922 160 
L 5766 160 
Q 5869 160 5936 205 
Q 6003 250 6044 368 
Q 6086 486 6108 691 
Q 6131 896 6144 1203 
Q 6157 1363 6262 1430 
Q 6368 1498 6502 1446 
Q 6566 1414 6620 1328 
Q 6675 1242 6669 1152 
Q 6637 730 6595 442 
Q 6554 154 6464 -25 
Q 6374 -205 6220 -281 
Q 6067 -358 5811 -358 
L 4851 -358 
Q 4614 -358 4454 -313 
Q 4294 -269 4201 -160 
Q 4109 -51 4070 131 
Q 4032 314 4032 602 
L 4032 5075 
Q 4032 5126 4051 5177 
Q 4070 5229 4112 5267 
Q 4154 5306 4202 5328 
Q 4250 5350 4294 5350 
L 4326 5350 
Q 4378 5350 4422 5328 
Q 4467 5306 4505 5264 
Q 4544 5222 4566 5174 
Q 4589 5126 4589 5075 
L 4589 2982 
Q 4730 3072 4877 3168 
Q 5082 3302 5274 3449 
Q 5466 3597 5645 3744 
Q 5824 3891 5965 4032 
z
M 1792 -288 
Q 1722 -320 1651 -320 
Q 1587 -320 1536 -294 
Q 1510 -301 1478 -307 
Q 1421 -307 1369 -281 
Q 1318 -256 1286 -205 
Q 1267 -173 1270 -121 
Q 1274 -70 1283 -12 
Q 1293 45 1318 102 
L 1370 218 
Q 1382 243 1395 246 
Q 1408 250 1417 269 
Q 1427 288 1430 336 
Q 1434 384 1434 486 
L 1434 5037 
Q 1434 5088 1459 5139 
Q 1485 5190 1523 5228 
Q 1562 5267 1606 5289 
Q 1651 5312 1702 5312 
L 1741 5312 
Q 1792 5312 1837 5289 
Q 1882 5267 1923 5228 
Q 1965 5190 1984 5139 
Q 2003 5088 2003 5037 
L 2003 3411 
Q 2042 3424 2080 3424 
L 3290 3424 
Q 3341 3424 3392 3401 
Q 3443 3379 3481 3340 
Q 3520 3302 3542 3254 
Q 3565 3206 3565 3155 
Q 3565 3104 3542 3059 
Q 3520 3014 3481 2976 
Q 3443 2938 3392 2915 
Q 3341 2893 3290 2893 
L 2080 2893 
Q 2042 2893 2003 2906 
L 2003 384 
L 3187 749 
Q 3251 768 3315 765 
Q 3379 762 3427 730 
Q 3475 698 3510 643 
Q 3546 589 3546 525 
Q 3558 448 3494 361 
Q 3430 275 3347 243 
Q 3014 141 2761 54 
Q 2509 -32 2323 -93 
Q 2138 -154 2010 -202 
Q 1882 -250 1792 -288 
z
" transform="scale(0.015625)"/>
      <path id="MapleMonoNormalNL-NF-CN-Regular-5bf9" d="M 1082 4294 
Q 1082 4346 1104 4390 
Q 1126 4435 1168 4470 
Q 1210 4506 1258 4528 
Q 1306 4550 1363 4550 
L 2963 4550 
Q 3014 4550 3066 4531 
Q 3078 4525 3085 4518 
Q 3110 4550 3136 4550 
Q 3149 4550 3161 4553 
Q 3174 4557 3187 4557 
L 3219 4563 
Q 3232 4570 3254 4566 
Q 3277 4563 3290 4557 
L 3386 4531 
Q 3469 4506 3526 4419 
Q 3584 4333 3578 4250 
Q 3475 3418 3290 2720 
Q 3162 2240 2989 1818 
Q 3174 1606 3341 1402 
Q 3558 1120 3718 870 
Q 3757 800 3747 701 
Q 3738 602 3680 550 
L 3654 525 
Q 3603 486 3545 470 
Q 3488 454 3430 464 
Q 3373 474 3315 509 
Q 3258 544 3219 595 
Q 3072 826 2867 1094 
Q 2803 1178 2739 1254 
Q 2515 819 2246 454 
Q 1907 13 1517 -320 
Q 1478 -358 1424 -374 
Q 1370 -390 1315 -387 
Q 1261 -384 1213 -361 
Q 1165 -339 1133 -301 
Q 1056 -211 1072 -76 
Q 1088 58 1190 147 
Q 1549 448 1856 877 
Q 2125 1254 2349 1722 
Q 2150 1946 1933 2170 
Q 1677 2438 1421 2682 
Q 1376 2720 1353 2771 
Q 1331 2822 1328 2880 
Q 1325 2938 1344 2989 
Q 1363 3040 1402 3078 
Q 1466 3130 1568 3126 
Q 1670 3123 1741 3066 
Q 2022 2816 2310 2534 
L 2579 2266 
Q 2707 2624 2810 3021 
Q 2938 3507 3014 4045 
Q 2989 4038 2963 4038 
L 1363 4038 
Q 1306 4038 1258 4060 
Q 1210 4083 1168 4121 
Q 1126 4160 1104 4205 
Q 1082 4250 1082 4294 
z
M 3731 3610 
Q 3731 3661 3753 3705 
Q 3776 3750 3817 3788 
Q 3859 3827 3910 3849 
Q 3962 3872 4006 3872 
L 5504 3872 
L 5504 5114 
Q 5504 5165 5526 5216 
Q 5549 5267 5587 5305 
Q 5626 5344 5674 5366 
Q 5722 5389 5773 5389 
Q 5824 5389 5869 5366 
Q 5914 5344 5955 5305 
Q 5997 5267 6016 5216 
Q 6035 5165 6035 5114 
L 6035 3872 
L 6509 3872 
Q 6560 3872 6611 3849 
Q 6662 3827 6700 3788 
Q 6739 3750 6761 3705 
Q 6784 3661 6784 3613 
Q 6784 3565 6761 3517 
Q 6739 3469 6700 3433 
Q 6662 3398 6611 3376 
Q 6560 3354 6509 3354 
L 6035 3354 
L 6035 186 
Q 6035 -70 5971 -204 
Q 5907 -339 5754 -410 
Q 5632 -467 5424 -486 
Q 5216 -506 4896 -512 
Q 4851 -518 4806 -502 
Q 4762 -486 4723 -454 
Q 4685 -422 4656 -387 
Q 4627 -352 4621 -307 
Q 4602 -237 4611 -176 
Q 4621 -115 4659 -67 
Q 4698 -19 4758 9 
Q 4819 38 4896 38 
Q 5062 32 5164 35 
Q 5267 38 5350 38 
Q 5434 45 5469 73 
Q 5504 102 5504 192 
L 5504 3354 
L 4006 3354 
Q 3962 3354 3910 3376 
Q 3859 3398 3817 3433 
Q 3776 3469 3753 3517 
Q 3731 3565 3731 3610 
z
M 3987 2240 
Q 3962 2291 3952 2348 
Q 3942 2406 3955 2464 
Q 3968 2522 4000 2563 
Q 4032 2605 4077 2630 
Q 4147 2662 4243 2630 
Q 4339 2598 4384 2528 
Q 4544 2285 4685 2016 
Q 4826 1747 4902 1523 
Q 4922 1478 4918 1433 
Q 4915 1389 4899 1344 
Q 4883 1299 4854 1267 
Q 4826 1235 4787 1216 
Q 4736 1190 4678 1190 
Q 4621 1190 4566 1216 
Q 4512 1242 4467 1286 
Q 4422 1331 4397 1395 
Q 4326 1581 4220 1805 
Q 4115 2029 3987 2240 
z
" transform="scale(0.015625)"/>
      <path id="MapleMonoNormalNL-NF-CN-Regular-20" transform="scale(0.015625)"/>
      <path id="MapleMonoNormalNL-NF-CN-Regular-4e0d" d="M 1075 4678 
Q 1075 4730 1100 4774 
Q 1126 4819 1164 4860 
Q 1203 4902 1254 4921 
Q 1306 4941 1357 4941 
L 6330 4941 
Q 6381 4941 6429 4921 
Q 6477 4902 6518 4860 
Q 6560 4819 6582 4774 
Q 6605 4730 6605 4678 
L 6605 4659 
Q 6605 4614 6582 4566 
Q 6560 4518 6518 4480 
Q 6477 4442 6429 4419 
Q 6381 4397 6330 4397 
L 4525 4397 
L 4525 4371 
Q 4525 4314 4493 4262 
Q 4314 3962 4096 3667 
Q 4128 3610 4128 3526 
L 4128 -230 
Q 4128 -288 4105 -339 
Q 4083 -390 4044 -428 
Q 4006 -467 3958 -489 
Q 3910 -512 3859 -512 
L 3814 -512 
Q 3763 -512 3715 -489 
Q 3667 -467 3628 -428 
Q 3590 -390 3568 -339 
Q 3546 -288 3546 -237 
L 3546 2976 
Q 3379 2790 3206 2611 
Q 2829 2234 2397 1898 
Q 1965 1562 1498 1293 
Q 1459 1267 1408 1260 
Q 1357 1254 1305 1267 
Q 1254 1280 1209 1305 
Q 1165 1331 1139 1370 
Q 1133 1370 1133 1376 
L 1133 1382 
Q 1094 1427 1081 1491 
Q 1069 1555 1081 1612 
Q 1094 1670 1136 1724 
Q 1178 1779 1235 1818 
Q 1670 2061 2067 2371 
Q 2464 2682 2809 3030 
Q 3155 3379 3443 3757 
Q 3686 4077 3872 4397 
L 1357 4397 
Q 1306 4397 1254 4419 
Q 1203 4442 1164 4480 
Q 1126 4518 1100 4566 
Q 1075 4614 1075 4659 
L 1075 4678 
z
M 4467 2816 
Q 4422 2854 4393 2912 
Q 4365 2970 4361 3024 
Q 4358 3078 4380 3132 
Q 4403 3187 4442 3226 
L 4454 3238 
Q 4518 3290 4617 3290 
Q 4717 3290 4781 3245 
Q 5024 3085 5273 2909 
Q 5523 2733 5763 2550 
Q 6003 2368 6217 2192 
Q 6432 2016 6611 1850 
Q 6643 1818 6665 1770 
Q 6688 1722 6688 1667 
Q 6688 1613 6669 1565 
Q 6650 1517 6611 1478 
L 6566 1440 
Q 6528 1402 6473 1386 
Q 6419 1370 6361 1373 
Q 6304 1376 6253 1398 
Q 6202 1421 6163 1459 
Q 6003 1613 5804 1785 
Q 5606 1958 5385 2134 
Q 5165 2310 4931 2483 
Q 4698 2656 4467 2816 
z
" transform="scale(0.015625)"/>
      <path id="MapleMonoNormalNL-NF-CN-Regular-540c" d="M 1184 4787 
Q 1184 4838 1206 4886 
Q 1229 4934 1267 4976 
Q 1306 5018 1357 5040 
Q 1408 5062 1459 5062 
L 6246 5062 
Q 6291 5062 6342 5037 
L 6368 5024 
Q 6400 5005 6426 4986 
Q 6464 4947 6486 4902 
Q 6509 4858 6509 4813 
L 6509 141 
Q 6509 -102 6445 -233 
Q 6381 -365 6227 -429 
Q 6099 -480 5894 -502 
Q 5690 -525 5363 -525 
Q 5280 -531 5200 -473 
Q 5120 -416 5094 -346 
Q 5056 -218 5136 -115 
Q 5216 -13 5376 -13 
Q 5542 -19 5641 -16 
Q 5741 -13 5824 -13 
Q 5914 -6 5946 26 
Q 5978 58 5978 141 
L 5978 4550 
L 1747 4550 
Q 1734 4550 1721 4537 
Q 1709 4525 1709 4512 
L 1709 -256 
Q 1709 -307 1686 -358 
Q 1664 -410 1625 -448 
Q 1587 -486 1542 -508 
Q 1498 -531 1450 -531 
Q 1402 -531 1354 -508 
Q 1306 -486 1267 -448 
Q 1229 -410 1206 -358 
Q 1184 -307 1184 -256 
L 1184 4787 
z
M 2547 2547 
Q 2547 2605 2566 2653 
Q 2586 2701 2624 2739 
Q 2662 2778 2707 2803 
Q 2752 2829 2797 2829 
Q 2848 2829 2893 2803 
L 2931 2778 
Q 3008 2829 3091 2829 
L 4864 2829 
Q 4915 2829 4963 2803 
Q 5011 2778 5052 2739 
Q 5094 2701 5116 2653 
Q 5139 2605 5139 2547 
L 5139 1043 
Q 5139 992 5116 941 
Q 5094 890 5052 851 
Q 5011 813 4963 790 
Q 4915 768 4864 768 
L 3046 768 
L 3046 582 
Q 3046 538 3027 486 
Q 3008 435 2973 393 
Q 2938 352 2893 329 
Q 2848 307 2797 307 
Q 2752 307 2707 329 
Q 2662 352 2624 393 
Q 2586 435 2566 486 
Q 2547 538 2547 582 
L 2547 2547 
z
M 3046 1216 
Q 3072 1222 3091 1222 
L 4602 1222 
Q 4614 1222 4627 1235 
Q 4640 1248 4640 1267 
L 4640 2336 
Q 4640 2349 4627 2361 
Q 4614 2374 4602 2374 
L 3091 2374 
Q 3072 2374 3046 2381 
L 3046 1216 
z
M 2227 3699 
Q 2227 3738 2249 3779 
Q 2272 3821 2313 3856 
Q 2355 3891 2403 3910 
Q 2451 3930 2502 3930 
L 5197 3930 
Q 5248 3930 5296 3910 
Q 5344 3891 5385 3856 
Q 5427 3821 5449 3779 
Q 5472 3738 5472 3699 
Q 5472 3610 5385 3536 
Q 5299 3462 5197 3462 
L 2502 3462 
Q 2400 3462 2313 3536 
Q 2227 3610 2227 3699 
z
" transform="scale(0.015625)"/>
      <path id="MapleMonoNormalNL-NF-CN-Regular-4e0b" d="M 992 4653 
Q 992 4704 1014 4749 
Q 1037 4794 1075 4832 
Q 1114 4870 1165 4892 
Q 1216 4915 1261 4915 
L 6426 4915 
Q 6477 4915 6525 4892 
Q 6573 4870 6611 4832 
Q 6650 4794 6672 4749 
Q 6694 4704 6694 4653 
L 6694 4640 
Q 6694 4589 6672 4541 
Q 6650 4493 6611 4457 
Q 6573 4422 6525 4400 
Q 6477 4378 6426 4378 
L 3930 4378 
Q 3955 4339 3974 4301 
Q 3994 4250 3994 4198 
L 3994 3245 
Q 4045 3277 4115 3290 
Q 4211 3309 4282 3270 
Q 4518 3149 4771 3014 
Q 5024 2880 5270 2739 
Q 5517 2598 5741 2457 
Q 5965 2317 6150 2195 
Q 6189 2170 6214 2122 
Q 6240 2074 6246 2022 
Q 6253 1971 6246 1920 
Q 6240 1869 6208 1830 
L 6157 1779 
Q 6125 1728 6073 1705 
Q 6022 1683 5968 1676 
Q 5914 1670 5856 1683 
Q 5798 1696 5754 1728 
Q 5587 1850 5382 1984 
Q 5178 2118 4954 2256 
Q 4730 2394 4493 2531 
Q 4256 2669 4032 2784 
L 3994 2810 
L 3994 -237 
Q 3994 -288 3974 -339 
Q 3955 -390 3916 -428 
Q 3878 -467 3833 -489 
Q 3789 -512 3738 -512 
L 3693 -512 
Q 3642 -512 3594 -489 
Q 3546 -467 3507 -428 
Q 3469 -390 3449 -339 
Q 3430 -288 3430 -237 
L 3430 4198 
Q 3430 4250 3450 4301 
Q 3469 4339 3494 4378 
L 1261 4378 
Q 1216 4378 1165 4400 
Q 1114 4422 1075 4457 
Q 1037 4493 1014 4541 
Q 992 4589 992 4640 
L 992 4653 
z
" transform="scale(0.015625)"/>
     </defs>
     <use xlink:href="#MapleMonoNormalNL-NF-CN-Regular-6a21"/>
     <use xlink:href="#MapleMonoNormalNL-NF-CN-Regular-578b" x="119.999985"/>
     <use xlink:href="#MapleMonoNormalNL-NF-CN-Regular-6bd4" x="239.999969"/>
     <use xlink:href="#MapleMonoNormalNL-NF-CN-Regular-5bf9" x="359.999954"/>
     <use xlink:href="#MapleMonoNormalNL-NF-CN-Regular-20" x="479.999939"/>
     <use xlink:href="#MapleMonoNormalNL-NF-CN-Regular-2d" x="539.999924"/>
     <use xlink:href="#MapleMonoNormalNL-NF-CN-Regular-20" x="599.999908"/>
     <use xlink:href="#MapleMonoNormalNL-NF-CN-Regular-4e0d" x="659.999893"/>
     <use xlink:href="#MapleMonoNormalNL-NF-CN-Regular-540c" x="779.999878"/>
     <use xlink:href="#MapleMonoNormalNL-NF-CN-Regular-65b9" x="899.999863"/>
     <use xlink:href="#MapleMonoNormalNL-NF-CN-Regular-6cd5" x="1019.999847"/>
     <use xlink:href="#MapleMonoNormalNL-NF-CN-Regular-4e0b" x="1139.999832"/>
     <use xlink:href="#MapleMonoNormalNL-NF-CN-Regular-20" x="1259.999817"/>
     <use xlink:href="#MapleMonoNormalNL-NF-CN-Regular-46" x="1319.999802"/>
     <use xlink:href="#MapleMonoNormalNL-NF-CN-Regular-31" x="1379.999786"/>
     <use xlink:href="#MapleMonoNormalNL-NF-CN-Regular-2d" x="1439.999771"/>
     <use xlink:href="#MapleMonoNormalNL-NF-CN-Regular-73" x="1499.999756"/>
     <use xlink:href="#MapleMonoNormalNL-NF-CN-Regular-63" x="1559.999741"/>
     <use xlink:href="#MapleMonoNormalNL-NF-CN-Regular-6f" x="1619.999725"/>
     <use xlink:href="#MapleMonoNormalNL-NF-CN-Regular-72" x="1679.99971"/>
     <use xlink:href="#MapleMonoNormalNL-NF-CN-Regular-65" x="1739.999695"/>
    </g>
   </g>
  </g>
 </g>
 <defs>
  <clipPath id="pe32ef4650f">
   <rect x="48.44" y="24.01125" width="803.41" height="439.348098"/>
  </clipPath>
 </defs>
</svg>
